<?xml version="1.0" encoding="utf-8"?>
<!-- Generator: Adobe Illustrator 16.0.0, SVG Export Plug-In . SVG Version: 6.00 Build 0)  -->
<!DOCTYPE svg PUBLIC "-//W3C//DTD SVG 1.1//EN" "http://www.w3.org/Graphics/SVG/1.1/DTD/svg11.dtd">
<svg version="1.1" id="Blue" xmlns="http://www.w3.org/2000/svg" xmlns:xlink="http://www.w3.org/1999/xlink" x="0px" y="0px"
	 width="1920px" height="820.5px" viewBox="0 -17.7 1920 820.5" enable-background="new 0 -17.7 1920 820.5" xml:space="preserve">
<g id="Layer_9">
	<path fill="none" stroke="#89D5F3" d="M1.2,731.9c34.5,13.6,67,29.5,101.1,30.2c27.6,0.6,52.6-10.1,76.6-38.5
		c30.1-35.7,44.5-86.5,76.5-123.8c32.6-37.8,71.9-42.6,109.7-43.1C476.5,555.1,568.8,474.3,661,390
		c56.4-51.6,115.4-107.6,174.8-139.3c63.6-33.9,137-52.2,195.6-0.3c9.8,8.7,17.7,18.4,24.1,28.7c31.6,50.6,31.2,119.4,34.6,176.4
		c3.6,59.6,13.1,116.6,41.1,157.9c24.4,35.9,62.7,59.3,124,60.8c15.5,0.4,31.1,0.1,46.9-1.2c78-6.8,155.9-40.3,226.8-73.4
		c68.2-31.9,133.7-69.2,199.4-105.9c61.8-34.6,123.8-68.9,186.2-102.6"/>
</g>
</svg>
