<?xml version="1.0" encoding="utf-8"?>
<!-- Generator: Adobe Illustrator 16.0.0, SVG Export Plug-In . SVG Version: 6.00 Build 0)  -->
<!DOCTYPE svg PUBLIC "-//W3C//DTD SVG 1.1//EN" "http://www.w3.org/Graphics/SVG/1.1/DTD/svg11.dtd">
<svg version="1.1" id="Layer_1" xmlns="http://www.w3.org/2000/svg" xmlns:xlink="http://www.w3.org/1999/xlink" x="0px" y="0px"
	 width="1920px" height="820.5px" viewBox="0 -17.7 1920 820.5" enable-background="new 0 -17.7 1920 820.5" xml:space="preserve">
<path id="XMLID_48_" fill="none" stroke="#89D5F3" d="M1.2,753.7c66.4,12.4,119.8,42,169.3-26.3c26.5-36.6,35.9-86,68.3-118.3
	C272.1,575.9,315,583.5,357,591c202,36.2,337.6-183.9,485.5-285.6c61.3-42.1,146.4-80.9,215.2-31.9c65.8,46.9,60.1,138.3,60,209.9
	c-0.1,119.1,23.2,228.7,166.9,218.5c97.9-6.9,193.9-48.8,282.2-88.7c118.9-53.7,233.6-116.5,348.3-178.5"/>
</svg>
