<?xml version="1.0" encoding="utf-8"?>
<!-- Generator: Adobe Illustrator 16.0.0, SVG Export Plug-In . SVG Version: 6.00 Build 0)  -->
<!DOCTYPE svg PUBLIC "-//W3C//DTD SVG 1.1//EN" "http://www.w3.org/Graphics/SVG/1.1/DTD/svg11.dtd">
<svg version="1.1" id="Blue" xmlns="http://www.w3.org/2000/svg" xmlns:xlink="http://www.w3.org/1999/xlink" x="0px" y="0px"
	 width="1920px" height="820.5px" viewBox="0 -17.7 1920 820.5" enable-background="new 0 -17.7 1920 820.5" xml:space="preserve">
<g id="Layer_7">
	<path fill="none" stroke="#89D5F3" d="M1.2,737.4c35.1,12,67.7,26.9,100.9,26.8c26.7,0,51.2-10.7,74.7-39.7
		c29.2-36,42.4-86.4,74.4-122.4c32.8-36.7,73-38.4,111.9-36.9c114.7,4.4,208.7-75,301-159.4c56.7-51.9,114.6-108.1,173.4-141.5
		c63-36.1,139.4-59.4,200.5-8.2c10.1,8.5,18.4,18.1,25.1,28.5c32.7,50.5,31.4,120.3,34,177.8c2.7,60.5,11.4,118.4,39.4,159.7
		c24.4,36,63.4,57.7,126.2,58.9c15.8,0.3,31.6-0.7,47.5-2.5c78.7-8.7,156.8-42.5,228.3-75.6c66.5-30.8,130.6-66.3,194.8-101.7
		c60.4-33.3,120.8-66.6,181.5-99.3"/>
</g>
</svg>
