<?xml version="1.0" encoding="utf-8"?>
<!-- Generator: Adobe Illustrator 16.0.0, SVG Export Plug-In . SVG Version: 6.00 Build 0)  -->
<!DOCTYPE svg PUBLIC "-//W3C//DTD SVG 1.1//EN" "http://www.w3.org/Graphics/SVG/1.1/DTD/svg11.dtd">
<svg version="1.1" id="Blue" xmlns="http://www.w3.org/2000/svg" xmlns:xlink="http://www.w3.org/1999/xlink" x="0px" y="0px"
	 width="1920px" height="820.5px" viewBox="0 -17.7 1920 820.5" enable-background="new 0 -17.7 1920 820.5" xml:space="preserve">
<g id="Layer_11">
	<path fill="none" stroke="#89D5F3" d="M1.2,726.5c33.9,15.3,66.4,32.1,101.3,33.5c28.4,1.2,54-9.4,78.5-37.4
		c31-35.5,46.7-86.6,78.5-125.1c32.5-39,70.8-46.8,107.6-49.4c108.1-7.5,198.6-89.8,290.8-174.1C714.1,322.7,774,266.9,834.1,237
		c64.2-31.9,134.7-45.1,190.7,7.6c9.3,8.8,17,18.6,23.2,28.9c30.5,50.8,30.9,118.6,35.3,175.1c4.5,58.7,14.7,114.8,42.8,156
		c24.3,35.7,62,59.7,121.8,62.7c15.3,0.8,30.7,1,46.3,0c77.4-4.8,155-38.1,225.3-71.1c70-32.9,136.8-72.1,204-110.2
		c63.3-35.9,126.9-71.3,190.9-105.8"/>
</g>
</svg>
