<?xml version="1.0" encoding="utf-8"?>
<!-- Generator: Adobe Illustrator 16.0.0, SVG Export Plug-In . SVG Version: 6.00 Build 0)  -->
<!DOCTYPE svg PUBLIC "-//W3C//DTD SVG 1.1//EN" "http://www.w3.org/Graphics/SVG/1.1/DTD/svg11.dtd">
<svg version="1.1" id="Blue" xmlns="http://www.w3.org/2000/svg" xmlns:xlink="http://www.w3.org/1999/xlink" x="0px" y="0px"
	 width="1920px" height="820.5px" viewBox="0 -17.7 1920 820.5" enable-background="new 0 -17.7 1920 820.5" xml:space="preserve">
<g id="Layer_25">
	<path fill="none" stroke="#89D5F3" d="M1.2,688.3c29.7,27.1,61.6,50.4,102.9,56.8c34,5.4,64-4.4,91.7-29.4
		c37.5-33.9,61.8-87.6,92.9-134.7c31.2-47,63-76,92.7-93c84.6-48.5,163.5-141.7,255.2-225.4c54.1-49.4,120.9-104.5,185.9-121.5
		c68.2-17.8,118.2,5.4,156.3,63c6.5,9.8,11.8,20.1,16.3,30.4c22.8,52.2,29.2,112.7,40,165.4c10.7,52.2,26.2,102.2,54.9,143.2
		c24.2,34.6,57.7,62.7,106.5,75.9c13.7,3.7,27.6,7.1,42,8.9c72.8,9.1,148.6-22.8,214.5-55.4c82.1-40.5,158.2-92.1,236-139.9
		c73.4-45.2,148.2-87.7,224.1-128.7"/>
</g>
</svg>
