<?xml version="1.0" encoding="utf-8"?>
<!-- Generator: Adobe Illustrator 16.0.0, SVG Export Plug-In . SVG Version: 6.00 Build 0)  -->
<!DOCTYPE svg PUBLIC "-//W3C//DTD SVG 1.1//EN" "http://www.w3.org/Graphics/SVG/1.1/DTD/svg11.dtd">
<svg version="1.1" id="Layer_41" xmlns="http://www.w3.org/2000/svg" xmlns:xlink="http://www.w3.org/1999/xlink" x="0px" y="0px"
	 width="1920px" height="820.5px" viewBox="0 -17.7 1920 820.5" enable-background="new 0 -17.7 1920 820.5" xml:space="preserve">
<path fill="none" stroke="#89D5F3" d="M1.2,650.1C26.7,689,58,718.7,105.6,730.2c39.7,9.6,74.2,0.8,104.8-21.3
	c44.2-31.9,76.9-88.5,107.2-144.3c30-55,55.5-104.9,77.7-136.7c61.7-88.3,128.3-193.6,219.5-276.7c52.1-47.5,125.6-102,195.6-105.9
	c72.1-3.9,101.3,56.1,122,118.3c3.6,10.9,6.7,21.7,9.4,31.8c14.7,53.8,27.1,106.9,44.7,155.7c16.5,45.8,37.7,89.7,67,130.4
	c24,33.5,53,67,91.2,89c12.1,7,24.5,13.2,37.7,17.8c68.2,23.3,142.1-7.8,203.8-39.6c94-48.4,179.7-112.1,268.1-169.7
	c83.5-54.5,169.5-104.2,257.2-151.5"/>
</svg>
