<?xml version="1.0" encoding="utf-8"?>
<!-- Generator: Adobe Illustrator 16.0.0, SVG Export Plug-In . SVG Version: 6.00 Build 0)  -->
<!DOCTYPE svg PUBLIC "-//W3C//DTD SVG 1.1//EN" "http://www.w3.org/Graphics/SVG/1.1/DTD/svg11.dtd">
<svg version="1.1" id="Layer_32" xmlns="http://www.w3.org/2000/svg" xmlns:xlink="http://www.w3.org/1999/xlink" x="0px" y="0px"
	 width="1920px" height="820.5px" viewBox="0 -17.7 1920 820.5" enable-background="new 0 -17.7 1920 820.5" xml:space="preserve">
<path fill="none" stroke="#89D5F3" d="M1.2,669.2c27.6,33,59.2,59.5,103.7,68.4c36.9,7.5,69.1-1.8,98.2-25.3
	c40.8-33,69.4-88,100.1-139.5c30.6-51,59.2-90.5,85.2-114.8c73-68.5,145.9-167.6,237.4-251c53.1-48.4,123.2-103.2,190.7-113.7
	c70.1-10.8,109.8,30.7,139.1,90.7c5.1,10.4,9.3,20.9,12.9,31.1c18.8,53,28.2,109.7,42.4,160.5c13.7,49,32,96,61,136.8
	c24.1,34,55.4,64.7,98.8,82.4c12.9,5.3,26,10.2,39.9,13.3c70.5,16.1,145.4-15.3,209.1-47.5c88-44.4,169-102.1,252-154.8
	c78.5-49.8,158.8-96,240.7-140.1"/>
</svg>
