<?xml version="1.0" encoding="utf-8"?>
<!-- Generator: Adobe Illustrator 16.0.0, SVG Export Plug-In . SVG Version: 6.00 Build 0)  -->
<!DOCTYPE svg PUBLIC "-//W3C//DTD SVG 1.1//EN" "http://www.w3.org/Graphics/SVG/1.1/DTD/svg11.dtd">
<svg version="1.1" id="Layer_43" xmlns="http://www.w3.org/2000/svg" xmlns:xlink="http://www.w3.org/1999/xlink" x="0px" y="0px"
	 width="1920px" height="820.5px" viewBox="0 -17.7 1920 820.5" enable-background="new 0 -17.7 1920 820.5" xml:space="preserve">
<path fill="none" stroke="#89D5F3" d="M1.2,639.2c24.2,42.3,55.4,73.8,104.9,86.7c41.3,10.8,77.1,2.3,108.6-19
	c46.2-31.3,81.2-88.8,111.3-147c29.7-57.3,53.4-113.1,73.4-149.2c55.4-99.7,118.2-208.4,209.4-291.4
	c51.5-46.9,127-101.5,198.3-101.4c73.2-0.1,96.4,70.6,112.1,134.1c2.8,11.2,5.2,22.1,7.5,32.2c12.4,54.2,26.4,105.2,46,152.9
	c18.1,44,41,86.1,70.5,126.7c24,33.1,51.5,68.4,86.8,92.8c11.5,7.9,23.6,15,36.5,20.3c66.8,27.4,140.1-3.7,200.7-35.1
	c97.3-50.8,185.8-117.8,277.2-178.2c86.4-57.1,175.5-108.9,266.7-158"/>
</svg>
