<?xml version="1.0" encoding="utf-8"?>
<!-- Generator: Adobe Illustrator 16.0.0, SVG Export Plug-In . SVG Version: 6.00 Build 0)  -->
<!DOCTYPE svg PUBLIC "-//W3C//DTD SVG 1.1//EN" "http://www.w3.org/Graphics/SVG/1.1/DTD/svg11.dtd">
<svg version="1.1" id="Layer_38" xmlns="http://www.w3.org/2000/svg" xmlns:xlink="http://www.w3.org/1999/xlink" x="0px" y="0px"
	 width="1920px" height="820.5px" viewBox="0 -17.7 1920 820.5" enable-background="new 0 -17.7 1920 820.5" xml:space="preserve">
<path fill="none" stroke="#89D5F3" d="M1.2,652.8c25.7,38,57.1,67.3,104.3,78.4c39.3,9.3,73.5,0.4,103.9-21.9
	c43.7-32.1,75.8-88.5,106.2-143.6c30.1-54.4,56-102.8,78.8-133.6c63.3-85.5,130.8-189.9,222.1-273c52.3-47.6,125.3-102.2,194.9-107
	c71.8-4.9,102.6,52.5,124.4,114.4c3.8,10.9,7,21.6,9.9,31.7c15.3,53.6,27.3,107.3,44.4,156.4c16.1,46.3,36.9,90.6,66.1,131.3
	c24.1,33.5,53.4,66.7,92.3,88.1c12.2,6.7,24.7,12.8,38,17.1c68.5,22.2,142.5-8.9,204.5-40.7c93.1-47.8,178.2-110.7,265.8-167.6
	c82.8-53.8,167.9-103,254.9-149.8"/>
</svg>
