<?xml version="1.0" encoding="utf-8"?>
<!-- Generator: Adobe Illustrator 16.0.0, SVG Export Plug-In . SVG Version: 6.00 Build 0)  -->
<!DOCTYPE svg PUBLIC "-//W3C//DTD SVG 1.1//EN" "http://www.w3.org/Graphics/SVG/1.1/DTD/svg11.dtd">
<svg version="1.1" id="Blue" xmlns="http://www.w3.org/2000/svg" xmlns:xlink="http://www.w3.org/1999/xlink" x="0px" y="0px"
	 width="1920px" height="820.5px" viewBox="0 -17.7 1920 820.5" enable-background="new 0 -17.7 1920 820.5" xml:space="preserve">
<g id="Layer_12">
	<path fill="none" stroke="#89D5F3" d="M1.2,723.7c33.6,16.2,66,33.4,101.4,35.2c28.8,1.5,54.8-9,79.4-36.8
		c31.4-35.4,47.8-86.7,79.5-125.8c32.4-39.6,70.2-48.9,106.5-52.5c106.4-10.5,196.1-93.5,288.3-177.7c56-51.2,116.4-107,176.9-135.9
		c64.5-30.9,133.5-41.5,188.2,11.6c9.1,8.9,16.6,18.7,22.7,29c30,50.9,30.8,118.2,35.6,174.4c5,58.2,15.5,113.9,43.7,155.1
		c24.3,35.6,61.7,59.8,120.7,63.6c15.2,1,30.5,1.4,46,0.7c77.1-3.8,154.6-37,224.5-70c70.9-33.5,138.3-73.5,206.3-112.3
		c64-36.6,128.4-72.4,193.3-107.5"/>
</g>
</svg>
