<?xml version="1.0" encoding="utf-8"?>
<!-- Generator: Adobe Illustrator 16.0.0, SVG Export Plug-In . SVG Version: 6.00 Build 0)  -->
<!DOCTYPE svg PUBLIC "-//W3C//DTD SVG 1.1//EN" "http://www.w3.org/Graphics/SVG/1.1/DTD/svg11.dtd">
<svg version="1.1" id="Blue" xmlns="http://www.w3.org/2000/svg" xmlns:xlink="http://www.w3.org/1999/xlink" x="0px" y="0px"
	 width="1920px" height="820.5px" viewBox="0 -17.7 1920 820.5" enable-background="new 0 -17.7 1920 820.5" xml:space="preserve">
<g id="Layer_19">
	<path fill="none" stroke="#89D5F3" d="M1.2,704.6c31.5,22.1,63.6,42.6,102.2,46.8c31.6,3.6,59.7-6.5,86-32.8
		c34.7-34.6,55.3-87.2,86.7-130.6c31.8-43.6,66.4-63.6,99.1-74.3c94.6-31.1,178.5-119.4,270.4-203.4
		c55-50.2,118.8-105.6,181.7-128.1c66.5-23.8,125.3-16.3,171.1,39.3c7.7,9.4,14,19.5,19.2,29.7c26.1,51.6,30,115.2,38,169.5
		c8.1,55,21.3,107.6,49.7,148.7c24.3,35.1,59.5,61.2,113.1,70.2c14.4,2.4,28.9,4.5,43.8,5.1c74.8,3.1,151.4-29.3,219.1-62.1
		c76.9-37.2,149-83.5,222.3-127.2c69.1-41.2,139-80.7,209.9-118.9"/>
</g>
</svg>
