<?xml version="1.0" encoding="utf-8"?>
<!-- Generator: Adobe Illustrator 16.0.0, SVG Export Plug-In . SVG Version: 6.00 Build 0)  -->
<!DOCTYPE svg PUBLIC "-//W3C//DTD SVG 1.1//EN" "http://www.w3.org/Graphics/SVG/1.1/DTD/svg11.dtd">
<svg version="1.1" id="Layer_35" xmlns="http://www.w3.org/2000/svg" xmlns:xlink="http://www.w3.org/1999/xlink" x="0px" y="0px"
	 width="1920px" height="820.5px" viewBox="0 -17.7 1920 820.5" enable-background="new 0 -17.7 1920 820.5" xml:space="preserve">
<path fill="none" stroke="#89D5F3" d="M1.2,661c26.6,35.5,58.1,63.4,104,73.4c38.1,8.4,71.3-0.7,101.1-23.6
	c42.3-32.5,72.6-88.2,103.1-141.6c30.4-52.7,57.6-96.6,82-124.2c68.1-77,138.3-178.8,229.7-262c52.7-48,124.2-102.7,192.8-110.3
	c71-7.9,106.2,41.6,131.8,102.5c4.5,10.6,8.1,21.2,11.4,31.4c17.1,53.3,27.7,108.5,43.4,158.4c14.9,47.6,34.4,93.3,63.5,134.1
	c24.1,33.8,54.4,65.6,95.6,85.3c12.6,6,25.4,11.5,39,15.2c69.5,19.2,144-12.1,206.8-44.1c90.6-46.1,173.6-106.4,258.9-161.2
	c80.6-51.8,163.4-99.5,247.8-145"/>
</svg>
