<?xml version="1.0" encoding="utf-8"?>
<!-- Generator: Adobe Illustrator 16.0.0, SVG Export Plug-In . SVG Version: 6.00 Build 0)  -->
<!DOCTYPE svg PUBLIC "-//W3C//DTD SVG 1.1//EN" "http://www.w3.org/Graphics/SVG/1.1/DTD/svg11.dtd">
<svg version="1.1" id="Blue" xmlns="http://www.w3.org/2000/svg" xmlns:xlink="http://www.w3.org/1999/xlink" x="0px" y="0px"
	 width="1920px" height="820.5px" viewBox="0 -17.7 1920 820.5" enable-background="new 0 -17.7 1920 820.5" xml:space="preserve">
<g id="Layer_20">
	<path fill="none" stroke="#89D5F3" d="M1.2,701.9c31.2,22.9,63.3,43.9,102.3,48.5c32,3.9,60.4-6.2,87-32.2
		c35.1-34.5,56.4-87.2,87.7-131.3c31.7-44.1,65.8-65.6,98-77.4c93-34,176-123.1,267.9-207c54.9-50.1,119.2-105.4,182.4-127
		c66.8-22.8,124.1-12.7,168.6,43.2c7.5,9.5,13.7,19.6,18.8,29.8c25.6,51.7,29.9,114.8,38.3,168.8c8.5,54.5,22.1,106.7,50.6,147.8
		c24.3,35,59.2,61.5,112,71.2c14.3,2.6,28.7,4.9,43.5,5.7c74.4,4.1,150.9-28.3,218.3-61c77.8-37.8,150.6-84.9,224.6-129.3
		c69.8-41.9,140.6-81.8,212.3-120.5"/>
</g>
</svg>
