<?xml version="1.0" encoding="utf-8"?>
<!-- Generator: Adobe Illustrator 16.0.0, SVG Export Plug-In . SVG Version: 6.00 Build 0)  -->
<!DOCTYPE svg PUBLIC "-//W3C//DTD SVG 1.1//EN" "http://www.w3.org/Graphics/SVG/1.1/DTD/svg11.dtd">
<svg version="1.1" id="Layer_45" xmlns="http://www.w3.org/2000/svg" xmlns:xlink="http://www.w3.org/1999/xlink" x="0px" y="0px"
	 width="1920px" height="820.5px" viewBox="0 -17.7 1920 820.5" enable-background="new 0 -17.7 1920 820.5" xml:space="preserve">
<path fill="none" stroke="#89D5F3" d="M1.2,633.7c23.6,43.9,54.7,76.4,105.1,90.1c42.1,11.4,78.6,3.1,110.5-17.9
	c47.2-31,83.4-88.9,113.4-148.4c29.5-58.4,52.5-117.2,71.3-155.4C454,296.7,514.7,186.2,605.8,103.4C657,56.7,733.4,2.2,805.5,4.2
	c73.8,1.9,93.9,77.9,107.2,142.1c2.3,11.4,4.4,22.4,6.5,32.4c11.1,54.4,26,104.5,46.7,151.5c18.8,43.2,42.6,84.3,72.2,124.9
	c24,33,50.7,69.1,84.6,94.6c11.2,8.5,23.1,15.9,35.9,21.6c66.1,29.4,139.2-1.5,199.2-32.8c99-51.9,188.9-120.7,281.8-182.4
	c87.9-58.5,178.6-111.2,271.4-161.3"/>
</svg>
