<?xml version="1.0" encoding="utf-8"?>
<!-- Generator: Adobe Illustrator 16.0.0, SVG Export Plug-In . SVG Version: 6.00 Build 0)  -->
<!DOCTYPE svg PUBLIC "-//W3C//DTD SVG 1.1//EN" "http://www.w3.org/Graphics/SVG/1.1/DTD/svg11.dtd">
<svg version="1.1" id="Layer_34" xmlns="http://www.w3.org/2000/svg" xmlns:xlink="http://www.w3.org/1999/xlink" x="0px" y="0px"
	 width="1920px" height="820.5px" viewBox="0 -17.7 1920 820.5" enable-background="new 0 -17.7 1920 820.5" xml:space="preserve">
<path fill="none" stroke="#89D5F3" d="M1.2,663.7c26.9,34.7,58.5,62.1,103.9,71.8c37.7,8.1,70.6-1.1,100.1-24.2
	c41.8-32.7,71.5-88.2,102.1-140.9c30.4-52.1,58.1-94.6,83.1-121.1c69.7-74.1,140.8-175.1,232.3-258.4
	c52.8-48.2,123.9-102.9,192.1-111.4c70.7-8.9,107.4,38,134.2,98.6c4.7,10.5,8.5,21.1,11.9,31.3c17.7,53.2,27.9,108.9,43,159.1
	c14.5,48.1,33.6,94.2,62.7,135c24.1,33.9,54.7,65.3,96.7,84.3c12.7,5.8,25.6,11,39.3,14.6c69.8,18.2,144.4-13.2,207.6-45.2
	c89.7-45.5,172-104.9,256.6-159.1c79.9-51.2,161.9-98.3,245.4-143.3"/>
</svg>
