<?xml version="1.0" encoding="utf-8"?>
<!-- Generator: Adobe Illustrator 16.0.0, SVG Export Plug-In . SVG Version: 6.00 Build 0)  -->
<!DOCTYPE svg PUBLIC "-//W3C//DTD SVG 1.1//EN" "http://www.w3.org/Graphics/SVG/1.1/DTD/svg11.dtd">
<svg version="1.1" id="Blue" xmlns="http://www.w3.org/2000/svg" xmlns:xlink="http://www.w3.org/1999/xlink" x="0px" y="0px"
	 width="1920px" height="820.5px" viewBox="0 -17.7 1920 820.5" enable-background="new 0 -17.7 1920 820.5" xml:space="preserve">
<g id="Layer_17">
	<path fill="none" stroke="#89D5F3" d="M1.2,710.1c32.1,20.4,64.3,39.9,102,43.5c30.8,2.9,58.3-7.3,84.1-33.9
		c33.7-34.8,53.2-87,84.7-129.2c31.9-42.4,67.5-59.4,101.2-68.1c98-25.2,183.6-112,275.5-196c55.3-50.5,118.1-106,180.4-130.4
		c65.9-25.8,127.6-23.5,176,31.4c8.1,9.2,14.8,19.2,20.2,29.5c27.2,51.4,30.2,116.1,37.3,170.9c7.2,55.9,19.6,109.4,48,150.5
		c24.3,35.2,60.1,60.8,115.3,68.3c14.6,2,29.4,3.6,44.4,3.8c75.4,1.1,152.3-31.5,220.7-64.4c75.2-36.1,146-80.6,217.7-122.9
		c67.6-39.9,136-78.3,205.2-115.6"/>
</g>
</svg>
