<?xml version="1.0" encoding="utf-8"?>
<!-- Generator: Adobe Illustrator 16.0.0, SVG Export Plug-In . SVG Version: 6.00 Build 0)  -->
<!DOCTYPE svg PUBLIC "-//W3C//DTD SVG 1.1//EN" "http://www.w3.org/Graphics/SVG/1.1/DTD/svg11.dtd">
<svg version="1.1" id="Blue" xmlns="http://www.w3.org/2000/svg" xmlns:xlink="http://www.w3.org/1999/xlink" x="0px" y="0px"
	 width="1920px" height="820.5px" viewBox="0 -17.7 1920 820.5" enable-background="new 0 -17.7 1920 820.5" xml:space="preserve">
<g id="Layer_10">
	<path fill="none" stroke="#89D5F3" d="M1.2,729.2C35.4,743.7,67.9,760,102.4,761c28,0.9,53.3-9.7,77.5-37.9
		c30.5-35.6,45.6-86.6,77.5-124.4c32.5-38.4,71.3-44.7,108.7-46.2c109.7-4.5,201.2-86.1,293.3-170.4
		c56.3-51.5,115.7-107.4,175.5-138.2c63.9-32.9,135.9-48.7,193.1,3.7c9.5,8.7,17.3,18.5,23.7,28.8c31.1,50.7,31.1,119,35,175.8
		c4.1,59.1,13.9,115.7,42,156.9c24.4,35.8,62.4,59.5,122.9,61.8c15.4,0.6,30.9,0.6,46.6-0.6c77.7-5.8,155.5-39.2,226-72.3
		c69.1-32.4,135.2-70.6,201.7-108.1c62.6-35.2,125.3-70.1,188.6-104.2"/>
</g>
</svg>
