<?xml version="1.0" encoding="utf-8"?>
<!-- Generator: Adobe Illustrator 16.0.0, SVG Export Plug-In . SVG Version: 6.00 Build 0)  -->
<!DOCTYPE svg PUBLIC "-//W3C//DTD SVG 1.1//EN" "http://www.w3.org/Graphics/SVG/1.1/DTD/svg11.dtd">
<svg version="1.1" id="Layer_30" xmlns="http://www.w3.org/2000/svg" xmlns:xlink="http://www.w3.org/1999/xlink" x="0px" y="0px"
	 width="1920px" height="820.5px" viewBox="0 -17.7 1920 820.5" enable-background="new 0 -17.7 1920 820.5" xml:space="preserve">
<path fill="none" stroke="#89D5F3" d="M1.2,674.6c28.2,31.3,59.9,56.9,103.4,65.1c36,6.9,67.6-2.5,96.4-26.5
	c39.9-33.2,67.2-87.9,98-138.1c30.8-49.8,60.3-86.3,87.3-108.6c76.3-62.8,150.9-160.2,242.4-243.7
	c53.4-48.7,122.5-103.6,189.3-115.9c69.6-12.8,112.2,23.5,144.1,82.8c5.5,10.2,10,20.7,13.8,30.9c19.9,52.8,28.5,110.6,41.7,161.9
	c12.8,49.9,30.3,97.8,59.2,138.6c24.1,34.2,56.1,64.1,101,80.6c13.2,4.8,26.5,9.3,40.5,12.1c71.2,14.1,146.3-17.5,210.7-49.7
	c86.3-43.3,165.9-99.2,247.4-150.6c77-48.5,155.8-93.6,235.9-136.8"/>
</svg>
