<?xml version="1.0" encoding="utf-8"?>
<!-- Generator: Adobe Illustrator 16.0.0, SVG Export Plug-In . SVG Version: 6.00 Build 0)  -->
<!DOCTYPE svg PUBLIC "-//W3C//DTD SVG 1.1//EN" "http://www.w3.org/Graphics/SVG/1.1/DTD/svg11.dtd">
<svg version="1.1" id="Layer_42" xmlns="http://www.w3.org/2000/svg" xmlns:xlink="http://www.w3.org/1999/xlink" x="0px" y="0px"
	 width="1920px" height="820.5px" viewBox="0 -17.7 1920 820.5" enable-background="new 0 -17.7 1920 820.5" xml:space="preserve">
<path fill="none" stroke="#89D5F3" d="M1.2,641.9C25.7,683.3,57,714.4,106,727c40.9,10.5,76.4,1.9,107.7-19.6
	c45.7-31.5,80.1-88.7,110.3-146.4c29.7-56.7,53.9-111,74.5-146c57-96.9,120.7-204.7,211.9-287.7C662.1,80.2,737,25.6,808,24.7
	c73-1.1,97.6,67,114.6,130.2c3,11.2,5.5,22,8,32.1c13,54.1,26.6,105.6,45.7,153.6c17.7,44.5,40.2,87,69.6,127.6
	c24,33.2,51.9,68,87.9,91.8c11.7,7.7,23.8,14.6,36.8,19.7c67.1,26.4,140.6-4.8,201.5-36.2c96.4-50.3,184.3-116.4,274.9-176.1
	c85.7-56.5,174-107.7,264.3-156.4"/>
</svg>
