<?xml version="1.0" encoding="utf-8"?>
<!-- Generator: Adobe Illustrator 16.0.0, SVG Export Plug-In . SVG Version: 6.00 Build 0)  -->
<!DOCTYPE svg PUBLIC "-//W3C//DTD SVG 1.1//EN" "http://www.w3.org/Graphics/SVG/1.1/DTD/svg11.dtd">
<svg version="1.1" id="Layer_46" xmlns="http://www.w3.org/2000/svg" xmlns:xlink="http://www.w3.org/1999/xlink" x="0px" y="0px"
	 width="1920px" height="820.5px" viewBox="0 -17.7 1920 820.5" enable-background="new 0 -17.7 1920 820.5" xml:space="preserve">
<path fill="none" stroke="#89D5F3" d="M1.2,631c23.3,44.8,54.4,77.7,105.2,91.7c42.5,11.7,79.3,3.5,111.4-17.3
	c47.7-30.8,84.5-89,114.4-149.1c29.4-59,51.9-119.3,70.3-158.5c50.8-108.3,110.7-219.5,201.7-302.4c51.1-46.5,128-100.9,200.4-98.1
	c74.1,2.9,92.7,81.5,104.8,146c2.1,11.5,4,22.5,6,32.5c10.5,54.5,25.9,104,47.1,150.8c19.3,42.7,43.5,83.4,73,124
	c24,32.9,50.3,69.5,83.5,95.6c11.1,8.7,22.9,16.3,35.6,22.2c65.8,30.4,138.8-0.4,198.4-31.7c99.8-52.5,190.4-122.1,284.1-184.6
	c88.6-59.1,180.1-112.4,273.8-162.9"/>
</svg>
