<?xml version="1.0" encoding="utf-8"?>
<!-- Generator: Adobe Illustrator 16.0.0, SVG Export Plug-In . SVG Version: 6.00 Build 0)  -->
<!DOCTYPE svg PUBLIC "-//W3C//DTD SVG 1.1//EN" "http://www.w3.org/Graphics/SVG/1.1/DTD/svg11.dtd">
<svg version="1.1" id="Layer_41" xmlns="http://www.w3.org/2000/svg" xmlns:xlink="http://www.w3.org/1999/xlink" x="0px" y="0px"
	 width="1920px" height="820.5px" viewBox="0 -17.7 1920 820.5" enable-background="new 0 -17.7 1920 820.5" xml:space="preserve">
<path fill="none" stroke="#89D5F3" d="M1.2,644.6C26,685.2,57.3,715.8,105.9,728c40.5,10.2,75.7,1.6,106.7-20.2
	c45.2-31.6,79.1-88.6,109.3-145.7c29.8-56.1,54.5-109,75.6-142.9c58.6-94,123.2-201,214.4-284C663.7,88,738.2,33.4,808.9,31.6
	c72.7-2.1,98.9,63.4,117,126.2c3.2,11.1,5.9,21.9,8.4,32c13.6,54,26.8,106,45.4,154.3c17.3,44.9,39.4,87.9,68.7,128.6
	c24,33.3,52.3,67.7,89,90.9c11.8,7.5,24,14.1,37.1,19c67.4,25.4,141.1-5.7,202.2-37.3c95.7-49.5,182.8-114.9,272.6-173.9
	c85-55.8,172.5-106.5,262-154.7"/>
</svg>
