<?xml version="1.0" encoding="utf-8"?>
<!-- Generator: Adobe Illustrator 16.0.0, SVG Export Plug-In . SVG Version: 6.00 Build 0)  -->
<!DOCTYPE svg PUBLIC "-//W3C//DTD SVG 1.1//EN" "http://www.w3.org/Graphics/SVG/1.1/DTD/svg11.dtd">
<svg version="1.1" id="Blue" xmlns="http://www.w3.org/2000/svg" xmlns:xlink="http://www.w3.org/1999/xlink" x="0px" y="0px"
	 width="1920px" height="820.5px" viewBox="0 -17.7 1920 820.5" enable-background="new 0 -17.7 1920 820.5" xml:space="preserve">
<g id="Layer_16">
	<path fill="none" stroke="#89D5F3" d="M1.2,712.8c32.4,19.5,64.7,38.6,101.9,41.8c30.4,2.6,57.6-7.6,83.2-34.5
		c33.3-35,52.1-87,83.6-128.6c32-41.8,68-57.3,102.3-64.9c99.7-22.3,186.1-108.3,278.1-192.4c55.4-50.6,117.8-106.2,179.7-131.5
		c65.7-26.8,128.8-27.1,178.4,27.4c8.3,9.2,15.1,19.1,20.7,29.4c27.8,51.3,30.3,116.5,37,171.6c6.8,56.4,18.8,110.3,47.1,151.4
		c24.3,35.3,60.4,60.6,116.4,67.4c14.7,1.8,29.6,3.1,44.7,3.2c75.7,0.6,152.8-32.6,221.4-65.5c74.3-35.6,144.4-79.2,215.4-120.8
		c66.9-39.2,134.5-77.1,202.8-114"/>
</g>
</svg>
