<?xml version="1.0" encoding="utf-8"?>
<!-- Generator: Adobe Illustrator 16.0.0, SVG Export Plug-In . SVG Version: 6.00 Build 0)  -->
<!DOCTYPE svg PUBLIC "-//W3C//DTD SVG 1.1//EN" "http://www.w3.org/Graphics/SVG/1.1/DTD/svg11.dtd">
<svg version="1.1" id="Layer_37" xmlns="http://www.w3.org/2000/svg" xmlns:xlink="http://www.w3.org/1999/xlink" x="0px" y="0px"
	 width="1920px" height="820.5px" viewBox="0 -17.7 1920 820.5" enable-background="new 0 -17.7 1920 820.5" xml:space="preserve">
<path fill="none" stroke="#89D5F3" d="M1.2,655.5c26,37.2,57.5,66,104.2,76.7c38.9,9,72.7,0.1,103-22.5
	c43.2-32.2,74.7-88.4,105.2-142.9c30.2-53.8,56.6-100.8,79.9-130.4c64.9-82.7,133.3-186.2,224.6-269.4
	C670.5,119.3,743,64.7,812.2,59c71.5-5.9,103.8,48.9,126.9,110.4c4,10.8,7.4,21.5,10.4,31.6c15.9,53.5,27.4,107.7,44,157.1
	c15.7,46.7,36.1,91.5,65.3,132.2c24.1,33.6,53.7,66.3,93.4,87.1c12.3,6.5,24.9,12.4,38.3,16.5c68.8,21.2,143-10,205.3-41.8
	c92.3-47.2,176.6-109.2,263.5-165.4c82.1-53.2,166.4-101.8,252.5-148.2"/>
</svg>
