<?xml version="1.0" encoding="utf-8"?>
<!-- Generator: Adobe Illustrator 16.0.0, SVG Export Plug-In . SVG Version: 6.00 Build 0)  -->
<!DOCTYPE svg PUBLIC "-//W3C//DTD SVG 1.1//EN" "http://www.w3.org/Graphics/SVG/1.1/DTD/svg11.dtd">
<svg version="1.1" id="Layer_30" xmlns="http://www.w3.org/2000/svg" xmlns:xlink="http://www.w3.org/1999/xlink" x="0px" y="0px"
	 width="1920px" height="820.5px" viewBox="0 -17.7 1920 820.5" enable-background="new 0 -17.7 1920 820.5" xml:space="preserve">
<path id="XMLID_30_" fill="none" stroke="#BD2026" stroke-width="0.2554" enable-background="new    " d="M9.3,377.9
	C79,438,167.5,476.9,252.5,498c50.8,12.6,100.5,15.8,151,11.6c80.4-6.4,157.2-29.6,234.9-57.8c49.1-17.7,98.4-37.4,147.9-58.6
	c98.1-42.2,196-88.9,297-124.2c41.5-14.5,93.8-31.8,146.7-42.4c83-16.6,160.3-8.9,206.1,42.6c24.9,28,47.9,53.9,74.1,80.9
	c13.7,14.2,29,27.9,47.2,41.3c65.7,48,168,58.1,255.4,59.1c17.7,0.2,35.2,0.3,52.7-0.4c12.7-0.5,25.4-1.3,39.2-2"/>
</svg>
