<?xml version="1.0" encoding="utf-8"?>
<!-- Generator: Adobe Illustrator 16.0.0, SVG Export Plug-In . SVG Version: 6.00 Build 0)  -->
<!DOCTYPE svg PUBLIC "-//W3C//DTD SVG 1.1//EN" "http://www.w3.org/Graphics/SVG/1.1/DTD/svg11.dtd">
<svg version="1.1" id="Layer_09" xmlns="http://www.w3.org/2000/svg" xmlns:xlink="http://www.w3.org/1999/xlink" x="0px" y="0px"
	 width="1920px" height="820.5px" viewBox="0 -17.7 1920 820.5" enable-background="new 0 -17.7 1920 820.5" xml:space="preserve">
<path id="XMLID_9_" fill="none" stroke="#BD2026" stroke-width="0.2554" enable-background="new    " d="M3.4,507.1
	c71,72.3,183.6,101,278.8,110.2c60.7,5.9,116.1-2.7,169-19.9C536.6,569.5,614,519,694.4,469.5c50.1-31,101.1-61.6,152.9-91.7
	c103.2-59.9,209.2-117.4,317.9-166.2c38-17.1,99.1-45,160.3-62.5c95.7-27.5,187.9-28,198.1,78c4.6,47.7-1.5,97.2,2.8,145.7
	c2.2,25.6,7.8,50.8,20.1,75.3C1591.8,538.4,1718.7,551,1811,558c19.7,1.5,38.9,2.8,58.3,3.7c14.3,0.7,28.7,1.2,43.5,1.5"/>
</svg>
