<?xml version="1.0" encoding="utf-8"?>
<!-- Generator: Adobe Illustrator 16.0.0, SVG Export Plug-In . SVG Version: 6.00 Build 0)  -->
<!DOCTYPE svg PUBLIC "-//W3C//DTD SVG 1.1//EN" "http://www.w3.org/Graphics/SVG/1.1/DTD/svg11.dtd">
<svg version="1.1" id="Layer_34" xmlns="http://www.w3.org/2000/svg" xmlns:xlink="http://www.w3.org/1999/xlink" x="0px" y="0px"
	 width="1920px" height="820.5px" viewBox="0 -17.7 1920 820.5" enable-background="new 0 -17.7 1920 820.5" xml:space="preserve">
<path id="XMLID_34_" fill="none" stroke="#BD2026" stroke-width="0.2554" enable-background="new    " d="M10.4,353.2
	c69.5,57.9,153.5,98.5,236.4,122c48.9,13.9,97.6,19.3,147.6,17.6c79.4-2.3,156.1-20.4,233.3-44.4c48.9-15.1,97.9-32.7,146.9-52.2
	c97.1-38.8,193.5-83.3,293-116.2c42.2-13.9,92.8-29.3,144.1-38.5c80.6-14.5,156.3-5.9,207.6,35.9c29.4,24,57.2,45.7,87.6,68.6
	c15.9,12,33,23.6,52.4,34.8c69.5,40,167.2,49.6,253.7,49.4c17.3,0,34.4-0.2,51.6-1.2c12.4-0.7,24.8-1.7,38.4-2.7"/>
</svg>
