<?xml version="1.0" encoding="utf-8"?>
<!-- Generator: Adobe Illustrator 16.0.0, SVG Export Plug-In . SVG Version: 6.00 Build 0)  -->
<!DOCTYPE svg PUBLIC "-//W3C//DTD SVG 1.1//EN" "http://www.w3.org/Graphics/SVG/1.1/DTD/svg11.dtd">
<svg version="1.1" id="Layer_04" xmlns="http://www.w3.org/2000/svg" xmlns:xlink="http://www.w3.org/1999/xlink" x="0px" y="0px"
	 width="1920px" height="820.5px" viewBox="0 -17.7 1920 820.5" enable-background="new 0 -17.7 1920 820.5" xml:space="preserve">
<path id="XMLID_4_" fill="none" stroke="#BD2026" stroke-width="0.2554" enable-background="new    " d="M1.9,537.9
	c71.3,75.2,189.7,101.2,287.3,107.8c63,4.1,119.8-7.1,173.3-27.4c86.7-33,164.2-90,245.2-144.6c50.3-34.2,101.8-67.4,154.1-99.5
	c104.4-64.1,212.4-123.9,322.9-176.2c37.2-17.6,100.4-48.1,163.5-67.3c98.8-30.1,195.7-32.1,196.2,86.4
	c0.2,52.7-13.2,107.4-14.2,161.1c-0.5,28.3,2.7,56.2,13.6,83.4c40.3,100.4,173.1,113.6,266.7,122.1c20.2,1.8,39.8,3.4,59.6,4.7
	c14.7,1,29.4,1.8,44.5,2.4"/>
</svg>
