<?xml version="1.0" encoding="utf-8"?>
<!-- Generator: Adobe Illustrator 16.0.0, SVG Export Plug-In . SVG Version: 6.00 Build 0)  -->
<!DOCTYPE svg PUBLIC "-//W3C//DTD SVG 1.1//EN" "http://www.w3.org/Graphics/SVG/1.1/DTD/svg11.dtd">
<svg version="1.1" id="Layer_29" xmlns="http://www.w3.org/2000/svg" xmlns:xlink="http://www.w3.org/1999/xlink" x="0px" y="0px"
	 width="1920px" height="820.5px" viewBox="0 -17.7 1920 820.5" enable-background="new 0 -17.7 1920 820.5" xml:space="preserve">
<path id="XMLID_29_" fill="none" stroke="#BD2026" stroke-width="0.2554" enable-background="new    " d="M9,384
	c69.8,60.7,159.5,99.1,244.9,119.6c51.2,12.3,101.3,14.9,151.8,10.1c80.6-7.4,157.5-32,235.3-61.1c49.1-18.3,98.6-38.5,148.1-60.1
	c98.3-43,196.6-90.3,298-126.2c41.3-14.6,94.1-32.4,147.3-43.3c83.6-17.1,161.3-9.8,205.7,44.3c23.8,29,45.5,56,70.7,84
	c13.2,14.7,28,29,45.9,42.9c64.8,50,168.2,60.2,255.8,61.5c17.8,0.2,35.3,0.4,53-0.2c12.8-0.4,25.5-1.1,39.4-1.9"/>
</svg>
