<?xml version="1.0" encoding="utf-8"?>
<!-- Generator: Adobe Illustrator 16.0.0, SVG Export Plug-In . SVG Version: 6.00 Build 0)  -->
<!DOCTYPE svg PUBLIC "-//W3C//DTD SVG 1.1//EN" "http://www.w3.org/Graphics/SVG/1.1/DTD/svg11.dtd">
<svg version="1.1" id="Layer_10" xmlns="http://www.w3.org/2000/svg" xmlns:xlink="http://www.w3.org/1999/xlink" x="0px" y="0px"
	 width="1920px" height="820.5px" viewBox="0 -17.7 1920 820.5" enable-background="new 0 -17.7 1920 820.5" xml:space="preserve">
<path id="XMLID_10_" fill="none" stroke="#BD2026" stroke-width="0.2554" enable-background="new    " d="M3.6,501
	C74.6,572.7,186,601.9,280.7,611.6c60.2,6.2,115.3-1.8,168.1-18.4c85.2-26.9,162.6-76,242.8-124.6c50-30.4,101-60.5,152.7-90.1
	c103-59,208.5-116,316.9-164.2c38.1-16.9,98.9-44.4,159.7-61.6c95.1-27,186.4-27.2,198.5,76.3c5.4,46.7,0.9,95.1,6.2,142.6
	c2.8,25,8.8,49.7,21.4,73.7c46.3,88.3,172,100.8,264.1,107.5c19.6,1.4,38.8,2.7,58,3.6c14.2,0.6,28.5,1.1,43.3,1.4"/>
</svg>
