<?xml version="1.0" encoding="utf-8"?>
<!-- Generator: Adobe Illustrator 16.0.0, SVG Export Plug-In . SVG Version: 6.00 Build 0)  -->
<!DOCTYPE svg PUBLIC "-//W3C//DTD SVG 1.1//EN" "http://www.w3.org/Graphics/SVG/1.1/DTD/svg11.dtd">
<svg version="1.1" id="Layer_12" xmlns="http://www.w3.org/2000/svg" xmlns:xlink="http://www.w3.org/1999/xlink" x="0px" y="0px"
	 width="1920px" height="820.5px" viewBox="0 -17.7 1920 820.5" enable-background="new 0 -17.7 1920 820.5" xml:space="preserve">
<path id="XMLID_12_" fill="none" stroke="#BD2026" stroke-width="0.2554" enable-background="new    " d="M4.2,488.7
	c70.8,70.6,180,100.7,273.7,111.6c59.2,6.9,113.9,0,166.4-15.4C529,560,606.4,513.5,686.4,467c49.9-29.1,100.7-58.2,152.2-86.9
	c102.5-57.4,207.2-113.4,314.9-160.2c38.5-16.7,98.4-43.1,158.4-59.6c93.9-26,183.4-25.5,199.2,73c7.2,44.8,5.6,91,13,136.4
	c3.9,23.9,10.8,47.5,23.9,70.4c48.3,84.2,171.6,96.5,263.2,102.7c19.4,1.3,38.4,2.4,57.5,3.2c14.1,0.5,28.2,0.9,42.9,1"/>
</svg>
