<?xml version="1.0" encoding="utf-8"?>
<!-- Generator: Adobe Illustrator 16.0.0, SVG Export Plug-In . SVG Version: 6.00 Build 0)  -->
<!DOCTYPE svg PUBLIC "-//W3C//DTD SVG 1.1//EN" "http://www.w3.org/Graphics/SVG/1.1/DTD/svg11.dtd">
<svg version="1.1" id="Layer_32" xmlns="http://www.w3.org/2000/svg" xmlns:xlink="http://www.w3.org/1999/xlink" x="0px" y="0px"
	 width="1920px" height="820.5px" viewBox="0 -17.7 1920 820.5" enable-background="new 0 -17.7 1920 820.5" xml:space="preserve">
<path id="XMLID_32_" fill="none" stroke="#BD2026" stroke-width="0.2554" enable-background="new    " d="M9.8,365.6
	c69.6,59,155.9,98.7,239.8,121.1c49.8,13.2,99.1,17.5,149.3,14.6c79.9-4.4,156.6-25,234.1-51.1c49-16.4,98.2-35,147.4-55.4
	c97.6-40.5,194.7-86.1,295-120.2c41.8-14.2,93.3-30.5,145.4-40.4c81.8-15.5,158.3-7.3,206.8,39.3c27.1,26,52.6,49.8,80.9,74.8
	c14.8,13.1,31,25.8,49.8,38c67.6,44,167.6,53.8,254.5,54.2c17.5,0.1,34.8,0,52.2-0.8c12.5-0.6,25.1-1.5,38.8-2.4"/>
</svg>
