<?xml version="1.0" encoding="utf-8"?>
<!-- Generator: Adobe Illustrator 16.0.0, SVG Export Plug-In . SVG Version: 6.00 Build 0)  -->
<!DOCTYPE svg PUBLIC "-//W3C//DTD SVG 1.1//EN" "http://www.w3.org/Graphics/SVG/1.1/DTD/svg11.dtd">
<svg version="1.1" id="Layer_28" xmlns="http://www.w3.org/2000/svg" xmlns:xlink="http://www.w3.org/1999/xlink" x="0px" y="0px"
	 width="1920px" height="820.5px" viewBox="0 -17.7 1920 820.5" enable-background="new 0 -17.7 1920 820.5" xml:space="preserve">
<path id="XMLID_28_" fill="none" stroke="#BD2026" stroke-width="0.2554" enable-background="new    " d="M8.7,390.2
	c69.8,61.3,160.7,99.2,246.6,119.2c51.7,12,102,14,152.7,8.6c80.9-8.5,157.7-34.3,235.7-64.5c49.2-18.9,98.7-39.7,148.4-61.7
	c98.6-43.9,197.2-91.7,299-128.2c41.1-14.8,94.3-33.2,148-44.3c84.2-17.8,162.3-10.6,205.3,46c22.7,29.9,43.2,58,67.3,87.1
	c12.7,15.3,27,30.1,44.6,44.5c63.8,52,168.4,62.3,256.3,63.9c17.9,0.3,35.5,0.5,53.2,0c12.8-0.4,25.7-1,39.6-1.7"/>
</svg>
