<?xml version="1.0" encoding="utf-8"?>
<!-- Generator: Adobe Illustrator 16.0.0, SVG Export Plug-In . SVG Version: 6.00 Build 0)  -->
<!DOCTYPE svg PUBLIC "-//W3C//DTD SVG 1.1//EN" "http://www.w3.org/Graphics/SVG/1.1/DTD/svg11.dtd">
<svg version="1.1" id="Layer_44" xmlns="http://www.w3.org/2000/svg" xmlns:xlink="http://www.w3.org/1999/xlink" x="0px" y="0px"
	 width="1920px" height="820.5px" viewBox="0 -17.7 1920 820.5" enable-background="new 0 -17.7 1920 820.5" xml:space="preserve">
<path id="XMLID_44_" fill="none" stroke="#BD2026" stroke-width="0.2554" enable-background="new    " d="M13.2,291.7
	c68.9,52.1,141.6,97,219.5,126.7c44.3,16.7,90.2,27.9,139,32.7c77,7.6,153.4,2.8,229.3-11c48.4-8.8,96.7-21.2,144.5-36.5
	c94.7-30.4,187.4-69.1,283.1-96.2c43.9-12.4,90.2-23,137.6-28.9c74.5-9.3,146.3-0.6,211.4,19.1c40.8,12.3,80.7,25.2,121.6,37.8
	c21.4,6.6,43.1,12.9,65.3,18.5c79,20.4,165.2,28.4,249.3,25.2c16.3-0.6,32.7-1.4,49-3.1c11.6-1.3,23.2-2.9,36.3-4.4"/>
</svg>
