<?xml version="1.0" encoding="utf-8"?>
<!-- Generator: Adobe Illustrator 16.0.0, SVG Export Plug-In . SVG Version: 6.00 Build 0)  -->
<!DOCTYPE svg PUBLIC "-//W3C//DTD SVG 1.1//EN" "http://www.w3.org/Graphics/SVG/1.1/DTD/svg11.dtd">
<svg version="1.1" id="Layer_16" xmlns="http://www.w3.org/2000/svg" xmlns:xlink="http://www.w3.org/1999/xlink" x="0px" y="0px"
	 width="1920px" height="820.5px" viewBox="0 -17.7 1920 820.5" enable-background="new 0 -17.7 1920 820.5" xml:space="preserve">
<path id="XMLID_16_" fill="none" stroke="#BD2026" stroke-width="0.2554" enable-background="new    " d="M5.3,464.1
	c70.5,68.3,175.2,100.4,266.9,113.5c57.3,8.2,110.9,3.5,163-9.4c83.8-20.7,161-62.1,240.5-104.5c49.7-26.6,100.2-53.5,151.2-80.6
	c101.5-54,204.7-108,311-152.2c39.1-16.3,97.3-40.6,155.8-55.8c91.5-23.9,177.5-21.9,200.8,66.2c10.8,41,15,82.8,26.6,124.1
	c6.1,21.8,14.9,43.2,29.1,64c52.2,76.2,170.8,88,261.5,93c19,1.1,37.7,1.9,56.4,2.4c13.8,0.3,27.6,0.4,42.1,0.3"/>
</svg>
