<?xml version="1.0" encoding="utf-8"?>
<!-- Generator: Adobe Illustrator 16.0.0, SVG Export Plug-In . SVG Version: 6.00 Build 0)  -->
<!DOCTYPE svg PUBLIC "-//W3C//DTD SVG 1.1//EN" "http://www.w3.org/Graphics/SVG/1.1/DTD/svg11.dtd">
<svg version="1.1" id="Layer_26" xmlns="http://www.w3.org/2000/svg" xmlns:xlink="http://www.w3.org/1999/xlink" x="0px" y="0px"
	 width="1920px" height="820.5px" viewBox="0 -17.7 1920 820.5" enable-background="new 0 -17.7 1920 820.5" xml:space="preserve">
<path id="XMLID_26_" fill="none" stroke="#BD2026" stroke-width="0.2554" enable-background="new    " d="M8.1,402.5
	c69.9,62.5,163.1,99.4,250,118.2c52.6,11.4,103.5,12.3,154.4,5.6c81.4-10.5,158.3-38.9,236.5-71.1c49.3-20.2,99-42,148.8-64.9
	c99.1-45.6,198.4-94.4,301-132.2c40.8-15,94.8-34.4,149.3-46.2c85.4-18.8,164.6-12.4,204.6,49.4c20.6,31.8,38.5,62.2,60.5,93.3
	c11.6,16.4,25,32.3,42,47.7c61.9,56,168.8,66.5,257.1,68.8c18.1,0.4,35.9,0.7,53.8,0.4c13-0.3,26-0.8,40-1.4"/>
</svg>
