<?xml version="1.0" encoding="utf-8"?>
<!-- Generator: Adobe Illustrator 16.0.0, SVG Export Plug-In . SVG Version: 6.00 Build 0)  -->
<!DOCTYPE svg PUBLIC "-//W3C//DTD SVG 1.1//EN" "http://www.w3.org/Graphics/SVG/1.1/DTD/svg11.dtd">
<svg version="1.1" id="Layer_19" xmlns="http://www.w3.org/2000/svg" xmlns:xlink="http://www.w3.org/1999/xlink" x="0px" y="0px"
	 width="1920px" height="820.5px" viewBox="0 -17.7 1920 820.5" enable-background="new 0 -17.7 1920 820.5" xml:space="preserve">
<path id="XMLID_19_" fill="none" stroke="#BD2026" stroke-width="0.2554" enable-background="new    " d="M6.2,445.6
	C76.5,512.1,177.7,545.7,268,560.5c55.9,9.1,108.7,6.1,160.4-4.9c83-17.7,160.2-55.2,239.3-94.5c49.6-24.7,99.8-50.1,150.5-75.9
	c100.8-51.5,202.8-104,308-146.2c39.6-15.9,96.6-38.8,153.8-52.9c89.7-22.4,173.3-19.1,201.9,61.2c13.6,38.2,22,76.6,36.8,114.9
	c7.7,20.2,17.9,39.9,33,59.1c55.1,70.1,170.2,81.4,260.2,85.7c18.7,0.8,37.1,1.6,55.6,1.8c13.5,0.1,27.1,0,41.5-0.2"/>
</svg>
