<?xml version="1.0" encoding="utf-8"?>
<!-- Generator: Adobe Illustrator 16.0.0, SVG Export Plug-In . SVG Version: 6.00 Build 0)  -->
<!DOCTYPE svg PUBLIC "-//W3C//DTD SVG 1.1//EN" "http://www.w3.org/Graphics/SVG/1.1/DTD/svg11.dtd">
<svg version="1.1" id="Layer_22" xmlns="http://www.w3.org/2000/svg" xmlns:xlink="http://www.w3.org/1999/xlink" x="0px" y="0px"
	 width="1920px" height="820.5px" viewBox="0 -17.7 1920 820.5" enable-background="new 0 -17.7 1920 820.5" xml:space="preserve">
<path id="XMLID_22_" fill="none" stroke="#BD2026" stroke-width="0.2554" enable-background="new    " d="M7,427.1
	c70.2,64.8,167.9,99.8,256.8,116.3c54.5,10.1,106.5,8.7,157.8-0.4c82.3-14.6,159.3-48.2,238.1-84.5c49.5-22.8,99.5-46.6,149.8-71.2
	c100-48.9,200.9-99.9,305-140.2c40.1-15.5,95.8-36.9,151.9-50c87.8-20.9,169.4-16.2,203,56.1c16.5,35.4,29,70.4,46.9,105.6
	c9.3,18.5,20.9,36.6,36.9,54.2c58,64.1,169.6,75,258.9,78.5c18.4,0.7,36.6,1.4,54.8,1.2c13.3-0.2,26.6-0.3,40.9-0.7"/>
</svg>
