<?xml version="1.0" encoding="utf-8"?>
<!-- Generator: Adobe Illustrator 16.0.0, SVG Export Plug-In . SVG Version: 6.00 Build 0)  -->
<!DOCTYPE svg PUBLIC "-//W3C//DTD SVG 1.1//EN" "http://www.w3.org/Graphics/SVG/1.1/DTD/svg11.dtd">
<svg version="1.1" id="Layer_38" xmlns="http://www.w3.org/2000/svg" xmlns:xlink="http://www.w3.org/1999/xlink" x="0px" y="0px"
	 width="1920px" height="820.5px" viewBox="0 -17.7 1920 820.5" enable-background="new 0 -17.7 1920 820.5" xml:space="preserve">
<path id="XMLID_38_" fill="none" stroke="#BD2026" stroke-width="0.2554" enable-background="new    " d="M11.5,328.6
	c69.2,55.5,148.7,98,229.6,123.9c47,15.1,94.6,22.7,144.1,23.7c78.5,1.6,155-11.1,231.7-31.1c48.7-12.6,97.4-28.1,146-45.9
	C859.1,363.7,954,321.5,1052,291c42.8-13.3,91.8-26.8,141.5-34.7c78.2-12.4,152.5-3.4,209.1,29.2c34,19.6,66.6,37.5,101.2,56.3
	c18.1,9.9,37,19.3,57.6,28.3c73.3,32.1,166.4,41.1,251.9,39.7c16.9-0.3,33.7-0.7,50.6-2c12.1-0.9,24.1-2.2,37.6-3.4"/>
</svg>
