<?xml version="1.0" encoding="utf-8"?>
<!-- Generator: Adobe Illustrator 16.0.0, SVG Export Plug-In . SVG Version: 6.00 Build 0)  -->
<!DOCTYPE svg PUBLIC "-//W3C//DTD SVG 1.1//EN" "http://www.w3.org/Graphics/SVG/1.1/DTD/svg11.dtd">
<svg version="1.1" id="Layer_25" xmlns="http://www.w3.org/2000/svg" xmlns:xlink="http://www.w3.org/1999/xlink" x="0px" y="0px"
	 width="1920px" height="820.5px" viewBox="0 -17.7 1920 820.5" enable-background="new 0 -17.7 1920 820.5" xml:space="preserve">
<path id="XMLID_25_" fill="none" stroke="#BD2026" stroke-width="0.2554" enable-background="new    " d="M7.9,408.6
	c70,63.1,164.3,99.5,251.7,117.8c53.1,11.1,104.2,11.4,155.3,4.1c81.6-11.5,158.5-41.2,236.9-74.5c49.3-20.8,99.1-43.1,149.1-66.4
	c99.3-46.4,199-95.8,302-134.2c40.6-15.1,95.1-35,149.9-47.2c86-19.3,165.7-13.4,204.2,51.1c19.5,32.7,36.1,64.3,57.1,96.4
	c11,16.9,24,33.4,40.8,49.4c60.9,58,169,68.7,257.6,71.2c18.2,0.5,36.1,0.9,54,0.6c13.1-0.2,26.2-0.7,40.2-1.2"/>
</svg>
