<?xml version="1.0" encoding="utf-8"?>
<!-- Generator: Adobe Illustrator 16.0.0, SVG Export Plug-In . SVG Version: 6.00 Build 0)  -->
<!DOCTYPE svg PUBLIC "-//W3C//DTD SVG 1.1//EN" "http://www.w3.org/Graphics/SVG/1.1/DTD/svg11.dtd">
<svg version="1.1" id="Layer_37" xmlns="http://www.w3.org/2000/svg" xmlns:xlink="http://www.w3.org/1999/xlink" x="0px" y="0px"
	 width="1920px" height="820.5px" viewBox="0 -17.7 1920 820.5" enable-background="new 0 -17.7 1920 820.5" xml:space="preserve">
<path id="XMLID_37_" fill="none" stroke="#BD2026" stroke-width="0.2554" enable-background="new    " d="M11.2,334.8
	c69.3,56.1,149.9,98.1,231.3,123.4c47.5,14.8,95.4,21.8,145,22.2c78.7,0.6,155.3-13.4,232.1-34.4c48.8-13.2,97.6-29.3,146.2-47.5
	c96.4-36.3,191.7-79.1,290.1-110.2c42.7-13.5,92-27.4,142.2-35.6c78.8-12.9,153.5-3.9,208.7,30.9c32.8,20.7,64.3,39.6,97.8,59.4
	c17.5,10.4,36,20.4,56.3,29.9c72.4,34.1,166.6,43.2,252.4,42.1c17-0.2,33.9-0.5,50.8-1.8c12.1-0.9,24.3-2.1,37.8-3.2"/>
</svg>
