<?xml version="1.0" encoding="utf-8"?>
<!-- Generator: Adobe Illustrator 16.0.0, SVG Export Plug-In . SVG Version: 6.00 Build 0)  -->
<!DOCTYPE svg PUBLIC "-//W3C//DTD SVG 1.1//EN" "http://www.w3.org/Graphics/SVG/1.1/DTD/svg11.dtd">
<svg version="1.1" id="Layer_15" xmlns="http://www.w3.org/2000/svg" xmlns:xlink="http://www.w3.org/1999/xlink" x="0px" y="0px"
	 width="1920px" height="820.5px" viewBox="0 -17.7 1920 820.5" enable-background="new 0 -17.7 1920 820.5" xml:space="preserve">
<path id="XMLID_15_" fill="none" stroke="#BD2026" stroke-width="0.2554" enable-background="new    " d="M5,470.2
	c70.6,68.8,176.4,100.5,268.6,113c57.8,7.9,111.6,2.6,163.8-10.9c84-21.7,161.2-64.4,240.9-107.9c49.8-27.2,100.4-54.7,151.5-82.2
	c101.8-54.8,205.3-109.4,312-154.2c38.9-16.4,97.6-41.2,156.4-56.8c92.1-24.5,178.9-22.8,200.4,67.9c9.9,41.9,12.6,84.8,23.2,127.2
	c5.5,22.3,13.9,44.3,27.8,65.6c51.2,78.2,171,90.1,261.9,95.4c19.1,1.1,37.9,2.1,56.7,2.6c13.8,0.4,27.7,0.5,42.3,0.5"/>
</svg>
