<?xml version="1.0" encoding="utf-8"?>
<!-- Generator: Adobe Illustrator 16.0.0, SVG Export Plug-In . SVG Version: 6.00 Build 0)  -->
<!DOCTYPE svg PUBLIC "-//W3C//DTD SVG 1.1//EN" "http://www.w3.org/Graphics/SVG/1.1/DTD/svg11.dtd">
<svg version="1.1" id="Layer_23" xmlns="http://www.w3.org/2000/svg" xmlns:xlink="http://www.w3.org/1999/xlink" x="0px" y="0px"
	 width="1920px" height="820.5px" viewBox="0 -17.7 1920 820.5" enable-background="new 0 -17.7 1920 820.5" xml:space="preserve">
<path id="XMLID_23_" fill="none" stroke="#BD2026" stroke-width="0.2554" enable-background="new    " d="M7.3,421
	c70.1,64.2,166.7,99.7,255.1,116.8c54,10.4,105.7,9.6,157,1.1c82.1-13.6,159.1-45.9,237.7-81.2c49.4-22.1,99.3-45.4,149.6-69.6
	c99.8-48.1,200.3-98.5,304-138.2c40.3-15.4,95.6-36.3,151.2-49.1c87.2-20.3,168.1-15.3,203.4,54.4c17.5,34.5,31.4,68.4,50.3,102.5
	c9.9,18,21.9,35.5,38.2,52.6c59,62.1,169.4,72.9,258.4,76c18.3,0.6,36.4,1.3,54.6,1c13.2-0.3,26.5-0.4,40.6-0.9"/>
</svg>
