<?xml version="1.0" encoding="utf-8"?>
<!-- Generator: Adobe Illustrator 16.0.0, SVG Export Plug-In . SVG Version: 6.00 Build 0)  -->
<!DOCTYPE svg PUBLIC "-//W3C//DTD SVG 1.1//EN" "http://www.w3.org/Graphics/SVG/1.1/DTD/svg11.dtd">
<svg version="1.1" id="Layer_33" xmlns="http://www.w3.org/2000/svg" xmlns:xlink="http://www.w3.org/1999/xlink" x="0px" y="0px"
	 width="1920px" height="820.5px" viewBox="0 -17.7 1920 820.5" enable-background="new 0 -17.7 1920 820.5" xml:space="preserve">
<path id="XMLID_33_" fill="none" stroke="#BD2026" stroke-width="0.2554" enable-background="new    " d="M10.1,359.4
	c69.5,58.4,154.7,98.6,238.1,121.5c49.3,13.6,98.3,18.4,148.4,16.1c79.7-3.3,156.4-22.7,233.7-47.8c48.9-15.8,98.1-33.9,147.2-53.8
	c97.3-39.6,194.1-84.7,294-118.2c42-14.1,93-29.9,144.8-39.5c81.2-15,157.3-6.6,207.2,37.6c28.2,25,54.9,47.7,84.3,71.7
	c15.4,12.6,32,24.7,51.1,36.4c68.6,42,167.4,51.7,254.1,51.8c17.4,0,34.6-0.1,51.9-1c12.5-0.7,24.9-1.6,38.6-2.5"/>
</svg>
