<?xml version="1.0" encoding="utf-8"?>
<!-- Generator: Adobe Illustrator 16.0.0, SVG Export Plug-In . SVG Version: 6.00 Build 0)  -->
<!DOCTYPE svg PUBLIC "-//W3C//DTD SVG 1.1//EN" "http://www.w3.org/Graphics/SVG/1.1/DTD/svg11.dtd">
<svg version="1.1" id="Layer_21" xmlns="http://www.w3.org/2000/svg" xmlns:xlink="http://www.w3.org/1999/xlink" x="0px" y="0px"
	 width="1920px" height="820.5px" viewBox="0 -17.7 1920 820.5" enable-background="new 0 -17.7 1920 820.5" xml:space="preserve">
<path id="XMLID_21_" fill="none" stroke="#BD2026" stroke-width="0.2554" enable-background="new    " d="M6.7,433.3
	c70.2,65.4,169.1,99.9,258.5,115.9c55,9.8,107.2,7.9,158.7-1.9c82.6-15.6,159.6-50.5,238.5-87.8c49.5-23.4,99.6-47.8,150-72.7
	c100.3-49.8,201.5-101.3,306-142.2c39.9-15.7,96.1-37.5,152.5-51c88.5-21.4,170.6-17.2,202.7,57.8c15.5,36.4,26.7,72.5,43.5,108.7
	c8.8,19.1,19.9,37.7,35.6,55.8c57.1,66.1,169.8,77.1,259.3,80.9c18.5,0.7,36.8,1.6,55.1,1.4c13.4-0.1,26.8-0.2,41.1-0.5"/>
</svg>
