<?xml version="1.0" encoding="utf-8"?>
<!-- Generator: Adobe Illustrator 16.0.0, SVG Export Plug-In . SVG Version: 6.00 Build 0)  -->
<!DOCTYPE svg PUBLIC "-//W3C//DTD SVG 1.1//EN" "http://www.w3.org/Graphics/SVG/1.1/DTD/svg11.dtd">
<svg version="1.1" xmlns="http://www.w3.org/2000/svg" xmlns:xlink="http://www.w3.org/1999/xlink" x="0px" y="0px" width="1280px"
	 height="530px" viewBox="0 0 1280 530" enable-background="new 0 0 1280 530" xml:space="preserve">
<g id="Layer_1">
	<g id="Layer_47">
	</g>
	<g id="Layer_46">
	</g>
	<g id="Layer_43">
	</g>
	<g id="Layer_42">
	</g>
	<g id="Layer_41">
		<g>
			<path fill="none" stroke="#8AD6F4" stroke-width="5.000000e-002" d="M0,439.1c16.4,27.6,37.3,48.3,70.1,56.7
				c27.3,7,51.1,1.3,72-13.1c30.5-21,53.6-59.1,73.8-97.6c19.9-37.8,36.1-74,49.8-97.4c38.1-64.6,80.7-136.5,141.7-191.8
				c34.6-31.4,84.7-67.8,132.2-68.4c48.8-0.7,65.3,44.7,76.6,86.8c2,7.4,3.7,14.7,5.3,21.4c8.7,36.1,17.8,70.4,30.6,102.4
				c11.8,29.6,26.9,58,46.5,85.1c16.1,22.1,34.7,45.4,58.8,61.2c7.8,5.1,15.9,9.7,24.6,13.1c44.9,17.6,94-3.2,134.7-24.1
				c64.5-33.5,123.2-77.6,183.8-117.4c57.3-37.6,116.4-71.8,176.8-104.3"/>
			<path fill="none" stroke="#8AD6F4" stroke-width="5.000000e-002" d="M0,440.9c16.6,27.1,37.5,47.5,70,55.6
				c27.1,6.8,50.6,1,71.4-13.5c30.2-21.1,52.9-59.1,73.1-97.1c19.9-37.4,36.4-72.7,50.5-95.3c39.2-62.7,82.4-134,143.4-189.4
				c34.7-31.5,84.4-67.9,131.7-69.1c48.6-1.4,66.1,42.2,78.3,84.2c2.1,7.4,4,14.6,5.6,21.3c9.1,36,17.9,70.7,30.3,102.9
				c11.6,29.9,26.3,58.6,46,85.7c16.1,22.2,34.9,45.1,59.5,60.6c7.9,5,16,9.4,24.8,12.7c45.1,17,94.4-3.8,135.2-24.9
				c64-33,122.2-76.6,182.3-116c56.8-37.2,115.3-71,175.2-103.2"/>
			<path fill="none" stroke="#8AD6F4" stroke-width="5.000000e-002" d="M0,442.7c16.8,26.5,37.7,46.6,69.9,54.5
				c26.8,6.6,50.1,0.8,70.7-13.8c29.9-21.2,52.1-59.1,72.4-96.7c20-37,36.8-71.3,51.3-93.2c40.2-60.8,84.1-131.5,145.1-186.9
				c34.8-31.6,84.2-67.9,131.2-69.8c48.4-2,66.9,39.8,79.9,81.5c2.3,7.3,4.2,14.5,6,21.3c9.5,35.9,18,71,30.1,103.3
				c11.3,30.2,25.8,59.2,45.4,86.3c16.1,22.3,35.2,44.9,60.2,60c8,4.8,16.2,9.1,25,12.3c45.4,16.2,94.7-4.5,135.7-25.6
				c63.4-32.6,121.2-75.7,180.8-114.6c56.3-36.8,114.3-70.3,173.6-102.1"/>
		</g>
	</g>
	<g id="Layer_39">
	</g>
	<g id="Layer_38">
	</g>
	<g id="Layer_35">
	</g>
	<g id="Layer_34">
	</g>
	<g id="Layer_31">
	</g>
	<g id="Layer_30">
	</g>
	<g id="Layer_27">
	</g>
	<g id="Layer_26">
	</g>
	<g id="Layer_23">
	</g>
	<g id="Layer_22">
	</g>
	<g id="Layer_19">
	</g>
	<g id="Layer_18">
	</g>
	<g id="Layer_15">
	</g>
	<g id="Layer_14">
	</g>
	<g id="Layer_11">
	</g>
	<g id="Layer_10">
	</g>
	<g id="Layer_7">
	</g>
	<g id="Layer_6">
	</g>
	<g id="Layer_3">
	</g>
</g>
<g id="neutras" display="none">
	<g display="inline">
		<g id="Layer_48">
			<path fill="none" stroke="#8AD6F4" stroke-width="5.000000e-002" d="M0,430c15.4,30.4,36.1,52.7,70.4,62.3
				C183.8,523.8,236.8,346,269,273.4c32.9-74.1,72.3-148.9,133.2-204C436.3,38.5,488,2.2,536.7,4.7c58.6,3,64,77.7,72.1,121.7
				c12.7,69.5,39.5,125.3,81.1,182.2c21.4,29.2,45.1,63.5,78.7,79.6c43.8,21,92.5,0.5,132.2-20.4c67.3-35.4,128.4-82.4,191.5-124.5
				c59.7-39.9,121.5-75.7,184.7-109.7"/>
		</g>
		<g id="Layer_44">
			<path fill="none" stroke="#8AD6F4" stroke-width="5.000000e-002" d="M0,437.2c16.2,28.2,37.1,49.2,70.1,57.8
				c27.6,7.2,51.6,1.6,72.6-12.7c30.9-20.9,54.3-59.2,74.4-98c19.8-38.2,35.7-75.4,49.1-99.4c37.1-66.5,79.1-139,140-194.3
				c34.6-31.3,85-67.7,132.8-67.6c49-0.1,64.5,47.1,75,89.4c1.9,7.5,3.5,14.8,5,21.5c8.3,36.1,17.7,70.2,30.8,102
				c12.1,29.3,27.4,57.4,47.1,84.5c16.1,22.1,34.4,45.6,58.1,61.9c7.7,5.3,15.8,10,24.4,13.5c44.7,18.3,93.7-2.4,134.2-23.4
				c65-33.9,124.3-78.5,185.4-118.8c57.8-38.1,117.4-72.6,178.3-105.3"/>
		</g>
		<g id="Layer_40">
			<path fill="none" stroke="#8AD6F4" stroke-width="5.000000e-002" d="M0,444.5c17,25.9,38,45.7,69.8,53.4
				c26.5,6.4,49.6,0.5,70.1-14.2c29.6-21.3,51.4-59,71.7-96.2c20.1-36.7,37.1-69.9,52-91.1c41.3-58.9,85.8-129.1,146.8-184.5
				c34.9-31.6,84-68,130.8-70.6c48.2-2.6,67.8,37.4,81.6,78.9c2.4,7.3,4.5,14.5,6.3,21.2c9.9,35.8,18.1,71.2,29.9,103.8
				c11,30.5,25.2,59.8,44.8,86.9c16.1,22.3,35.4,44.7,61,59.3c8.1,4.6,16.4,8.8,25.2,11.8c45.6,15.5,95-5.2,136.3-26.4
				c62.8-32.2,120.2-74.7,179.2-113.1c55.8-36.3,113.3-69.5,172-101"/>
		</g>
		<g id="Layer_36">
			<path fill="none" stroke="#8AD6F4" stroke-width="5.000000e-002" d="M0,451.8c17.8,23.7,38.9,42.3,69.5,48.9
				c25.5,5.6,47.7-0.5,67.6-15.8c28.3-21.7,48.5-58.8,69-94.4c20.3-35.1,38.5-64.4,54.8-82.8c45.6-51.3,92.5-119.2,153.6-174.7
				c35.2-32,83.1-68.5,128.9-73.6c47.5-5.2,71,27.8,88.1,68.4c3,7.1,5.4,14.2,7.6,20.9c11.4,35.5,18.5,72.3,29,105.6
				c10,31.7,23,62.2,42.5,89.4c16.1,22.5,36.4,43.8,63.9,56.8c8.4,4,17,7.7,26.1,10.2c46.5,12.8,96.3-8.1,138.3-29.4
				c60.6-30.7,116.1-70.9,173.1-107.5c53.9-34.6,109.2-66.3,165.7-96.7"/>
		</g>
		<g id="Layer_32">
			<path fill="none" stroke="#8AD6F4" stroke-width="5.000000e-002" d="M0,459.1c18.6,21.4,39.8,38.8,69.2,44.5
				c24.4,4.8,45.7-1.5,65.1-17.3c27-22.1,45.7-58.7,66.2-92.6c20.5-33.6,39.9-59,57.7-74.5c49.9-43.7,99.2-109.3,160.4-164.9
				c35.6-32.4,82.2-68.9,127.1-76.5c46.7-7.9,74.2,18.1,94.7,57.8c3.5,6.9,6.4,13.9,8.9,20.6c13,35.3,19,73.5,28.1,107.5
				c8.9,33,20.8,64.6,40.2,91.8c16.1,22.7,37.3,42.9,66.8,54.3c8.7,3.4,17.5,6.5,26.9,8.5c47.4,10.1,97.5-10.9,140.4-32.4
				c58.3-29.2,112-67.1,167-101.8c52-32.8,105.2-63.2,159.3-92.3"/>
		</g>
		<g id="Layer_28">
			<path fill="none" stroke="#8AD6F4" stroke-width="5.000000e-002" d="M0,466.3c19.4,19.2,40.7,35.3,68.9,40.1
				c23.3,4,43.8-2.4,62.6-18.8c25.7-22.4,42.8-58.5,63.5-90.7c20.8-32.1,41.4-53.4,60.5-66.2c54.3-36.1,105.9-99.4,167.2-155.2
				c36-32.8,81.3-69.4,125.2-79.5c46-10.5,77.4,8.4,101.3,47.3c4.1,6.7,7.4,13.6,10.2,20.4c14.5,35,19.3,74.6,27.2,109.3
				c7.7,34.2,18.6,67,37.9,94.3c16.2,22.9,38.1,42.2,69.8,51.8c9,2.8,18.1,5.3,27.7,6.8c48.2,7.4,98.8-13.8,142.4-35.4
				c56-27.7,107.9-63.3,160.9-96.1c50.1-31,101.1-60.1,153-88"/>
		</g>
		<g id="Layer_24">
			<path fill="none" stroke="#8AD6F4" stroke-width="5.000000e-002" d="M0,473.6c20.2,16.9,41.6,31.8,68.6,35.6
				c22.2,3.2,41.9-3.4,60-20.3c24.4-22.8,39.9-58.3,60.7-88.9c21-30.6,42.9-47.9,63.4-57.9c58.8-28.5,112.7-89.5,174-145.4
				c36.4-33.1,80.4-69.9,123.4-82.5c45.2-13.2,80.6-1.2,107.8,36.7c4.6,6.5,8.4,13.3,11.6,20.1c16,34.7,19.7,75.7,26.3,111.2
				c6.6,35.4,16.4,69.4,35.6,96.7c16.2,23.2,39,41.5,72.7,49.3c9.3,2.2,18.7,4.1,28.5,5.1c49.1,4.7,100-16.7,144.5-38.4
				c53.7-26.3,103.8-59.5,154.8-90.5c48.1-29.2,97-56.9,146.7-83.6"/>
		</g>
		<g id="Layer_20">
			<path fill="none" stroke="#8AD6F4" stroke-width="5.000000e-002" d="M0,480.9c21,14.7,42.5,28.4,68.3,31.2
				c21.1,2.4,39.9-4.4,57.5-21.9c23.2-23.1,37-58.1,58-87.1c21.2-29,44.4-42.4,66.2-49.5C313.4,332.9,369.5,274,431,218
				c36.8-33.5,79.5-70.4,121.5-85.4c44.5-15.9,83.8-10.9,114.4,26.2c5.2,6.3,9.4,13,12.9,19.8c17.5,34.4,20,76.8,25.4,113
				c5.4,36.6,14.2,71.8,33.3,99.1c16.2,23.4,39.8,40.8,75.6,46.8c9.6,1.6,19.3,3,29.3,3.4c50,2.1,101.2-19.6,146.5-41.4
				c51.4-24.8,99.7-55.7,148.6-84.8c46.2-27.5,93-53.8,140.4-79.3"/>
		</g>
		<g id="Layer_16">
			<path fill="none" stroke="#8AD6F4" stroke-width="5.000000e-002" d="M0,488.2c21.9,12.5,43.5,24.9,68.1,26.8
				c20,1.6,38-5.3,55-23.4c21.9-23.4,34.1-57.9,55.2-85.2c21.5-27.5,45.9-36.8,69.1-41.2c67.8-12.9,126.1-69.7,187.7-125.8
				c37.2-33.9,78.5-70.9,119.7-88.4c43.7-18.6,86.9-20.5,120.9,15.6c5.7,6.1,10.4,12.7,14.2,19.6c18.9,34.1,20.4,78,24.5,114.9
				c4.2,37.9,12,74.2,30.9,101.6c16.2,23.6,40.6,40.3,78.5,44.3c9.9,1.1,19.9,1.8,30.1,1.7c50.9-0.6,102.5-22.5,148.6-44.4
				c49.1-23.4,95.6-51.9,142.5-79.1c44.3-25.7,88.9-50.6,134-74.9"/>
		</g>
		<g id="Layer_12">
			<path fill="none" stroke="#8AD6F4" stroke-width="5.000000e-002" d="M0,495.4c22.7,10.2,44.4,21.4,67.8,22.3
				c19,0.8,36.1-6.2,52.5-24.9c20.7-23.7,31.2-57.8,52.5-83.4c21.7-26,47.3-31.2,72-32.9c72.3-5,132.8-59.9,194.5-116
				c37.5-34.2,77.6-71.4,117.8-91.4c42.9-21.3,90.1-30,127.5,5.1c6.3,5.9,11.3,12.4,15.5,19.3c20.4,33.9,20.7,79.1,23.6,116.7
				c3,39.1,9.8,76.6,28.6,104c16.3,23.8,41.5,39.8,81.5,41.8c10.2,0.5,20.5,0.7,30.9,0c51.7-3.2,103.7-25.4,150.6-47.4
				c46.8-22,91.5-48.1,136.4-73.5c42.3-23.9,84.8-47.5,127.7-70.6"/>
		</g>
		<g id="Layer_8">
			<path fill="none" stroke="#8AD6F4" stroke-width="5.000000e-002" d="M0,502.7c23.5,8,45.3,17.9,67.5,17.9
				c17.9,0,34.3-7.2,50-26.4c19.5-24,28.3-57.6,49.8-81.6C189.1,388.1,216,387,242,388c76.7,2.9,139.6-50,201.3-106.3
				c37.9-34.6,76.6-72.1,116-94.4c42.1-24.1,93.2-39.6,134.1-5.5c6.8,5.7,12.3,12.1,16.8,19c21.9,33.6,21,80.2,22.7,118.6
				c1.8,40.3,7.6,78.9,26.3,106.5c16.3,24,42.4,38.5,84.4,39.3c10.5,0.2,21.1-0.5,31.7-1.7c52.6-5.8,104.9-28.4,152.7-50.4
				c44.5-20.5,87.4-44.2,130.3-67.8c40.4-22.2,80.8-44.4,121.4-66.2"/>
		</g>
		<g id="Layer_4">
			<path fill="none" stroke="#8AD6F4" stroke-width="5.000000e-002" d="M0,510c24.3,5.7,46.2,14.5,67.2,13.5
				c16.8-0.8,32.4-8.1,47.4-28c18.4-24.2,25.4-57.4,47-79.8c22.2-22.9,50.2-19.9,77.7-16.3c81.1,11,146.3-40.1,208.1-96.5
				c38.3-35,75.7-72.5,114.1-97.3c41.4-26.8,96.3-49.1,140.6-16c7.3,5.5,13.3,11.8,18.1,18.7c23.3,33.4,21.2,81.3,21.8,120.4
				c0.5,41.6,5.4,81.3,24,108.9c16.3,24.2,43.3,38.9,87.3,36.8c10.9-0.5,21.7-1.6,32.6-3.4c53.5-8.4,106.1-31.4,154.7-53.4
				c42.1-19.2,83.3-40.4,124.1-62.1c38.5-20.4,76.7-41.2,115-61.9"/>
		</g>
	</g>
</g>
</svg>
