<?xml version="1.0" encoding="utf-8"?>
<!-- Generator: Adobe Illustrator 16.0.0, SVG Export Plug-In . SVG Version: 6.00 Build 0)  -->
<!DOCTYPE svg PUBLIC "-//W3C//DTD SVG 1.1//EN" "http://www.w3.org/Graphics/SVG/1.1/DTD/svg11.dtd">
<svg version="1.1" xmlns="http://www.w3.org/2000/svg" xmlns:xlink="http://www.w3.org/1999/xlink" x="0px" y="0px" width="1280px"
	 height="530px" viewBox="0 0 1280 530" enable-background="new 0 0 1280 530" xml:space="preserve">
<g id="Layer_1">
	<g id="Layer_47">
	</g>
	<g id="Layer_46">
	</g>
	<g id="Layer_45">
		<g>
			<path fill="none" stroke="#8AD6F4" stroke-width="5.000000e-002" d="M0,431.8c15.6,29.9,36.4,51.8,70.4,61.1
				c28.4,7.8,53.1,2.3,74.5-11.5c31.9-20.6,56.5-59.3,76.5-99.4c19.7-39.3,34.7-79.5,47-105.7c34-72.2,74-146.4,134.9-201.6
				c34.2-31,85.6-67.3,134-65.4c49.5,1.9,62,54.3,70.1,97.3c1.4,7.7,2.7,15,4,21.7c7,36.4,17.3,69.4,31.5,100.6
				c12.9,28.5,29.1,55.6,48.8,82.7c16,21.9,33.6,46.3,55.9,63.7c7.4,5.8,15.3,10.9,23.8,14.8c44,20.3,92.8-0.3,132.7-21.1
				c66.8-35,127.3-81.4,190-123.1c59.2-39.4,120.4-75,183.1-108.6"/>
			<path fill="none" stroke="#8AD6F4" stroke-width="5.000000e-002" d="M0,433.6c15.8,29.3,36.6,51,70.3,60
				c28.2,7.6,52.6,2.1,73.9-11.9c31.6-20.6,55.8-59.3,75.8-98.9c19.7-38.9,35.1-78.1,47.7-103.6c35.1-70.3,75.7-143.9,136.6-199.2
				c34.3-31.1,85.4-67.4,133.6-66.1c49.4,1.3,62.8,51.9,71.7,94.7c1.6,7.6,2.9,14.9,4.3,21.6c7.4,36.3,17.4,69.6,31.2,101
				c12.6,28.8,28.5,56.2,48.3,83.3c16,22,33.9,46.1,56.6,63.1c7.5,5.6,15.5,10.6,24,14.4c44.2,19.6,93.1-1,133.2-21.9
				c66.2-34.6,126.3-80.4,188.4-121.6c58.7-39,119.4-74.2,181.5-107.5"/>
			<path fill="none" stroke="#8AD6F4" stroke-width="5.000000e-002" d="M0,435.4c16,28.7,36.8,50.1,70.2,58.9
				c27.9,7.4,52.1,1.8,73.3-12.3c31.2-20.8,55-59.2,75.1-98.5C238.4,345,254,306.8,267,282c36-68.4,77.4-141.4,138.3-196.7
				c34.4-31.2,85.1-67.6,133.1-66.9c49.2,0.6,63.6,49.5,73.3,92.1c1.7,7.6,3.2,14.8,4.7,21.5c7.9,36.2,17.5,69.9,31,101.5
				c12.4,29.1,28,56.8,47.7,83.9c16,22,34.2,45.8,57.3,62.5c7.6,5.5,15.6,10.3,24.2,14c44.4,19,93.4-1.7,133.7-22.6
				C976,337,1035.6,291.7,1097.2,251c58.3-38.5,118.4-73.4,179.9-106.4"/>
		</g>
	</g>
	<g id="Layer_43">
	</g>
	<g id="Layer_42">
	</g>
	<g id="Layer_41">
		<g>
			<path fill="none" stroke="#8AD6F4" stroke-width="5.000000e-002" d="M0,439.1c16.4,27.6,37.3,48.3,70.1,56.7
				c27.3,7,51.1,1.3,72-13.1c30.5-21,53.6-59.1,73.8-97.6c19.9-37.8,36.1-74,49.8-97.4c38.1-64.6,80.7-136.5,141.7-191.8
				c34.6-31.4,84.7-67.8,132.2-68.4c48.8-0.7,65.3,44.7,76.6,86.8c2,7.4,3.7,14.7,5.3,21.4c8.7,36.1,17.8,70.4,30.6,102.4
				c11.8,29.6,26.9,58,46.5,85.1c16.1,22.1,34.7,45.4,58.8,61.2c7.8,5.1,15.9,9.7,24.6,13.1c44.9,17.6,94-3.2,134.7-24.1
				c64.5-33.5,123.2-77.6,183.8-117.4c57.3-37.6,116.4-71.8,176.8-104.3"/>
			<path fill="none" stroke="#8AD6F4" stroke-width="5.000000e-002" d="M0,440.9c16.6,27.1,37.5,47.5,70,55.6
				c27.1,6.8,50.6,1,71.4-13.5c30.2-21.1,52.9-59.1,73.1-97.1c19.9-37.4,36.4-72.7,50.5-95.3c39.2-62.7,82.4-134,143.4-189.4
				c34.7-31.5,84.4-67.9,131.7-69.1c48.6-1.4,66.1,42.2,78.3,84.2c2.1,7.4,4,14.6,5.6,21.3c9.1,36,17.9,70.7,30.3,102.9
				c11.6,29.9,26.3,58.6,46,85.7c16.1,22.2,34.9,45.1,59.5,60.6c7.9,5,16,9.4,24.8,12.7c45.1,17,94.4-3.8,135.2-24.9
				c64-33,122.2-76.6,182.3-116c56.8-37.2,115.3-71,175.2-103.2"/>
			<path fill="none" stroke="#8AD6F4" stroke-width="5.000000e-002" d="M0,442.7c16.8,26.5,37.7,46.6,69.9,54.5
				c26.8,6.6,50.1,0.8,70.7-13.8c29.9-21.2,52.1-59.1,72.4-96.7c20-37,36.8-71.3,51.3-93.2c40.2-60.8,84.1-131.5,145.1-186.9
				c34.8-31.6,84.2-67.9,131.2-69.8c48.4-2,66.9,39.8,79.9,81.5c2.3,7.3,4.2,14.5,6,21.3c9.5,35.9,18,71,30.1,103.3
				c11.3,30.2,25.8,59.2,45.4,86.3c16.1,22.3,35.2,44.9,60.2,60c8,4.8,16.2,9.1,25,12.3c45.4,16.2,94.7-4.5,135.7-25.6
				c63.4-32.6,121.2-75.7,180.8-114.6c56.3-36.8,114.3-70.3,173.6-102.1"/>
		</g>
	</g>
	<g id="Layer_39">
	</g>
	<g id="Layer_38">
	</g>
	<g id="Layer_37">
		<g>
			<path fill="none" stroke="#8AD6F4" stroke-width="5.000000e-002" d="M0,446.3c17.2,25.4,38.2,44.9,69.8,52.3
				c26.3,6.2,49.1,0.3,69.5-14.6c29.2-21.4,50.7-59,71-95.7c20.1-36.3,37.5-68.5,52.7-89.1c42.3-57,87.5-126.6,148.5-182
				c34.9-31.7,83.8-68.2,130.3-71.3c48-3.3,68.6,35,83.2,76.3c2.6,7.2,4.7,14.4,6.6,21.1c10.2,35.8,18.2,71.5,29.7,104.3
				c10.8,30.8,24.7,60.4,44.2,87.5c16.1,22.4,35.7,44.4,61.7,58.7c8.1,4.5,16.5,8.5,25.4,11.4c45.8,14.8,95.3-5.9,136.8-27.1
				c62.3-31.9,119.1-73.8,177.7-111.7c55.4-35.9,112.3-68.7,170.4-99.9"/>
			<path fill="none" stroke="#8AD6F4" stroke-width="5.000000e-002" d="M0,448.2c17.4,24.8,38.4,44,69.7,51.2c26,6,48.6,0,68.8-15
				c28.9-21.5,50-58.9,70.3-95.3c20.2-35.9,37.8-67.2,53.4-87C305.6,247,351.3,178,412.4,122.5c35-31.8,83.5-68.3,129.9-72.1
				c47.8-3.9,69.4,32.6,84.8,73.6c2.7,7.2,5,14.3,7,21c10.6,35.7,18.3,71.8,29.4,104.7c10.5,31.1,24.1,61,43.7,88.2
				c16.1,22.4,35.9,44.2,62.4,58.1c8.2,4.3,16.7,8.2,25.6,11c46,14.2,95.6-6.6,137.3-27.9c61.7-31.5,118.1-72.8,176.2-110.3
				c54.9-35.4,111.3-67.9,168.9-98.8"/>
			<path fill="none" stroke="#8AD6F4" stroke-width="5.000000e-002" d="M0,450c17.6,24.2,38.7,43.1,69.6,50.1
				c25.7,5.8,48.2-0.2,68.2-15.4c28.6-21.6,49.3-58.9,69.6-94.8c20.2-35.5,38.2-65.8,54.1-84.9c44.5-53.2,90.8-121.7,151.9-177.2
				c35.1-31.9,83.3-68.4,129.4-72.8c47.7-4.6,70.2,30.2,86.5,71c2.8,7.1,5.2,14.2,7.3,21c11,35.6,18.4,72.1,29.2,105.2
				c10.2,31.4,23.6,61.6,43.1,88.8c16.1,22.5,36.2,44,63.2,57.5c8.3,4.1,16.8,7.9,25.9,10.6c46.3,13.5,96-7.4,137.8-28.6
				c61.1-31.1,117.1-71.9,174.7-108.9c54.4-35,110.3-67.1,167.3-97.7"/>
		</g>
	</g>
	<g id="Layer_35">
	</g>
	<g id="Layer_34">
	</g>
	<g id="Layer_33">
		<g>
			<path fill="none" stroke="#8AD6F4" stroke-width="5.000000e-002" d="M0,453.6c18,23.1,39.1,41.4,69.5,47.8
				c25.2,5.4,47.2-0.7,67-16.1c27.9-21.8,47.8-58.8,68.3-93.9c20.4-34.7,38.9-63.1,55.5-80.7c46.6-49.4,94.2-116.7,155.3-172.3
				c35.3-32.1,82.9-68.6,128.5-74.3c47.3-5.9,71.8,25.3,89.8,65.7c3.1,7,5.7,14.1,7.9,20.8c11.8,35.5,18.6,72.6,28.8,106.1
				c9.7,32.1,22.5,62.8,41.9,90c16.1,22.6,36.6,43.6,64.6,56.2c8.5,3.8,17.1,7.4,26.2,9.7c46.7,12.1,96.6-8.8,138.8-30.1
				c60-30.3,115-70,171.6-106c53.4-34.1,108.2-65.5,164.1-95.6"/>
			<path fill="none" stroke="#8AD6F4" stroke-width="5.000000e-002" d="M0,455.4C18.2,478,39.3,496,69.4,502.2
				c24.9,5.2,46.7-1,66.3-16.5c27.6-21.9,47.1-58.7,67.6-93.5c20.4-34.4,39.2-61.7,56.3-78.7c47.7-47.5,95.9-114.2,157-169.8
				c35.4-32.2,82.6-68.7,128-75c47.1-6.6,72.6,22.9,91.4,63.1c3.3,7,5.9,14,8.3,20.8c12.2,35.4,18.8,72.9,28.5,106.6
				c9.4,32.4,21.9,63.4,41.3,90.6c16.1,22.6,36.8,43.3,65.4,55.6c8.6,3.7,17.3,7.1,26.5,9.3c46.9,11.4,96.9-9.5,139.3-30.9
				c59.4-30,114-69,170.1-104.6c53-33.7,107.2-64.8,162.5-94.5"/>
			<path fill="none" stroke="#8AD6F4" stroke-width="5.000000e-002" d="M0,457.2c18.4,22,39.6,39.7,69.3,45.6
				c24.6,5,46.2-1.2,65.7-16.9c27.3-22,46.4-58.7,66.9-93c20.5-34,39.6-60.3,57-76.6c48.8-45.7,97.5-111.8,158.7-167.4
				c35.5-32.3,82.4-68.8,127.5-75.8c46.9-7.2,73.4,20.5,93,60.4c3.4,6.9,6.2,13.9,8.6,20.7c12.6,35.3,18.9,73.2,28.3,107
				c9.1,32.7,21.4,64,40.8,91.2c16.1,22.7,37.1,43.1,66.1,55c8.6,3.5,17.4,6.8,26.7,8.9c47.1,10.8,97.2-10.2,139.9-31.7
				c58.9-29.6,113-68.1,168.5-103.2c52.5-33.2,106.2-64,160.9-93.4"/>
		</g>
	</g>
	<g id="Layer_31">
	</g>
	<g id="Layer_30">
	</g>
	<g id="Layer_29">
		<g>
			<path fill="none" stroke="#8AD6F4" stroke-width="5.000000e-002" d="M0,460.9c18.8,20.9,40,37.9,69.2,43.4
				c24.1,4.6,45.2-1.7,64.4-17.7c26.7-22.2,44.9-58.6,65.5-92.1c20.6-33.2,40.3-57.6,58.4-72.4c51-41.9,100.9-106.8,162.1-162.5
				c35.7-32.5,81.9-69.1,126.6-77.3c46.5-8.5,75,15.7,96.3,55.2c3.7,6.8,6.7,13.8,9.3,20.6c13.3,35.2,19.1,73.7,27.9,108
				c8.6,33.3,20.3,65.2,39.6,92.4c16.1,22.8,37.5,42.7,67.6,53.7c8.8,3.2,17.7,6.2,27.1,8c47.6,9.4,97.8-11.6,140.9-33.1
				c57.7-28.8,110.9-66.2,165.5-100.4c51.5-32.3,104.2-62.4,157.8-91.2"/>
			<path fill="none" stroke="#8AD6F4" stroke-width="5.000000e-002" d="M0,462.7C19,483,40.3,499.8,69.1,505
				c23.8,4.4,44.8-2,63.8-18c26.3-22.2,44.2-58.6,64.8-91.6c20.7-32.8,40.7-56.2,59.1-70.3c52.1-40,102.6-104.4,163.8-160
				c35.8-32.6,81.7-69.2,126.2-78c46.3-9.2,75.8,13.3,98,52.5c3.8,6.8,6.9,13.7,9.6,20.5c13.7,35.1,19.1,74,27.7,108.4
				c8.3,33.6,19.7,65.8,39,93c16.1,22.8,37.7,42.5,68.3,53.1c8.9,3.1,17.8,5.9,27.3,7.6c47.8,8.7,98.1-12.4,141.4-33.9
				c57.2-28.5,109.9-65.2,163.9-99c51-31.9,103.1-61.6,156.2-90.1"/>
			<path fill="none" stroke="#8AD6F4" stroke-width="5.000000e-002" d="M0,464.5c19.2,19.8,40.5,36.2,69,41.2
				c23.6,4.2,44.3-2.2,63.2-18.4c26-22.3,43.5-58.5,64.2-91.2c20.7-32.5,41-54.8,59.8-68.3c53.2-38,104.3-101.9,165.5-157.6
				c35.9-32.7,81.5-69.3,125.7-78.8c46.2-9.9,76.6,10.8,99.6,49.9c3.9,6.7,7.2,13.6,9.9,20.4c14.1,35,19.2,74.3,27.4,108.9
				c8,33.9,19.2,66.4,38.5,93.6c16.2,22.9,37.9,42.4,69,52.5c8.9,2.9,18,5.6,27.5,7.2c48,8.1,98.5-13.1,141.9-34.7
				c56.6-28.1,108.9-64.2,162.4-97.6c50.5-31.5,102.1-60.8,154.6-89"/>
		</g>
	</g>
	<g id="Layer_27">
	</g>
	<g id="Layer_26">
	</g>
	<g id="Layer_25">
		<g>
			<path fill="none" stroke="#8AD6F4" stroke-width="5.000000e-002" d="M0,468.2c19.6,18.6,40.9,34.4,68.9,39
				c23,3.8,43.3-2.7,61.9-19.2c25.4-22.5,42-58.4,62.8-90.3c20.8-31.7,41.8-52.1,61.3-64.1c55.4-34.2,107.6-96.9,168.9-152.7
				c36.1-32.8,81-69.5,124.8-80.2c45.8-11.2,78.2,6,102.9,44.6c4.2,6.6,7.7,13.5,10.6,20.3c14.9,34.9,19.4,74.9,27,109.8
				c7.5,34.5,18.1,67.6,37.3,94.9c16.2,23,38.3,42,70.5,51.2c9.1,2.6,18.3,5,27.9,6.4c48.5,6.7,99.1-14.5,142.9-36.2
				c55.4-27.4,106.8-62.3,159.4-94.7c49.6-30.6,100.1-59.3,151.4-86.9"/>
			<path fill="none" stroke="#8AD6F4" stroke-width="5.000000e-002" d="M0,470c19.8,18.1,41.2,33.6,68.8,37.9
				c22.7,3.6,42.8-2.9,61.3-19.6c25.1-22.6,41.3-58.4,62.1-89.8c20.9-31.3,42.1-50.7,62-62c56.5-32.3,109.3-94.5,170.6-150.3
				c36.2-32.9,80.8-69.7,124.3-81c45.6-11.9,79,3.6,104.5,42c4.4,6.6,7.9,13.4,10.9,20.2c15.2,34.8,19.5,75.1,26.8,110.3
				c7.2,34.8,17.5,68.2,36.7,95.5c16.2,23.1,38.6,41.8,71.2,50.6c9.2,2.5,18.4,4.7,28.1,5.9c48.7,6.1,99.4-15.2,143.4-36.9
				c54.9-27,105.8-61.4,157.8-93.3c49.1-30.1,99.1-58.5,149.8-85.8"/>
			<path fill="none" stroke="#8AD6F4" stroke-width="5.000000e-002" d="M0,471.8c20,17.5,41.4,32.7,68.7,36.8
				c22.5,3.4,42.3-3.2,60.7-20c24.7-22.7,40.6-58.4,61.4-89.4c20.9-30.9,42.5-49.3,62.7-59.9c57.7-30.4,111-92,172.3-147.8
				c36.3-33,80.6-69.8,123.8-81.7c45.4-12.5,79.8,1.2,106.2,39.4c4.5,6.5,8.2,13.3,11.2,20.2c15.6,34.7,19.6,75.4,26.5,110.7
				c6.9,35.1,17,68.8,36.1,96.1c16.2,23.1,38.8,41.6,72,50c9.3,2.3,18.6,4.4,28.3,5.5c48.9,5.4,99.7-16,144-37.7
				c54.3-26.6,104.8-60.4,156.3-91.9c48.6-29.7,98.1-57.7,148.3-84.7"/>
		</g>
	</g>
	<g id="Layer_23">
	</g>
	<g id="Layer_22">
	</g>
	<g id="Layer_21">
		<g>
			<path fill="none" stroke="#8AD6F4" stroke-width="5.000000e-002" d="M-0.2,475.5c20.4,16.4,41.9,31,68.6,34.5
				c21.9,3,41.4-3.6,59.4-20.7c24.1-22.8,39.1-58.3,60-88.4c21-30.2,43.3-46.5,64.1-55.8c59.9-26.5,114.3-87.1,175.7-142.9
				c36.5-33.2,80.1-70,122.9-83.2c45-13.9,81.4-3.6,109.5,34.1c4.8,6.4,8.6,13.2,11.9,20c16.3,34.6,19.8,76,26.1,111.6
				c6.3,35.7,15.9,70,35,97.3c16.2,23.2,39.2,41.3,73.4,48.7c9.4,2,18.9,3.9,28.7,4.7c49.3,4.1,100.3-17.4,145-39.2
				c53.2-25.9,102.7-58.5,153.2-89c47.6-28.8,96-56.1,145.1-82.5"/>
			<path fill="none" stroke="#8AD6F4" stroke-width="5.000000e-002" d="M-0.2,477.3c20.6,15.8,42.1,30.1,68.5,33.4
				c21.7,2.8,40.9-3.9,58.8-21.1c23.8-22.9,38.4-58.2,59.4-88c21.1-29.8,43.6-45.2,64.8-53.7c61-24.6,116-84.6,177.4-140.5
				c36.6-33.3,79.9-70.2,122.5-84c44.9-14.5,82.2-6,111.1,31.5c4.9,6.4,8.9,13.1,12.2,20c16.7,34.5,19.9,76.3,25.9,112.1
				c6,36,15.3,70.6,34.4,97.9c16.2,23.3,39.4,41.1,74.1,48.1c9.5,1.9,19,3.6,28.9,4.2c49.5,3.4,100.6-18.1,145.5-39.9
				c52.6-25.5,101.7-57.6,151.7-87.6c47.2-28.4,95-55.4,143.5-81.4"/>
			<path fill="none" stroke="#8AD6F4" stroke-width="5.000000e-002" d="M-0.2,479.1c20.8,15.3,42.3,29.2,68.4,32.3
				c21.4,2.6,40.4-4.1,58.1-21.5c23.5-23,37.7-58.2,58.7-87.5c21.2-29.4,44-43.8,65.5-51.6c62.2-22.7,117.7-82.1,179.1-138
				c36.7-33.4,79.7-70.3,122-84.7c44.7-15.2,83-8.4,112.7,28.8c5,6.3,9.1,13,12.5,19.9c17.1,34.5,20,76.5,25.6,112.6
				c5.7,36.3,14.8,71.2,33.8,98.5c16.2,23.3,39.6,41,74.9,47.4c9.6,1.7,19.2,3.3,29.1,3.8c49.8,2.7,100.9-18.8,146-40.7
				c52-25.2,100.7-56.6,150.2-86.2c46.7-27.9,94-54.6,141.9-80.3"/>
		</g>
	</g>
	<g id="Layer_19">
	</g>
	<g id="Layer_18">
	</g>
	<g id="Layer_17">
		<g>
			<path fill="none" stroke="#8AD6F4" stroke-width="5.000000e-002" d="M0,482.7c21.2,14.1,42.8,27.5,68.3,30.1
				c20.9,2.2,39.5-4.6,56.9-22.2c22.9-23.2,36.3-58.1,57.3-86.6c21.3-28.7,44.7-41,67-47.5c64.4-18.8,121.1-77.2,182.5-133.2
				c36.9-33.6,79.2-70.5,121.1-86.2c44.3-16.6,84.6-13.3,116,23.5c5.3,6.2,9.6,12.9,13.2,19.8c17.8,34.3,20.1,77.1,25.2,113.5
				c5.1,37,13.7,72.4,32.7,99.8c16.2,23.4,40,40.7,76.3,46.2c9.7,1.5,19.5,2.7,29.5,3c50.2,1.4,101.5-20.3,147-42.2
				c50.8-24.4,98.6-54.7,147.1-83.4c45.7-27,92-53,138.8-78.2"/>
			<path fill="none" stroke="#8AD6F4" stroke-width="5.000000e-002" d="M0,484.5c21.5,13.6,43,26.6,68.2,29c20.6,2,39-4.8,56.3-22.6
				c22.6-23.2,35.5-58,56.6-86.2c21.4-28.3,45.1-39.6,67.7-45.4c65.5-16.8,122.7-74.7,184.2-130.7c37-33.7,79-70.7,120.6-86.9
				c44.1-17.2,85.4-15.6,117.7,20.9c5.4,6.2,9.9,12.8,13.5,19.7c18.2,34.3,20.2,77.4,25,114c4.8,37.3,13.1,73,32.1,100.4
				c16.2,23.5,40.2,40.6,77.1,45.6c9.8,1.3,19.6,2.4,29.7,2.6c50.4,0.7,101.9-21,147.5-42.9c50.3-24.1,97.6-53.8,145.6-82
				c45.2-26.6,90.9-52.2,137.2-77.1"/>
			<path fill="none" stroke="#8AD6F4" stroke-width="5.000000e-002" d="M0,486.3c21.7,13,43.2,25.7,68.1,27.9
				c20.3,1.8,38.5-5.1,55.6-23c22.2-23.3,34.8-58,55.9-85.7c21.4-27.9,45.5-38.2,68.4-43.3c66.7-14.9,124.5-72.2,186-128.3
				c37.1-33.8,78.8-70.8,120.1-87.7c43.9-17.9,86.1-18.1,119.3,18.3c5.6,6.1,10.1,12.8,13.8,19.6c18.6,34.2,20.3,77.7,24.7,114.4
				c4.5,37.6,12.6,73.6,31.5,101c16.2,23.5,40.4,40.4,77.8,44.9c9.8,1.2,19.8,2.1,29.9,2.1c50.7,0.4,102.2-21.8,148.1-43.7
				c49.7-23.7,96.6-52.8,144-80.5c44.7-26.2,89.9-51.4,135.6-76"/>
		</g>
	</g>
	<g id="Layer_15">
	</g>
	<g id="Layer_14">
	</g>
	<g id="Layer_13">
		<g>
			<path fill="none" stroke="#8AD6F4" stroke-width="5.000000e-002" d="M0,490c22.1,11.9,43.7,24,68,25.7
				c19.8,1.4,37.6-5.5,54.4-23.8c21.6-23.5,33.4-57.9,54.6-84.8c21.5-27.1,46.2-35.4,69.8-39.1c68.9-10.9,127.8-67.3,189.4-123.4
				c37.3-34,78.3-71.1,119.2-89.2c43.5-19.3,87.7-22.9,122.6,13c5.8,6,10.6,12.6,14.5,19.5c19.3,34.1,20.5,78.2,24.3,115.3
				c3.9,38.2,11.5,74.8,30.4,102.2c16.3,23.7,40.8,40.1,79.3,43.7c10,0.9,20.1,1.5,30.3,1.3c51.1-1.2,102.8-23.2,149.1-45.2
				c48.5-23,94.5-50.9,141-77.7c43.8-25.3,87.9-49.9,132.4-73.8"/>
			<path fill="none" stroke="#8AD6F4" stroke-width="5.000000e-002" d="M0,491.8c22.3,11.3,43.9,23.2,67.9,24.5
				c19.5,1.2,37.1-5.8,53.7-24.2c21.3-23.5,32.7-57.9,53.9-84.3c21.6-26.7,46.6-34,70.5-37.1c70-9,129.5-64.8,191.1-120.9
				c37.3-34,78.1-71.2,118.8-89.9c43.3-19.9,88.5-25.3,124.2,10.4c6,6,10.8,12.5,14.8,19.4c19.7,34,20.5,78.5,24.1,115.8
				c3.6,38.5,10.9,75.4,29.8,102.8c16.3,23.7,41.1,40,80,43.1c10.1,0.8,20.2,1.2,30.5,0.9c51.3-1.9,103.1-23.9,149.6-45.9
				c48-22.7,93.5-50,139.5-76.3c43.3-24.8,86.9-49.1,130.9-72.7"/>
			<path fill="none" stroke="#8AD6F4" stroke-width="5.000000e-002" d="M0,493.6c22.5,10.8,44.1,22.3,67.8,23.4
				c19.2,1,36.6-6,53.1-24.5c21-23.6,31.9-57.8,53.2-83.9c21.6-26.4,47-32.6,71.2-35c71.2-7,131.1-62.3,192.8-118.5
				c37.4-34.1,77.8-71.3,118.3-90.6c43.1-20.6,89.3-27.6,125.9,7.7c6.1,5.9,11.1,12.5,15.2,19.4c20,33.9,20.6,78.8,23.8,116.3
				c3.3,38.8,10.4,76,29.2,103.4c16.3,23.8,41.3,39.9,80.7,42.4c10.2,0.7,20.4,1,30.7,0.4c51.5-2.6,103.4-24.7,150.1-46.7
				c47.4-22.3,92.5-49,137.9-74.9c42.8-24.4,85.9-48.3,129.3-71.7"/>
		</g>
	</g>
	<g id="Layer_11">
	</g>
	<g id="Layer_10">
	</g>
	<g id="Layer_9">
		<g>
			<path fill="none" stroke="#8AD6F4" stroke-width="5.000000e-002" d="M0,497.2c22.9,9.7,44.6,20.6,67.7,21.2
				c18.7,0.6,35.7-6.5,51.9-25.3c20.4-23.8,30.5-57.7,51.8-83c21.8-25.6,47.7-29.8,72.7-30.8c73.4-3,134.5-57.4,196.2-113.6
				c37.6-34.3,77.4-71.6,117.4-92.1c42.7-22,90.9-32.4,129.2,2.5c6.4,5.8,11.6,12.3,15.8,19.2c20.8,33.8,20.8,79.4,23.4,117.2
				c2.7,39.4,9.3,77.2,28.1,104.6c16.3,23.9,41.7,39.7,82.2,41.2c10.3,0.4,20.7,0.4,31.1-0.4c52-3.9,104-26.1,151.1-48.2
				c46.2-21.6,90.4-47.1,134.9-72c41.8-23.5,83.8-46.7,126.1-69.5"/>
			<path fill="none" stroke="#8AD6F4" stroke-width="5.000000e-002" d="M0,499.1c23.1,9.1,44.8,19.7,67.6,20.1
				c18.4,0.4,35.2-6.7,51.2-25.7c20.1-23.8,29.8-57.7,51.1-82.5c21.8-25.2,48.1-28.4,73.4-28.7c74.5-1,136.2-54.9,197.9-111.2
				c37.7-34.4,77.1-71.7,116.9-92.9c42.6-22.6,91.6-34.8,130.8-0.2c6.5,5.8,11.8,12.2,16.1,19.2c21.1,33.8,20.8,79.6,23.2,117.6
				c2.4,39.7,8.7,77.8,27.5,105.2c16.3,23.9,41.9,39.5,82.9,40.6c10.4,0.3,20.8,0.1,31.3-0.8c52.2-4.6,104.3-26.9,151.7-48.9
				c45.6-21.2,89.4-46.1,133.3-70.6c41.4-23.1,82.8-45.9,124.5-68.4"/>
			<path fill="none" stroke="#8AD6F4" stroke-width="5.000000e-002" d="M0,500.9c23.3,8.5,45.1,18.8,67.5,19
				c18.2,0.2,34.7-6.9,50.6-26.1c19.8-23.9,29-57.6,50.4-82.1c21.9-24.8,48.4-27,74.1-26.7c75.6,1,137.9-52.4,199.6-108.7
				c37.8-34.5,76.9-71.8,116.4-93.6c42.4-23.3,92.4-37.2,132.4-2.8c6.7,5.7,12.1,12.2,16.5,19.1c21.5,33.7,20.9,79.9,22.9,118.1
				c2.1,40,8.2,78.3,26.9,105.8c16.3,24,42.1,39.4,83.7,39.9c10.5,0.1,21-0.2,31.5-1.2c52.4-5.1,104.6-27.6,152.2-49.7
				c45.1-20.9,88.4-45.2,131.8-69.2c40.9-22.6,81.8-45.2,122.9-67.3"/>
		</g>
	</g>
	<g id="Layer_7">
	</g>
	<g id="Layer_6">
	</g>
	<g id="Layer_5">
		<g>
			<path fill="none" stroke="#8AD6F4" stroke-width="5.000000e-002" d="M0,504.5c23.7,7.4,45.5,17.1,67.4,16.8
				c17.6-0.2,33.8-7.4,49.3-26.8c19.2-24,27.6-57.5,49.1-81.1c22-24.1,49.2-24.2,75.5-22.5c77.8,4.9,141.2-47.5,203-103.8
				c38-34.7,76.4-72.2,115.5-95.1c41.9-24.7,94-42,135.7-8.1c6.9,5.6,12.5,12,17.1,18.9c22.2,33.6,21.1,80.5,22.5,119
				c1.5,40.6,7.1,79.5,25.7,107.1c16.3,24.1,42.6,39.2,85.1,38.7c10.6-0.1,21.3-0.8,31.9-2.1c52.9-6.4,105.2-29.1,153.2-51.2
				c43.9-20.2,86.3-43.3,128.7-66.4c39.9-21.7,79.8-43.6,119.8-65.1"/>
			<path fill="none" stroke="#8AD6F4" stroke-width="5.000000e-002" d="M0,506.3c23.9,6.9,45.7,16.2,67.3,15.7
				c17.3-0.4,33.3-7.6,48.7-27.2c18.9-24.1,26.9-57.5,48.4-80.7c22.1-23.7,49.5-22.8,76.2-20.4c78.9,6.9,142.9-45,204.7-101.4
				c38.1-34.8,76.2-72.3,115.1-95.8c41.7-25.4,94.8-44.4,137.4-10.7c7.1,5.6,12.8,12,17.5,18.9c22.6,33.5,21.1,80.7,22.3,119.5
				c1.2,40.9,6.5,80.1,25.2,107.7c16.3,24.1,42.8,39.1,85.9,38.1c10.7-0.3,21.4-1.1,32.1-2.5c53.1-7.1,105.4-29.9,153.7-51.9
				c43.3-19.9,85.3-42.3,127.2-65c39.4-21.3,78.7-42.8,118.2-64"/>
			<path fill="none" stroke="#8AD6F4" stroke-width="5.000000e-002" d="M0,508.2c24.1,6.3,46,15.3,67.2,14.6
				c17.1-0.6,32.9-7.9,48.1-27.6c18.6-24.2,26.2-57.5,47.7-80.2c22.1-23.3,49.9-21.4,77-18.3c80,8.9,144.6-42.6,206.4-98.9
				c38.2-34.9,75.9-72.4,114.6-96.6c41.5-26.1,95.5-46.7,139-13.4c7.2,5.5,13,11.9,17.8,18.8c22.9,33.5,21.1,81,22,119.9
				c0.8,41.3,6,80.7,24.6,108.3c16.3,24.2,43,39,86.6,37.4c10.8-0.4,21.6-1.3,32.4-2.9c53.3-7.8,105.7-30.7,154.2-52.7
				c42.7-19.6,84.3-41.4,125.7-63.5c38.9-20.8,77.7-42,116.6-63"/>
		</g>
	</g>
	<g id="Layer_3">
	</g>
	<g id="Layer_2">
		<g>
			<path fill="none" stroke="#8AD6F4" stroke-width="5.000000e-002" d="M0,511.8c24.5,5.2,46.4,13.6,67.1,12.4
				c16.5-1,32-8.3,46.8-28.4c18.1-24.3,24.7-57.4,46.3-79.3c22.2-22.6,50.6-18.5,78.4-14.2c82.2,13,148-37.6,209.8-94
				c38.4-35.1,75.5-72.7,113.7-98.1c41.2-27.4,97.1-51.5,142.3-18.6c7.5,5.4,13.5,11.7,18.4,18.7c23.7,33.4,21.3,81.6,21.6,120.9
				c0.2,41.9,4.9,81.9,23.4,109.5c16.3,24.3,43.5,38.9,88,36.2c10.9-0.6,21.9-1.9,32.8-3.8c53.8-9.1,106.4-32.1,155.3-54.2
				c41.5-18.8,82.2-39.5,122.6-60.7c38-20,75.7-40.5,113.4-60.8"/>
			<path fill="none" stroke="#8AD6F4" stroke-width="5.000000e-002" d="M0,513.6c44.4,8.3,80.1,28,113.2-17.5
				c17.8-24.4,24-57.3,45.6-78.9c22.3-22.2,51-17.2,79.1-12.1C373,429.3,463.7,282.5,562.6,214.7c41-28.1,97.9-53.9,143.9-21.3
				c44,31.2,40.2,92.2,40.1,139.9c-0.1,79.4,15.5,152.5,111.6,145.7c65.4-4.6,129.7-32.5,188.7-59.1c79.5-35.8,156.2-77.6,232.9-119
				"/>
		</g>
	</g>
</g>
<g id="neutras">
	<g>
		<g id="Layer_48">
			<path fill="none" stroke="#8AD6F4" stroke-width="5.000000e-002" d="M0,430c15.4,30.4,36.1,52.7,70.4,62.3
				C183.8,523.8,236.8,346,269,273.4c32.9-74.1,72.3-148.9,133.2-204C436.3,38.5,488,2.2,536.7,4.7c58.6,3,64,77.7,72.1,121.7
				c12.7,69.5,39.5,125.3,81.1,182.2c21.4,29.2,45.1,63.5,78.7,79.6c43.8,21,92.5,0.5,132.2-20.4c67.3-35.4,128.4-82.4,191.5-124.5
				c59.7-39.9,121.5-75.7,184.7-109.7"/>
		</g>
		<g id="Layer_44">
			<path fill="none" stroke="#8AD6F4" stroke-width="5.000000e-002" d="M0,437.2c16.2,28.2,37.1,49.2,70.1,57.8
				c27.6,7.2,51.6,1.6,72.6-12.7c30.9-20.9,54.3-59.2,74.4-98c19.8-38.2,35.7-75.4,49.1-99.4c37.1-66.5,79.1-139,140-194.3
				c34.6-31.3,85-67.7,132.8-67.6c49-0.1,64.5,47.1,75,89.4c1.9,7.5,3.5,14.8,5,21.5c8.3,36.1,17.7,70.2,30.8,102
				c12.1,29.3,27.4,57.4,47.1,84.5c16.1,22.1,34.4,45.6,58.1,61.9c7.7,5.3,15.8,10,24.4,13.5c44.7,18.3,93.7-2.4,134.2-23.4
				c65-33.9,124.3-78.5,185.4-118.8c57.8-38.1,117.4-72.6,178.3-105.3"/>
		</g>
		<g id="Layer_40">
			<path fill="none" stroke="#8AD6F4" stroke-width="5.000000e-002" d="M0,444.5c17,25.9,38,45.7,69.8,53.4
				c26.5,6.4,49.6,0.5,70.1-14.2c29.6-21.3,51.4-59,71.7-96.2c20.1-36.7,37.1-69.9,52-91.1c41.3-58.9,85.8-129.1,146.8-184.5
				c34.9-31.6,84-68,130.8-70.6c48.2-2.6,67.8,37.4,81.6,78.9c2.4,7.3,4.5,14.5,6.3,21.2c9.9,35.8,18.1,71.2,29.9,103.8
				c11,30.5,25.2,59.8,44.8,86.9c16.1,22.3,35.4,44.7,61,59.3c8.1,4.6,16.4,8.8,25.2,11.8c45.6,15.5,95-5.2,136.3-26.4
				c62.8-32.2,120.2-74.7,179.2-113.1c55.8-36.3,113.3-69.5,172-101"/>
		</g>
		<g id="Layer_36">
			<path fill="none" stroke="#8AD6F4" stroke-width="5.000000e-002" d="M0,451.8c17.8,23.7,38.9,42.3,69.5,48.9
				c25.5,5.6,47.7-0.5,67.6-15.8c28.3-21.7,48.5-58.8,69-94.4c20.3-35.1,38.5-64.4,54.8-82.8c45.6-51.3,92.5-119.2,153.6-174.7
				c35.2-32,83.1-68.5,128.9-73.6c47.5-5.2,71,27.8,88.1,68.4c3,7.1,5.4,14.2,7.6,20.9c11.4,35.5,18.5,72.3,29,105.6
				c10,31.7,23,62.2,42.5,89.4c16.1,22.5,36.4,43.8,63.9,56.8c8.4,4,17,7.7,26.1,10.2c46.5,12.8,96.3-8.1,138.3-29.4
				c60.6-30.7,116.1-70.9,173.1-107.5c53.9-34.6,109.2-66.3,165.7-96.7"/>
		</g>
		<g id="Layer_32">
			<path fill="none" stroke="#8AD6F4" stroke-width="5.000000e-002" d="M0,459.1c18.6,21.4,39.8,38.8,69.2,44.5
				c24.4,4.8,45.7-1.5,65.1-17.3c27-22.1,45.7-58.7,66.2-92.6c20.5-33.6,39.9-59,57.7-74.5c49.9-43.7,99.2-109.3,160.4-164.9
				c35.6-32.4,82.2-68.9,127.1-76.5c46.7-7.9,74.2,18.1,94.7,57.8c3.5,6.9,6.4,13.9,8.9,20.6c13,35.3,19,73.5,28.1,107.5
				c8.9,33,20.8,64.6,40.2,91.8c16.1,22.7,37.3,42.9,66.8,54.3c8.7,3.4,17.5,6.5,26.9,8.5c47.4,10.1,97.5-10.9,140.4-32.4
				c58.3-29.2,112-67.1,167-101.8c52-32.8,105.2-63.2,159.3-92.3"/>
		</g>
		<g id="Layer_28">
			<path fill="none" stroke="#8AD6F4" stroke-width="5.000000e-002" d="M0,466.3c19.4,19.2,40.7,35.3,68.9,40.1
				c23.3,4,43.8-2.4,62.6-18.8c25.7-22.4,42.8-58.5,63.5-90.7c20.8-32.1,41.4-53.4,60.5-66.2c54.3-36.1,105.9-99.4,167.2-155.2
				c36-32.8,81.3-69.4,125.2-79.5c46-10.5,77.4,8.4,101.3,47.3c4.1,6.7,7.4,13.6,10.2,20.4c14.5,35,19.3,74.6,27.2,109.3
				c7.7,34.2,18.6,67,37.9,94.3c16.2,22.9,38.1,42.2,69.8,51.8c9,2.8,18.1,5.3,27.7,6.8c48.2,7.4,98.8-13.8,142.4-35.4
				c56-27.7,107.9-63.3,160.9-96.1c50.1-31,101.1-60.1,153-88"/>
		</g>
		<g id="Layer_24">
			<path fill="none" stroke="#8AD6F4" stroke-width="5.000000e-002" d="M0,473.6c20.2,16.9,41.6,31.8,68.6,35.6
				c22.2,3.2,41.9-3.4,60-20.3c24.4-22.8,39.9-58.3,60.7-88.9c21-30.6,42.9-47.9,63.4-57.9c58.8-28.5,112.7-89.5,174-145.4
				c36.4-33.1,80.4-69.9,123.4-82.5c45.2-13.2,80.6-1.2,107.8,36.7c4.6,6.5,8.4,13.3,11.6,20.1c16,34.7,19.7,75.7,26.3,111.2
				c6.6,35.4,16.4,69.4,35.6,96.7c16.2,23.2,39,41.5,72.7,49.3c9.3,2.2,18.7,4.1,28.5,5.1c49.1,4.7,100-16.7,144.5-38.4
				c53.7-26.3,103.8-59.5,154.8-90.5c48.1-29.2,97-56.9,146.7-83.6"/>
		</g>
		<g id="Layer_20">
			<path fill="none" stroke="#8AD6F4" stroke-width="5.000000e-002" d="M0,480.9c21,14.7,42.5,28.4,68.3,31.2
				c21.1,2.4,39.9-4.4,57.5-21.9c23.2-23.1,37-58.1,58-87.1c21.2-29,44.4-42.4,66.2-49.5C313.4,332.9,369.5,274,431,218
				c36.8-33.5,79.5-70.4,121.5-85.4c44.5-15.9,83.8-10.9,114.4,26.2c5.2,6.3,9.4,13,12.9,19.8c17.5,34.4,20,76.8,25.4,113
				c5.4,36.6,14.2,71.8,33.3,99.1c16.2,23.4,39.8,40.8,75.6,46.8c9.6,1.6,19.3,3,29.3,3.4c50,2.1,101.2-19.6,146.5-41.4
				c51.4-24.8,99.7-55.7,148.6-84.8c46.2-27.5,93-53.8,140.4-79.3"/>
		</g>
		<g id="Layer_16">
			<path fill="none" stroke="#8AD6F4" stroke-width="5.000000e-002" d="M0,488.2c21.9,12.5,43.5,24.9,68.1,26.8
				c20,1.6,38-5.3,55-23.4c21.9-23.4,34.1-57.9,55.2-85.2c21.5-27.5,45.9-36.8,69.1-41.2c67.8-12.9,126.1-69.7,187.7-125.8
				c37.2-33.9,78.5-70.9,119.7-88.4c43.7-18.6,86.9-20.5,120.9,15.6c5.7,6.1,10.4,12.7,14.2,19.6c18.9,34.1,20.4,78,24.5,114.9
				c4.2,37.9,12,74.2,30.9,101.6c16.2,23.6,40.6,40.3,78.5,44.3c9.9,1.1,19.9,1.8,30.1,1.7c50.9-0.6,102.5-22.5,148.6-44.4
				c49.1-23.4,95.6-51.9,142.5-79.1c44.3-25.7,88.9-50.6,134-74.9"/>
		</g>
		<g id="Layer_12">
			<path fill="none" stroke="#8AD6F4" stroke-width="5.000000e-002" d="M0,495.4c22.7,10.2,44.4,21.4,67.8,22.3
				c19,0.8,36.1-6.2,52.5-24.9c20.7-23.7,31.2-57.8,52.5-83.4c21.7-26,47.3-31.2,72-32.9c72.3-5,132.8-59.9,194.5-116
				c37.5-34.2,77.6-71.4,117.8-91.4c42.9-21.3,90.1-30,127.5,5.1c6.3,5.9,11.3,12.4,15.5,19.3c20.4,33.9,20.7,79.1,23.6,116.7
				c3,39.1,9.8,76.6,28.6,104c16.3,23.8,41.5,39.8,81.5,41.8c10.2,0.5,20.5,0.7,30.9,0c51.7-3.2,103.7-25.4,150.6-47.4
				c46.8-22,91.5-48.1,136.4-73.5c42.3-23.9,84.8-47.5,127.7-70.6"/>
		</g>
		<g id="Layer_8">
			<path fill="none" stroke="#8AD6F4" stroke-width="5.000000e-002" d="M0,502.7c23.5,8,45.3,17.9,67.5,17.9
				c17.9,0,34.3-7.2,50-26.4c19.5-24,28.3-57.6,49.8-81.6C189.1,388.1,216,387,242,388c76.7,2.9,139.6-50,201.3-106.3
				c37.9-34.6,76.6-72.1,116-94.4c42.1-24.1,93.2-39.6,134.1-5.5c6.8,5.7,12.3,12.1,16.8,19c21.9,33.6,21,80.2,22.7,118.6
				c1.8,40.3,7.6,78.9,26.3,106.5c16.3,24,42.4,38.5,84.4,39.3c10.5,0.2,21.1-0.5,31.7-1.7c52.6-5.8,104.9-28.4,152.7-50.4
				c44.5-20.5,87.4-44.2,130.3-67.8c40.4-22.2,80.8-44.4,121.4-66.2"/>
		</g>
		<g id="Layer_4">
			<path fill="none" stroke="#8AD6F4" stroke-width="5.000000e-002" d="M0,510c24.3,5.7,46.2,14.5,67.2,13.5
				c16.8-0.8,32.4-8.1,47.4-28c18.4-24.2,25.4-57.4,47-79.8c22.2-22.9,50.2-19.9,77.7-16.3c81.1,11,146.3-40.1,208.1-96.5
				c38.3-35,75.7-72.5,114.1-97.3c41.4-26.8,96.3-49.1,140.6-16c7.3,5.5,13.3,11.8,18.1,18.7c23.3,33.4,21.2,81.3,21.8,120.4
				c0.5,41.6,5.4,81.3,24,108.9c16.3,24.2,43.3,38.9,87.3,36.8c10.9-0.5,21.7-1.6,32.6-3.4c53.5-8.4,106.1-31.4,154.7-53.4
				c42.1-19.2,83.3-40.4,124.1-62.1c38.5-20.4,76.7-41.2,115-61.9"/>
		</g>
	</g>
</g>
</svg>
