<?xml version="1.0" encoding="utf-8"?>
<!-- Generator: Adobe Illustrator 16.0.0, SVG Export Plug-In . SVG Version: 6.00 Build 0)  -->
<!DOCTYPE svg PUBLIC "-//W3C//DTD SVG 1.1//EN" "http://www.w3.org/Graphics/SVG/1.1/DTD/svg11.dtd">
<svg version="1.1" id="Layer_1" xmlns="http://www.w3.org/2000/svg" xmlns:xlink="http://www.w3.org/1999/xlink" x="0px" y="0px"
	 width="1280px" height="374.6px" viewBox="0 0 1280 374.6" enable-background="new 0 0 1280 374.6" xml:space="preserve">
<g id="Layer_96">
	<path id="XMLID_47_" fill="none" stroke="#BD2026" stroke-width="0.2554" d="M8.7,114.7c71.7,52.4,144.4,98.2,234.5,110.2
		c83.6,12,167.2,2.2,248.6-21.8c92.3-27.3,181.3-67.6,277.9-77.5c79.3-8.7,154.2,12,230.2,28.4c80.3,17.5,161.8,27.3,244.3,18.5
		c7.6-1.1,15.2-2.2,23.9-3.3"/>
</g>
<g id="Layer_95">
	<path id="XMLID_46_" fill="none" stroke="#BD2026" stroke-width="0.2554" d="M8.5,118.8c45.9,33.9,93.1,64.5,144.5,85.1
		c29,11.6,59.3,19.7,91.8,23.8c51.2,6.4,102.2,5,152.8-2.9c32.3-5,64.4-12.6,96.3-22.2c63-19.1,124.5-44.1,187.9-61.4
		c29.6-8,60-14.5,91.1-18c49-5.5,96.3,0.1,141.8,10.5c28.7,6.5,57.1,14,85.8,21.1c15,3.7,30.1,7.1,45.4,10.2
		c54.1,10.9,110.2,16.1,166.1,13.5c10.8-0.5,21.6-1.1,32.4-2.4c7.7-0.9,15.3-2.1,24-3.2"/>
</g>
<g id="Layer_94">
	<path id="XMLID_45_" fill="none" stroke="#BD2026" stroke-width="0.2554" d="M8.3,122.9c46,34.3,93.9,64.5,145.6,84.8
		c29.3,11.4,59.8,19.1,92.3,22.8c51.3,5.7,102.4,3.4,153-5.1c32.3-5.4,64.5-13.3,96.4-23.3c63.1-19.7,124.9-45,188.6-62.8
		c29.5-8.1,60.2-14.9,91.6-18.6c49.4-5.8,97.1-0.1,141.6,11.6c28,7.4,55.5,15.4,83.5,23.1c14.7,4.1,29.5,7.8,44.5,11.3
		c53.5,12.3,110.3,17.5,166.4,15.2c10.9-0.5,21.7-1,32.6-2.2c7.7-0.9,15.4-2,24.2-3"/>
</g>
<g id="Layer_93">
	<path id="XMLID_44_" fill="none" stroke="#BD2026" stroke-width="0.2554" d="M8.1,127c46,34.7,94.7,64.6,146.7,84.5
		c29.6,11.2,60.3,18.6,92.9,21.8c51.5,5.1,102.5,1.9,153.3-7.3c32.4-5.9,64.6-14.1,96.6-24.3c63.3-20.2,125.3-46,189.2-64.1
		c29.3-8.3,60.3-15.3,92-19.3c49.8-6.2,97.8-0.4,141.3,12.7c27.3,8.2,54,16.8,81.3,25.2c14.3,4.4,28.8,8.6,43.7,12.4
		c52.8,13.6,110.4,18.9,166.7,16.8c10.9-0.4,21.8-0.9,32.7-2.1c7.8-0.8,15.5-1.9,24.3-2.9"/>
</g>
<g id="Layer_92">
	<path id="XMLID_43_" fill="none" stroke="#BD2026" stroke-width="0.2554" d="M7.9,131.1c46.1,35.1,95.4,64.8,147.8,84.1
		c29.9,11,60.8,18,93.5,20.8c51.7,4.4,102.7,0.3,153.6-9.6c32.4-6.3,64.7-14.9,96.8-25.4c63.4-20.8,125.7-47,189.9-65.4
		c29.2-8.4,60.5-15.8,92.4-19.9c50.2-6.5,98.5-0.7,141.1,13.8c26.5,9,52.4,18.2,79,27.2c13.9,4.8,28.1,9.3,42.8,13.4
		c52.2,14.8,110.6,20.3,167,18.4c11-0.4,21.9-0.8,32.9-2c7.8-0.8,15.6-1.9,24.4-2.8"/>
</g>
<g id="Layer_91">
	<path id="XMLID_42_" fill="none" stroke="#BD2026" stroke-width="0.2554" d="M7.7,135.2c46.1,35.5,96.2,64.9,149,83.8
		c30.2,10.8,61.3,17.4,94.1,19.8c51.8,3.7,102.9-1.2,153.8-11.8c32.4-6.7,64.8-15.6,96.9-26.4c63.6-21.4,126.1-48,190.6-66.8
		c29.1-8.5,60.7-16.2,92.9-20.5c50.6-6.9,99.3-0.9,140.8,15c25.8,9.9,50.8,19.5,76.7,29.3c13.6,5.1,27.4,10,41.9,14.5
		c51.6,16.1,110.7,21.8,167.2,20c11-0.3,22.1-0.8,33.1-1.8c7.9-0.8,15.7-1.8,24.6-2.7"/>
</g>
<g id="Layer_90">
	<path id="XMLID_41_" fill="none" stroke="#BD2026" stroke-width="0.2554" d="M7.6,139.3c46.1,35.9,97,65,150.1,83.5
		c30.5,10.6,61.8,16.8,94.6,18.8c52,3.1,103.1-2.8,154.1-14c32.5-7.1,64.9-16.4,97.1-27.5c63.8-21.9,126.5-48.9,191.2-68.1
		c29-8.6,60.8-16.6,93.3-21.2c51-7.2,100-1.2,140.6,16.1c25,10.7,49.2,20.9,74.5,31.3c13.2,5.5,26.8,10.7,41.1,15.6
		c50.9,17.4,110.8,23.2,167.5,21.6c11.1-0.3,22.2-0.7,33.3-1.7c7.9-0.7,15.8-1.7,24.7-2.6"/>
</g>
<g id="Layer_89">
	<path id="XMLID_40_" fill="none" stroke="#BD2026" stroke-width="0.2554" d="M7.4,143.4c46.2,36.2,97.8,65.1,151.2,83.2
		c30.8,10.4,62.3,16.3,95.2,17.8c52.1,2.4,103.3-4.3,154.4-16.2c32.5-7.6,65-17.2,97.2-28.5c63.9-22.5,126.9-49.9,191.9-69.4
		c28.9-8.7,61-17,93.7-21.8c51.4-7.6,100.6-1.6,140.3,17.2c24.3,11.5,47.7,22.3,72.2,33.4c12.8,5.9,26.1,11.4,40.2,16.7
		c50.3,18.8,111,24.6,167.8,23.2c11.2-0.3,22.3-0.6,33.5-1.6c8-0.7,15.9-1.6,24.8-2.5"/>
</g>
<g id="Layer_88">
	<path id="XMLID_39_" fill="none" stroke="#BD2026" stroke-width="0.2554" d="M7.2,147.5c46.2,36.6,98.6,65.2,152.4,82.9
		c31.1,10.2,62.8,15.7,95.8,16.8c52.3,1.7,103.4-5.8,154.6-18.5c32.5-8,65-18,97.4-29.6c64.1-23.1,127.3-50.8,192.6-70.8
		c28.8-8.8,61.2-17.4,94.2-22.5c51.8-7.9,101.3-1.9,140,18.3c23.5,12.3,46.1,23.6,69.9,35.4c12.5,6.2,25.4,12.1,39.3,17.8
		c49.7,20.1,111.1,26,168.1,24.8c11.2-0.2,22.4-0.5,33.6-1.4c8-0.7,16-1.6,25-2.4"/>
</g>
<g id="Layer_87">
	<path id="XMLID_38_" fill="none" stroke="#BD2026" stroke-width="0.2554" d="M7,151.6c46.3,37,99.4,65.3,153.5,82.6
		c31.4,10,63.2,15.1,96.3,15.8c52.5,1,103.6-7.4,154.9-20.7c32.6-8.4,65.1-18.7,97.6-30.6c64.3-23.6,127.7-51.7,193.2-72.1
		c28.6-8.9,61.3-17.8,94.6-23.1c52.3-8.3,101.9-2.2,139.8,19.5c22.7,13,44.5,25,67.7,37.5c12.1,6.6,24.8,12.8,38.5,18.8
		c49,21.4,111.2,27.4,168.4,26.5c11.3-0.2,22.5-0.4,33.8-1.3c8.1-0.6,16.1-1.5,25.1-2.3"/>
</g>
<g id="Layer_86">
	<path id="XMLID_37_" fill="none" stroke="#BD2026" stroke-width="0.2554" d="M6.8,155.7C53.1,193.1,107,221.1,161.4,238
		c31.7,9.8,63.7,14.5,96.9,14.8c52.6,0.4,103.8-8.9,155.2-22.9c32.6-8.8,65.2-19.5,97.7-31.7c64.4-24.2,128.1-52.7,193.9-73.4
		c28.5-9,61.5-18.3,95-23.7c52.7-8.6,102.6-2.6,139.5,20.6c22,13.8,43,26.4,65.4,39.6c11.7,6.9,24.1,13.6,37.6,19.9
		c48.4,22.7,111.4,28.8,168.7,28.1c11.4-0.1,22.7-0.4,34-1.2c8.1-0.6,16.2-1.4,25.3-2.1"/>
</g>
<g id="Layer_85">
	<path id="XMLID_36_" fill="none" stroke="#BD2026" stroke-width="0.2554" d="M6.6,159.8c46.3,37.8,101,65.5,155.8,81.9
		c32,9.6,64.2,13.9,97.5,13.8c52.8-0.3,104-10.5,155.4-25.1c32.6-9.2,65.3-20.3,97.9-32.7c64.6-24.7,128.5-53.6,194.6-74.8
		c28.4-9.1,61.7-18.7,95.5-24.4c53.1-9,103.2-3,139.3,21.7c21.2,14.5,41.4,27.7,63.1,41.6c11.4,7.3,23.4,14.3,36.8,21
		c47.8,24,111.5,30.2,169,29.7c11.4-0.1,22.8-0.3,34.2-1c8.2-0.5,16.3-1.3,25.4-2"/>
</g>
<g id="Layer_84">
	<path id="XMLID_35_" fill="none" stroke="#BD2026" stroke-width="0.2554" d="M6.4,163.9c46.4,38.2,101.8,65.6,156.9,81.6
		c32.4,9.4,64.7,13.4,98.1,12.8c52.9-1,104.2-12,155.7-27.4c32.7-9.7,65.4-21,98-33.8c64.7-25.3,128.9-54.6,195.2-76.1
		c28.3-9.2,61.9-19.1,95.9-25c53.5-9.3,103.9-3.5,139,22.8c20.4,15.3,39.9,29.1,60.9,43.7c11,7.6,22.7,15,35.9,22.1
		c47.1,25.3,111.6,31.6,169.3,31.3c11.5-0.1,22.9-0.2,34.3-0.9c8.2-0.5,16.5-1.2,25.5-1.9"/>
</g>
<g id="Layer_83">
	<path id="XMLID_34_" fill="none" stroke="#BD2026" stroke-width="0.2554" d="M6.2,168c46.4,38.6,102.6,65.6,158,81.3
		c32.7,9.2,65.2,12.9,98.6,11.8c53.1-1.5,104.4-13.6,156-29.6c32.7-10.1,65.5-21.8,98.2-34.8c64.9-25.9,129.3-55.5,195.9-77.4
		c28.2-9.3,62-19.5,96.3-25.7c53.9-9.7,104.5-3.9,138.8,23.9c19.7,16,38.3,30.5,58.6,45.7c10.6,8,22.1,15.7,35,23.2
		c46.5,26.7,111.8,33,169.6,32.9c11.6,0,23-0.1,34.5-0.8c8.3-0.5,16.6-1.2,25.7-1.8"/>
</g>
<g id="Layer_82">
	<path id="XMLID_33_" fill="none" stroke="#BD2026" stroke-width="0.2554" d="M6.1,172.1c46.5,38.9,103.4,65.7,159.2,81
		c33,9,65.7,12.3,99.2,10.8c53.3-2.2,104.5-15.1,156.2-31.8c32.7-10.5,65.6-22.6,98.4-35.9c65.1-26.4,129.8-56.4,196.6-78.8
		c28.1-9.4,62.2-19.9,96.8-26.3c54.3-10,105.2-4.4,138.5,25.1c18.9,16.7,36.7,31.8,56.3,47.8c10.3,8.4,21.4,16.5,34.2,24.2
		c45.8,28,111.9,34.5,169.9,34.5c11.6,0,23.2-0.1,34.7-0.7c8.3-0.4,16.7-1.1,25.8-1.7"/>
</g>
<g id="Layer_81">
	<path id="XMLID_32_" fill="none" stroke="#BD2026" stroke-width="0.2554" d="M5.9,176.2c46.5,39.3,104.2,65.8,160.3,80.7
		c33.3,8.8,66.2,11.7,99.8,9.8c53.4-2.9,104.7-16.7,156.5-34.1c32.7-10.9,65.6-23.3,98.5-36.9c65.2-27,130.2-57.4,197.2-80.1
		c27.9-9.5,62.4-20.4,97.2-26.9c54.7-10.4,105.8-4.9,138.3,26.2c18.1,17.3,35.1,33.2,54.1,49.8c9.9,8.7,20.7,17.2,33.3,25.3
		c45.2,29.3,112,35.9,170.1,36.1c11.7,0.1,23.3,0,34.9-0.5c8.4-0.4,16.8-1,25.9-1.6"/>
</g>
<g id="Layer_80">
	<path id="XMLID_31_" fill="none" stroke="#BD2026" stroke-width="0.2554" d="M5.7,180.3c46.6,39.7,105,65.9,161.4,80.4
		c33.6,8.6,66.7,11.1,100.4,8.7c53.6-3.6,104.9-18.2,156.8-36.3c32.8-11.4,65.7-24.1,98.7-38c65.4-27.5,130.6-58.3,197.9-81.4
		c27.8-9.6,62.5-20.8,97.6-27.6c55.1-10.7,106.5-5.4,138,27.3c17.4,18,33.6,34.6,51.8,51.9c9.6,9.1,20,17.9,32.4,26.4
		c44.6,30.7,112.2,37.3,170.4,37.7c11.7,0.1,23.4,0.1,35-0.4c8.4-0.4,16.9-0.9,26.1-1.5"/>
</g>
<g id="Layer_79">
	<path id="XMLID_30_" fill="none" stroke="#BD2026" stroke-width="0.2554" d="M5.5,184.4c46.6,40.1,105.8,66,162.6,80
		c33.9,8.4,67.2,10.5,100.9,7.7c53.7-4.3,105.1-19.8,157-38.5c32.8-11.8,65.8-24.9,98.8-39c65.6-28.1,131-59.2,198.6-82.8
		c27.7-9.7,62.7-21.2,98.1-28.2c55.5-11,107.1-6,137.8,28.4c16.6,18.7,32,35.9,49.5,53.9c9.2,9.5,19.4,18.6,31.6,27.5
		c43.9,32,112.3,38.7,170.7,39.4c11.8,0.1,23.5,0.2,35.2-0.3c8.5-0.3,17-0.8,26.2-1.4"/>
</g>
<g id="Layer_78">
	<path id="XMLID_29_" fill="none" stroke="#BD2026" stroke-width="0.2554" d="M5.3,188.5c46.6,40.5,106.6,66,163.7,79.7
		c34.2,8.2,67.7,9.9,101.5,6.8c53.9-5,105.3-21.3,157.3-40.7c32.8-12.2,65.9-25.7,99-40.1c65.7-28.7,131.4-60.2,199.2-84.1
		c27.6-9.7,62.9-21.6,98.5-28.9c55.9-11.4,107.8-6.5,137.5,29.5c15.9,19.3,30.4,37.3,47.3,56c8.8,9.8,18.7,19.3,30.7,28.6
		c43.3,33.3,112.4,40.1,171,41c11.9,0.2,23.6,0.3,35.4-0.1c8.5-0.3,17.1-0.8,26.4-1.2"/>
</g>
<g id="Layer_77">
	<path id="XMLID_28_" fill="none" stroke="#BD2026" stroke-width="0.2554" d="M5.1,192.7c46.7,40.9,107.4,66.1,164.8,79.4
		c34.6,8,68.2,9.3,102.1,5.8c54.1-5.6,105.4-22.9,157.5-43c32.9-12.6,66-26.4,99.2-41.1c65.9-29.3,131.9-61.1,199.9-85.5
		c27.5-9.8,63-22.1,98.9-29.5c56.3-11.9,108.5-7.1,137.2,30.7c15.2,19.9,28.9,38.7,45,58c8.5,10.2,18,20.1,29.8,29.7
		c42.7,34.7,112.6,41.5,171.3,42.6c11.9,0.2,23.7,0.3,35.6,0c8.6-0.2,17.2-0.7,26.5-1.1"/>
</g>
<g id="Layer_76">
	<path id="XMLID_27_" fill="none" stroke="#BD2026" stroke-width="0.2554" d="M4.9,196.8c46.7,41.2,108.2,66.2,166,79.1
		c34.9,7.8,68.7,8.8,102.6,4.7c54.2-6.3,105.6-24.4,157.8-45.2c32.9-13,66.1-27.2,99.3-42.2c66.1-29.8,132.2-62,200.5-86.8
		c27.4-9.9,63.2-22.5,99.4-30.1c56.7-12.2,109.3-7.7,137,31.8c14.4,20.6,27.3,40.1,42.7,60.1c8.1,10.5,17.4,20.8,29,30.7
		c42,36,112.7,42.9,171.6,44.2c12,0.2,23.9,0.4,35.8,0.1c8.6-0.2,17.3-0.6,26.6-1"/>
</g>
<g id="Layer_75">
	<path id="XMLID_26_" fill="none" stroke="#BD2026" stroke-width="0.2554" d="M4.7,200.9c46.8,41.6,109,66.3,167.1,78.8
		c35.2,7.6,69.2,8.2,103.2,3.7c54.4-7,105.8-25.9,158.1-47.4c32.9-13.5,66.2-28,99.5-43.2c66.2-30.4,132.6-62.9,201.2-88.1
		c27.3-10,63.4-22.9,99.8-30.8c57.1-12.5,110-8.3,136.7,32.9C984,128,996,148.2,1010.8,169c7.7,10.9,16.7,21.5,28.1,31.8
		c41.4,37.3,112.8,44.3,171.9,45.8c12.1,0.3,24,0.5,35.9,0.3c8.7-0.2,17.4-0.5,26.8-0.9"/>
</g>
<g id="Layer_74">
	<path id="XMLID_25_" fill="none" stroke="#BD2026" stroke-width="0.2554" d="M4.5,205c46.8,42,109.8,66.3,168.2,78.5
		c35.5,7.4,69.7,7.6,103.8,2.7c54.5-7.7,106-27.5,158.3-49.6c33-13.9,66.2-28.7,99.7-44.3c66.4-30.9,133.1-63.8,201.9-89.4
		c27.1-10.1,63.5-23.3,100.2-31.4c57.5-12.9,110.8-8.9,136.5,34c13.1,21.8,24.1,42.8,38.2,64.2c7.3,11.3,16,22.2,27.2,32.9
		c40.7,38.7,113,45.8,172.2,47.4c12.1,0.3,24.1,0.6,36.1,0.4c8.7-0.1,17.5-0.4,26.9-0.8"/>
</g>
<g id="Layer_73">
	<path id="XMLID_24_" fill="none" stroke="#BD2026" stroke-width="0.2554" d="M4.4,209.1c46.8,42.4,110.6,66.4,169.4,78.2
		c35.8,7.2,70.2,7,104.4,1.7c54.7-8.4,106.2-29,158.6-51.9c33-14.3,66.3-29.5,99.8-45.3c66.5-31.5,133.5-64.8,202.5-90.8
		c27-10.2,63.7-23.8,100.7-32.1c57.9-13.2,111.6-9.5,136.2,35.2c12.4,22.4,22.6,44.2,35.9,66.3c7,11.6,15.3,23,26.4,34
		c40.1,40,113.1,47.2,172.5,49c12.2,0.4,24.2,0.7,36.3,0.5c8.8-0.1,17.6-0.4,27-0.7"/>
</g>
<g id="Layer_72">
	<path id="XMLID_23_" fill="none" stroke="#BD2026" stroke-width="0.2554" d="M4.2,213.2C51.1,256,115.7,279.7,174.7,291
		c36.1,7,70.7,6.4,104.9,0.7c54.9-9,106.3-30.6,158.9-54.1c33-14.7,66.4-30.3,100-46.4c66.7-32,133.9-65.7,203.2-92.1
		c26.9-10.3,63.9-24.2,101.1-32.7c58.3-13.6,112.4-10.2,136,36.3c11.7,23,21,45.6,33.6,68.3c6.6,12,14.7,23.7,25.5,35.1
		c39.5,41.4,113.2,48.6,172.8,50.7c12.3,0.4,24.3,0.9,36.5,0.7c8.8-0.2,17.7-0.3,27.2-0.6"/>
</g>
<g id="Layer_71">
	<path id="XMLID_22_" fill="none" stroke="#BD2026" stroke-width="0.2554" d="M4,217.3c46.9,43.2,112.3,66.5,171.6,77.5
		c36.4,6.7,71.2,5.8,105.5-0.3c55-9.7,106.5-32.1,159.1-56.3c33.1-15.2,66.5-31.1,100.1-47.4c66.9-32.6,134.3-66.6,203.9-93.4
		c26.8-10.3,64.1-24.6,101.5-33.3c58.7-13.9,113.2-10.8,135.7,37.4c11,23.6,19.4,46.9,31.4,70.4c6.2,12.4,14,24.4,24.7,36.1
		c38.8,42.7,113.4,50,173.1,52.3c12.3,0.4,24.5,1,36.6,0.8c8.9-0.1,17.8-0.2,27.3-0.5"/>
</g>
<g id="Layer_70">
	<path id="XMLID_21_" fill="none" stroke="#BD2026" stroke-width="0.2554" d="M3.8,221.4c47,43.6,113.1,66.6,172.8,77.2
		c36.8,6.5,71.7,5.2,106.1-1.3c55.2-10.4,106.7-33.7,159.4-58.5c33.1-15.6,66.6-31.8,100.3-48.5c67-33.2,134.7-67.5,204.5-94.8
		c26.7-10.4,64.2-25,102-34C908,47.3,963,50.1,984.4,100c10.4,24.2,17.8,48.3,29.1,72.4c5.9,12.7,13.3,25.1,23.8,37.2
		c38.2,44,113.5,51.4,173.3,53.9c12.4,0.5,24.6,1,36.8,0.9c8.9-0.1,17.9-0.1,27.4-0.3"/>
</g>
<g id="Layer_69">
	<path id="XMLID_20_" fill="none" stroke="#BD2026" stroke-width="0.2554" d="M3.6,225.5c47,44,113.9,66.7,173.9,76.9
		c37.1,6.3,72.2,4.7,106.7-2.3c55.3-11.1,106.9-35.2,159.7-60.8c33.1-16,66.7-32.6,100.5-49.5c67.2-33.7,135.1-68.4,205.2-96.1
		C776.2,83.2,814,68.3,852,59.1C911.5,44.5,966.9,47,987.2,98.7c9.7,24.8,16.3,49.7,26.8,74.5c5.5,13.1,12.6,25.9,22.9,38.3
		c37.5,45.4,113.6,52.8,173.6,55.5c12.5,0.5,24.7,1,37,1.1c9,0.1,18-0.1,27.6-0.2"/>
</g>
<g id="Layer_68">
	<path id="XMLID_19_" fill="none" stroke="#BD2026" stroke-width="0.2554" d="M3.4,229.6c47,44.3,114.7,66.7,175,76.6
		c37.4,6.1,72.6,4.1,107.2-3.3c55.5-11.8,107.1-36.8,159.9-63c33.2-16.4,66.7-33.4,100.6-50.6C613.5,155,681.7,120,752,91.9
		c26.5-10.6,64.6-25.8,102.8-35.3c59.9-14.9,115.8-12.7,135,40.8c9.1,25.4,14.7,51,24.6,76.5c5.2,13.4,12,26.6,22.1,39.4
		c36.9,46.7,113.8,54.2,173.9,57.1c12.5,0.6,24.8,1.1,37.2,1.2c9,0.1,18.1,0,27.7-0.1"/>
</g>
<g id="Layer_67">
	<path id="XMLID_18_" fill="none" stroke="#BD2026" stroke-width="0.2554" d="M3.2,233.7c47.1,44.7,115.5,66.8,176.2,76.3
		c37.7,5.9,73.1,3.5,107.8-4.3c55.7-12.4,107.2-38.3,160.2-65.2c33.2-16.9,66.8-34.1,100.8-51.6c67.5-34.9,136-70.2,206.5-98.8
		c26.4-10.7,64.7-26.2,103.3-35.9c60.3-15.3,116.8-13.3,134.7,41.9c8.5,26.1,13.1,52.4,22.3,78.6c4.8,13.8,11.3,27.3,21.2,40.5
		c36.2,48.1,113.9,55.6,174.2,58.7c12.6,0.6,24.9,1.1,37.4,1.3c9.1,0.1,18.2,0.1,27.9,0"/>
</g>
<g id="Layer_66">
	<path id="XMLID_17_" fill="none" stroke="#BD2026" stroke-width="0.2554" d="M3,237.8c47.1,45.1,116.3,66.9,177.3,75.9
		c38,5.7,73.6,2.9,108.4-5.3c55.8-13.1,107.4-39.9,160.5-67.4c33.2-17.3,66.9-34.9,100.9-52.7c67.7-35.4,136.4-71.1,207.2-100.1
		c26.3-10.8,64.9-26.7,103.7-36.5c60.8-15.6,117.7-14,134.5,43c7.8,26.7,11.6,53.8,20,80.6c4.4,14.2,10.6,28,20.3,41.5
		c35.5,49.4,114,57.2,174.5,60.3c12.6,0.7,25.1,1.2,37.5,1.4c9.1,0.2,18.3,0.2,28,0.1"/>
</g>
<g id="Layer_65">
	<path id="XMLID_16_" fill="none" stroke="#BD2026" stroke-width="0.2554" d="M2.9,241.9c47.2,45.5,117.1,66.9,178.4,75.6
		c38.3,5.5,74.1,2.3,109-6.3c56-13.8,107.6-41.4,160.7-69.7c33.2-17.7,67-35.7,101.1-53.7c67.9-36,136.8-72,207.9-101.4
		c26.1-10.8,65.1-27.1,104.1-37.2c61.2-16,118.6-14.6,134.2,44.1c7.2,27.3,10,55.2,17.8,82.7c4.1,14.5,9.9,28.8,19.5,42.6
		c34.9,50.8,114.2,58.6,174.8,62c12.7,0.7,25.2,1.3,37.7,1.6c9.2,0.2,18.4,0.3,28.1,0.2"/>
</g>
<g id="Layer_64">
	<path id="XMLID_15_" fill="none" stroke="#BD2026" stroke-width="0.2554" d="M2.7,246c47.2,45.9,117.9,67,179.6,75.3
		c38.6,5.2,74.6,1.7,109.5-7.3c56.2-14.5,107.8-42.9,161-71.9c33.3-18.1,67.1-36.4,101.3-54.8c68-36.5,137.2-72.9,208.5-102.8
		c26-10.9,65.2-27.5,104.6-37.8c61.6-16.3,119.6-15.2,133.9,45.2c6.6,27.9,8.4,56.5,15.5,84.8c3.7,14.9,9.3,29.5,18.6,43.7
		c34.2,52.1,114.3,60,175.1,63.6c12.8,0.7,25.3,1.4,37.9,1.7c9.3,0.2,18.5,0.3,28.3,0.3"/>
</g>
<g id="Layer_63">
	<path id="XMLID_14_" fill="none" stroke="#BD2026" stroke-width="0.2554" d="M2.5,250.1c47.2,46.3,118.7,67,180.7,75
		c39,5,75.1,1.1,110.1-8.3c56.3-15.2,108-44.5,161.3-74.1c33.3-18.5,67.2-37.2,101.4-55.8c68.2-37.1,137.7-73.8,209.2-104.1
		c25.9-11,65.4-27.9,105-38.5c62-16.6,120.6-15.8,133.7,46.4c6,28.6,6.9,57.9,13.2,86.8c3.3,15.2,8.6,30.2,17.7,44.8
		c33.6,53.5,114.4,61.5,175.4,65.2c12.8,0.8,25.4,1.5,38.1,1.8c9.3,0.3,18.6,0.4,28.4,0.4"/>
</g>
<g id="Layer_62">
	<path id="XMLID_13_" fill="none" stroke="#BD2026" stroke-width="0.2554" d="M2.3,254.2c47.3,46.6,119.5,67.1,181.8,74.7
		c39.3,4.8,75.6,0.6,110.7-9.3c56.5-15.9,108.1-46,161.5-76.3c33.3-19,67.3-38,101.6-56.9C626.2,148.7,696,111.7,767.8,81
		c25.8-11.1,65.6-28.3,105.4-39.1c62.4-17,121.6-16.4,133.4,47.5c5.4,29.2,5.3,59.3,11,88.9c3,15.6,7.9,30.9,16.9,45.9
		c32.9,54.8,114.6,62.9,175.7,66.8c12.9,0.8,25.6,1.5,38.2,2c9.4,0.3,18.7,0.5,28.5,0.6"/>
</g>
<g id="Layer_61">
	<path id="XMLID_12_" fill="none" stroke="#BD2026" stroke-width="0.2554" d="M2.1,258.3c47.3,47,120.3,67.1,183,74.4
		c39.6,4.6,76.1,0,111.2-10.3c56.6-16.5,108.3-47.6,161.8-78.6c33.4-19.4,67.3-38.8,101.7-57.9c68.5-38.2,138.5-75.6,210.5-106.8
		C796,68,836.1,50.4,876.2,39.4c62.8-17.3,122.6-17,133.2,48.6c4.8,29.8,3.7,60.6,8.7,90.9c2.6,16,7.2,31.7,16,46.9
		c32.3,56.1,114.7,64.3,175.9,68.4c13,0.9,25.7,1.6,38.4,2.1c9.4,0.4,18.8,0.6,28.7,0.7"/>
</g>
<g id="Layer_60">
	<path id="XMLID_11_" fill="none" stroke="#BD2026" stroke-width="0.2554" d="M1.9,262.4C49.3,309.8,123,329.6,186,336.5
		c39.9,4.4,76.6-0.6,111.8-11.3c56.8-17.2,108.5-49.1,162.1-80.8c33.4-19.8,67.4-39.5,101.9-59c68.7-38.8,139-76.4,211.2-108.1
		c25.6-11.2,65.9-29.1,106.3-40.4c63.2-17.7,123.6-17.5,132.9,49.7c4.2,30.5,2.1,62,6.4,93c2.2,16.3,6.6,32.4,15.1,48
		c31.6,57.5,114.8,65.7,176.2,70c13,0.9,25.8,1.7,38.6,2.2c9.5,0.4,18.9,0.7,28.8,0.8"/>
</g>
<g id="Layer_59">
	<path id="XMLID_10_" fill="none" stroke="#BD2026" stroke-width="0.2554" d="M1.7,266.5c47.4,47.8,121.9,67.2,185.2,73.7
		c40.2,4.1,77.1-1.2,112.4-12.3c57-17.9,108.7-50.7,162.3-83c33.4-20.2,67.5-40.3,102.1-60c68.8-39.3,139.4-77.3,211.9-109.4
		c25.5-11.3,66.1-29.6,106.7-41c63.6-18,124.6-18.1,132.7,50.9c3.6,31.1,0.6,63.4,4.2,95c1.9,16.7,5.9,33.1,14.3,49.1
		c30.9,58.8,114.9,67.2,176.5,71.7c13.1,1,25.9,1.8,38.8,2.4c9.5,0.4,19.1,0.7,29,0.9"/>
</g>
<g id="Layer_58">
	<path id="XMLID_9_" fill="none" stroke="#BD2026" stroke-width="0.2554" d="M1.5,270.6c47.4,48.2,122.8,67.3,186.4,73.4
		c40.5,3.9,77.6-1.8,113-13.3c57.1-18.6,108.9-52.2,162.6-85.2c33.5-20.7,67.6-41.1,102.2-61.1c69-39.9,139.8-78.2,212.5-110.8
		c25.4-11.4,66.3-30,107.2-41.7c64-18.4,125.6-18.7,132.4,52c3.1,31.8-1,64.7,1.9,97.1c1.5,17,5.2,33.8,13.4,50.2
		c30.3,60.2,115.1,68.6,176.8,73.3c13.2,1,26,1.9,39,2.5c9.6,0.5,19.2,0.8,29.1,1"/>
</g>
<g id="Layer_57">
	<path id="XMLID_8_" fill="none" stroke="#BD2026" stroke-width="0.2554" d="M1.3,274.7c47.5,48.6,123.6,67.3,187.5,73.1
		c40.9,3.7,78.1-2.4,113.5-14.3c57.3-19.3,109.1-53.8,162.9-87.5c33.5-21.1,67.7-41.8,102.4-62.1c69.2-40.5,140.2-79.1,213.2-112.1
		c25.3-11.4,66.4-30.4,107.6-42.3c64.4-18.7,126.7-19.2,132.2,53.1c2.5,32.4-2.6,66.1-0.4,99.1c1.1,17.4,4.5,34.6,12.6,51.3
		c29.5,61.6,115.2,70,177.1,74.9c13.2,1,26.2,1.9,39.1,2.6c9.6,0.5,19.3,0.9,29.2,1.1"/>
</g>
<g id="Layer_56">
	<path id="XMLID_7_" fill="none" stroke="#BD2026" stroke-width="0.2554" d="M1.2,278.8c47.5,49,124.4,67.4,188.6,72.8
		c41.2,3.5,78.6-3,114.1-15.3c57.4-20,109.2-55.3,163.1-89.7c33.5-21.5,67.8-42.6,102.6-63.2c69.3-41,140.7-80,213.8-113.4
		c25.2-11.5,66.6-30.8,108-42.9c64.8-19,127.7-19.8,131.9,54.2c1.9,33.1-4.1,67.5-2.7,101.2c0.8,17.8,3.8,35.3,11.7,52.4
		c28.9,62.9,115.3,71.4,177.4,76.5c13.3,1.1,26.3,2,39.3,2.8c9.7,0.5,19.4,1,29.4,1.2"/>
</g>
<g id="Layer_55">
	<path id="XMLID_6_" fill="none" stroke="#BD2026" stroke-width="0.2554" d="M1,282.9c47.6,49.3,125.2,67.4,189.8,72.5
		c41.5,3.2,79.1-3.5,114.7-16.3c57.6-20.6,109.4-56.9,163.4-91.9c33.6-21.9,67.8-43.4,102.7-64.2c69.5-41.6,141.1-80.8,214.5-114.8
		c25.1-11.6,66.8-31.2,108.5-43.6c65.2-19.4,128.7-20.3,131.7,55.3c1.3,33.8-5.7,68.9-4.9,103.3c0.4,18.1,3.1,36,10.8,53.4
		c28.2,64.2,115.5,72.9,177.7,78.1c13.3,1.1,26.4,2.1,39.5,2.9c9.7,0.6,19.5,1.1,29.5,1.3"/>
</g>
<g id="Layer_54">
	<path id="XMLID_5_" fill="none" stroke="#BD2026" stroke-width="0.2554" d="M0.8,287c47.6,49.7,126,67.5,190.9,72.2
		c41.8,3,79.6-4.1,115.3-17.3c57.8-21.3,109.6-58.4,163.7-94.2c33.6-22.3,67.9-44.1,102.9-65.3c69.7-42.2,141.6-81.7,215.2-116.1
		c25-11.7,66.9-31.6,108.9-44.2c65.6-19.7,129.8-20.8,131.4,56.5c0.7,34.4-7.3,70.2-7.2,105.3c0,18.5,2.5,36.7,10,54.5
		c27.6,65.6,115.6,74.3,178,79.7c13.4,1.2,26.5,2.2,39.7,3c9.8,0.6,19.6,1.1,29.6,1.5"/>
</g>
<g id="Layer_53">
	<path id="XMLID_4_" fill="none" stroke="#BD2026" stroke-width="0.2554" d="M0.6,291.1c47.6,50.1,126.8,67.4,192,71.8
		c42.1,2.7,80.1-4.7,115.8-18.3c57.9-22,109.8-60,163.9-96.4c33.6-22.8,68-44.9,103-66.3c69.8-42.7,142-82.6,215.8-117.4
		c24.9-11.7,67.1-32,109.3-44.9c66-20.1,130.8-21.4,131.2,57.6c0.1,35.1-8.8,71.6-9.5,107.4c-0.3,18.8,1.8,37.5,9.1,55.6
		c26.9,66.9,115.7,75.7,178.3,81.3c13.5,1.2,26.6,2.3,39.8,3.2c9.8,0.7,19.7,1.2,29.8,1.6"/>
</g>
<g id="Layer_52">
	<path id="XMLID_3_" fill="none" stroke="#BD2026" stroke-width="0.2554" d="M0.4,295.2c47.7,50.5,127.6,67.5,193.2,71.5
		c42.4,2.5,80.6-5.3,116.4-19.3c58.1-22.7,110-61.5,164.2-98.6c33.6-23.2,68.1-45.7,103.2-67.4c70-43.3,142.4-83.4,216.5-118.8
		c24.8-11.8,67.3-32.5,109.8-45.5c66.4-20.4,131.9-21.9,130.9,58.7c-0.4,35.8-10.4,73-11.7,109.4c-0.7,19.2,1.1,38.2,8.2,56.7
		c26.3,68.2,115.9,77.2,178.6,82.9c13.5,1.2,26.8,2.3,40,3.3c9.9,0.7,19.8,1.3,29.9,1.7"/>
</g>
<g id="Layer_51">
	<path id="XMLID_2_" fill="none" stroke="#BD2026" stroke-width="0.2554" d="M0.2,299.3c47.7,50.9,128.4,67.6,194.3,71.2
		c42.7,2.3,81.1-5.9,117-20.3c58.2-23.4,110.1-63,164.5-100.8c33.7-23.6,68.2-46.5,103.4-68.4c70.1-43.8,142.9-84.2,217.2-120.1
		c24.7-11.8,67.5-32.9,110.2-46.1c66.9-20.7,132.9-22.4,130.6,59.8c-1,36.5-12,74.3-14,111.5c-1.1,19.6,0.4,38.9,7.4,57.8
		c25.6,69.6,116,78.6,178.8,84.6c13.6,1.3,26.9,2.4,40.2,3.4c9.9,0.7,19.9,1.4,30,1.8"/>
</g>
<g id="Layer_50">
	<path id="XMLID_1_" fill="none" stroke="#BD2026" stroke-width="0.2554" d="M0,303.4c47.8,51.3,129.2,67.6,195.4,70.9
		c112.9,5.5,194.3-62.2,282.3-124.4c101-72,209.5-136.4,321.4-190.9c63-30.5,247.5-123.3,241,14.2c-2.2,56.7-29.3,116.7-9.8,172.4
		c25,70.9,116.2,79.6,179.1,86.2c23.9,2.2,46.7,4.4,70.6,5.5"/>
</g>
</svg>
