<?xml version="1.0" encoding="utf-8"?>
<!-- Generator: Adobe Illustrator 16.0.0, SVG Export Plug-In . SVG Version: 6.00 Build 0)  -->
<!DOCTYPE svg PUBLIC "-//W3C//DTD SVG 1.1//EN" "http://www.w3.org/Graphics/SVG/1.1/DTD/svg11.dtd">
<svg version="1.1" xmlns="http://www.w3.org/2000/svg" xmlns:xlink="http://www.w3.org/1999/xlink" x="0px" y="0px" width="1280px"
	 height="374.6px" viewBox="0 0 1280 374.6" enable-background="new 0 0 1280 374.6" xml:space="preserve">
<g id="Layer_1">
	<g>
		<g id="Layer_91">
			<path id="XMLID_42_" fill="none" stroke="#BD2026" d="M7.7,135.2c46.1,35.5,96.2,64.9,149,83.8c30.2,10.8,61.3,17.4,94.1,19.8
				c51.8,3.7,102.9-1.2,153.8-11.8c32.4-6.7,64.8-15.6,96.9-26.4c63.6-21.4,126.1-48,190.6-66.8c29.1-8.5,60.7-16.2,92.9-20.5
				c50.6-6.9,99.3-0.9,140.8,15c25.8,9.9,50.8,19.5,76.7,29.3c13.6,5.1,27.4,10,41.9,14.5c51.6,16.1,110.7,21.8,167.2,20
				c11-0.3,22.1-0.8,33.1-1.8c7.9-0.8,15.7-1.8,24.6-2.7"/>
		</g>
		<g id="Layer_90">
			<path id="XMLID_41_" fill="none" stroke="#BD2026" d="M7.6,139.3c46.1,35.9,97,65,150.1,83.5c30.5,10.6,61.8,16.8,94.6,18.8
				c52,3.1,103.1-2.8,154.1-14c32.5-7.1,64.9-16.4,97.1-27.5c63.8-21.9,126.5-48.9,191.2-68.1c29-8.6,60.8-16.6,93.3-21.2
				c51-7.2,100-1.2,140.6,16.1c25,10.7,49.2,20.9,74.5,31.3c13.2,5.5,26.8,10.7,41.1,15.6c50.9,17.4,110.8,23.2,167.5,21.6
				c11.1-0.3,22.2-0.7,33.3-1.7c7.9-0.7,15.8-1.7,24.7-2.6"/>
		</g>
		<g id="Layer_89">
			<path id="XMLID_40_" fill="none" stroke="#BD2026" d="M7.4,143.4c46.2,36.2,97.8,65.1,151.2,83.2c30.8,10.4,62.3,16.3,95.2,17.8
				c52.1,2.4,103.3-4.3,154.4-16.2c32.5-7.6,65-17.2,97.2-28.5c63.9-22.5,126.9-49.9,191.9-69.4c28.9-8.7,61-17,93.7-21.8
				c51.4-7.6,100.6-1.6,140.3,17.2c24.3,11.5,47.7,22.3,72.2,33.4c12.8,5.9,26.1,11.4,40.2,16.7c50.3,18.8,111,24.6,167.8,23.2
				c11.2-0.3,22.3-0.6,33.5-1.6c8-0.7,15.9-1.6,24.8-2.5"/>
		</g>
	</g>
</g>
<g id="Commons" display="none">
	<g display="inline">
		<g id="Layer_60">
			<path id="XMLID_11_" fill="none" stroke="#BD2026" d="M1.9,262.4C49.3,309.8,123,329.6,186,336.5c39.9,4.4,76.6-0.6,111.8-11.3
				c56.8-17.2,108.5-49.1,162.1-80.8c33.4-19.8,67.4-39.5,101.9-59c68.7-38.8,139-76.4,211.2-108.1c25.6-11.2,65.9-29.1,106.3-40.4
				c63.2-17.7,123.6-17.5,132.9,49.7c4.2,30.5,2.1,62,6.4,93c2.2,16.3,6.6,32.4,15.1,48c31.6,57.5,114.8,65.7,176.2,70
				c13,0.9,25.8,1.7,38.6,2.2c9.5,0.4,18.9,0.7,28.8,0.8"/>
		</g>
		<g id="Layer_56">
			<path id="XMLID_7_" fill="none" stroke="#BD2026" d="M1.2,278.8c47.5,49,124.4,67.4,188.6,72.8c41.2,3.5,78.6-3,114.1-15.3
				c57.4-20,109.2-55.3,163.1-89.7c33.5-21.5,67.8-42.6,102.6-63.2c69.3-41,140.7-80,213.8-113.4c25.2-11.5,66.6-30.8,108-42.9
				c64.8-19,127.7-19.8,131.9,54.2c1.9,33.1-4.1,67.5-2.7,101.2c0.8,17.8,3.8,35.3,11.7,52.4c28.9,62.9,115.3,71.4,177.4,76.5
				c13.3,1.1,26.3,2,39.3,2.8c9.7,0.5,19.4,1,29.4,1.2"/>
		</g>
		<g id="Layer_52">
			<path id="XMLID_3_" fill="none" stroke="#BD2026" d="M0.4,295.2c47.7,50.5,127.6,67.5,193.2,71.5c42.4,2.5,80.6-5.3,116.4-19.3
				c58.1-22.7,110-61.5,164.2-98.6c33.6-23.2,68.1-45.7,103.2-67.4c70-43.3,142.4-83.4,216.5-118.8c24.8-11.8,67.3-32.5,109.8-45.5
				c66.4-20.4,131.9-21.9,130.9,58.7c-0.4,35.8-10.4,73-11.7,109.4c-0.7,19.2,1.1,38.2,8.2,56.7c26.3,68.2,115.9,77.2,178.6,82.9
				c13.5,1.2,26.8,2.3,40,3.3c9.9,0.7,19.8,1.3,29.9,1.7"/>
		</g>
		<g id="Layer_96">
			<path id="XMLID_47_" fill="none" stroke="#BD2026" d="M8.7,114.7c71.7,52.4,144.4,98.2,234.5,110.2c83.6,12,167.2,2.2,248.6-21.8
				c92.3-27.3,181.3-67.6,277.9-77.5c79.3-8.7,154.2,12,230.2,28.4c80.3,17.5,161.8,27.3,244.3,18.5c7.6-1.1,15.2-2.2,23.9-3.3"/>
		</g>
		<g id="Layer_92">
			<path id="XMLID_43_" fill="none" stroke="#BD2026" d="M7.9,131.1c46.1,35.1,95.4,64.8,147.8,84.1c29.9,11,60.8,18,93.5,20.8
				c51.7,4.4,102.7,0.3,153.6-9.6c32.4-6.3,64.7-14.9,96.8-25.4c63.4-20.8,125.7-47,189.9-65.4c29.2-8.4,60.5-15.8,92.4-19.9
				c50.2-6.5,98.5-0.7,141.1,13.8c26.5,9,52.4,18.2,79,27.2c13.9,4.8,28.1,9.3,42.8,13.4c52.2,14.8,110.6,20.3,167,18.4
				c11-0.4,21.9-0.8,32.9-2c7.8-0.8,15.6-1.9,24.4-2.8"/>
		</g>
		<g id="Layer_88">
			<path id="XMLID_39_" fill="none" stroke="#BD2026" d="M7.2,147.5c46.2,36.6,98.6,65.2,152.4,82.9c31.1,10.2,62.8,15.7,95.8,16.8
				c52.3,1.7,103.4-5.8,154.6-18.5c32.5-8,65-18,97.4-29.6c64.1-23.1,127.3-50.8,192.6-70.8c28.8-8.8,61.2-17.4,94.2-22.5
				c51.8-7.9,101.3-1.9,140,18.3c23.5,12.3,46.1,23.6,69.9,35.4c12.5,6.2,25.4,12.1,39.3,17.8c49.7,20.1,111.1,26,168.1,24.8
				c11.2-0.2,22.4-0.5,33.6-1.4c8-0.7,16-1.6,25-2.4"/>
		</g>
		<g id="Layer_84">
			<path id="XMLID_35_" fill="none" stroke="#BD2026" d="M6.4,163.9c46.4,38.2,101.8,65.6,156.9,81.6c32.4,9.4,64.7,13.4,98.1,12.8
				c52.9-1,104.2-12,155.7-27.4c32.7-9.7,65.4-21,98-33.8c64.7-25.3,128.9-54.6,195.2-76.1c28.3-9.2,61.9-19.1,95.9-25
				c53.5-9.3,103.9-3.5,139,22.8c20.4,15.3,39.9,29.1,60.9,43.7c11,7.6,22.7,15,35.9,22.1c47.1,25.3,111.6,31.6,169.3,31.3
				c11.5-0.1,22.9-0.2,34.3-0.9c8.2-0.5,16.5-1.2,25.5-1.9"/>
		</g>
		<g id="Layer_80">
			<path id="XMLID_31_" fill="none" stroke="#BD2026" d="M5.7,180.3c46.6,39.7,105,65.9,161.4,80.4c33.6,8.6,66.7,11.1,100.4,8.7
				c53.6-3.6,104.9-18.2,156.8-36.3c32.8-11.4,65.7-24.1,98.7-38c65.4-27.5,130.6-58.3,197.9-81.4c27.8-9.6,62.5-20.8,97.6-27.6
				c55.1-10.7,106.5-5.4,138,27.3c17.4,18,33.6,34.6,51.8,51.9c9.6,9.1,20,17.9,32.4,26.4c44.6,30.7,112.2,37.3,170.4,37.7
				c11.7,0.1,23.4,0.1,35-0.4c8.4-0.4,16.9-0.9,26.1-1.5"/>
		</g>
		<g id="Layer_76">
			<path id="XMLID_27_" fill="none" stroke="#BD2026" d="M4.9,196.8c46.7,41.2,108.2,66.2,166,79.1c34.9,7.8,68.7,8.8,102.6,4.7
				c54.2-6.3,105.6-24.4,157.8-45.2c32.9-13,66.1-27.2,99.3-42.2c66.1-29.8,132.2-62,200.5-86.8c27.4-9.9,63.2-22.5,99.4-30.1
				c56.7-12.2,109.3-7.7,137,31.8c14.4,20.6,27.3,40.1,42.7,60.1c8.1,10.5,17.4,20.8,29,30.7c42,36,112.7,42.9,171.6,44.2
				c12,0.2,23.9,0.4,35.8,0.1c8.6-0.2,17.3-0.6,26.6-1"/>
		</g>
		<g id="Layer_72">
			<path id="XMLID_23_" fill="none" stroke="#BD2026" d="M4.2,213.2C51.1,256,115.7,279.7,174.7,291c36.1,7,70.7,6.4,104.9,0.7
				c54.9-9,106.3-30.6,158.9-54.1c33-14.7,66.4-30.3,100-46.4c66.7-32,133.9-65.7,203.2-92.1c26.9-10.3,63.9-24.2,101.1-32.7
				c58.3-13.6,112.4-10.2,136,36.3c11.7,23,21,45.6,33.6,68.3c6.6,12,14.7,23.7,25.5,35.1c39.5,41.4,113.2,48.6,172.8,50.7
				c12.3,0.4,24.3,0.9,36.5,0.7c8.8-0.2,17.7-0.3,27.2-0.6"/>
		</g>
		<g id="Layer_68">
			<path id="XMLID_19_" fill="none" stroke="#BD2026" d="M3.4,229.6c47,44.3,114.7,66.7,175,76.6c37.4,6.1,72.6,4.1,107.2-3.3
				c55.5-11.8,107.1-36.8,159.9-63c33.2-16.4,66.7-33.4,100.6-50.6C613.5,155,681.7,120,752,91.9c26.5-10.6,64.6-25.8,102.8-35.3
				c59.9-14.9,115.8-12.7,135,40.8c9.1,25.4,14.7,51,24.6,76.5c5.2,13.4,12,26.6,22.1,39.4c36.9,46.7,113.8,54.2,173.9,57.1
				c12.5,0.6,24.8,1.1,37.2,1.2c9,0.1,18.1,0,27.7-0.1"/>
		</g>
		<g id="Layer_64">
			<path id="XMLID_15_" fill="none" stroke="#BD2026" d="M2.7,246c47.2,45.9,117.9,67,179.6,75.3c38.6,5.2,74.6,1.7,109.5-7.3
				c56.2-14.5,107.8-42.9,161-71.9c33.3-18.1,67.1-36.4,101.3-54.8c68-36.5,137.2-72.9,208.5-102.8c26-10.9,65.2-27.5,104.6-37.8
				c61.6-16.3,119.6-15.2,133.9,45.2c6.6,27.9,8.4,56.5,15.5,84.8c3.7,14.9,9.3,29.5,18.6,43.7c34.2,52.1,114.3,60,175.1,63.6
				c12.8,0.7,25.3,1.4,37.9,1.7c9.3,0.2,18.5,0.3,28.3,0.3"/>
		</g>
	</g>
</g>
</svg>
