<?xml version="1.0" encoding="utf-8"?>
<!-- Generator: Adobe Illustrator 16.0.0, SVG Export Plug-In . SVG Version: 6.00 Build 0)  -->
<!DOCTYPE svg PUBLIC "-//W3C//DTD SVG 1.1//EN" "http://www.w3.org/Graphics/SVG/1.1/DTD/svg11.dtd">
<svg version="1.1" id="Blue" xmlns="http://www.w3.org/2000/svg" xmlns:xlink="http://www.w3.org/1999/xlink" x="0px" y="0px"
	 width="1920px" height="820.5px" viewBox="0 -17.7 1920 820.5" enable-background="new 0 -17.7 1920 820.5" xml:space="preserve">
<g id="Layer_23">
	<path fill="none" stroke="#89D5F3" d="M1.2,693.7c30.3,25.4,62.3,47.8,102.7,53.4c33.2,4.8,62.6-5.1,89.8-30.5
		c36.5-34.1,59.6-87.4,90.8-133.3c31.4-45.8,64.1-71.9,94.8-86.8c87.9-42.7,168.5-134.3,260.3-218
		c54.4-49.7,120.2-104.9,184.5-123.7c67.6-19.8,120.6-1.8,161.2,55.1c6.9,9.7,12.6,19.9,17.3,30.1c23.9,52,29.5,113.5,39.3,166.8
		c9.8,53.1,24.6,104,53.2,145c24.2,34.7,58.3,62.2,108.7,74c13.9,3.3,28,6.2,42.6,7.6c73.4,7.1,149.5-25,216-57.6
		c80.3-39.4,155.2-89.2,231.4-135.7c72-43.9,145.1-85.4,219.4-125.4"/>
</g>
</svg>
