<?xml version="1.0" encoding="utf-8"?>
<!-- Generator: Adobe Illustrator 16.0.0, SVG Export Plug-In . SVG Version: 6.00 Build 0)  -->
<!DOCTYPE svg PUBLIC "-//W3C//DTD SVG 1.1//EN" "http://www.w3.org/Graphics/SVG/1.1/DTD/svg11.dtd">
<svg version="1.1" id="Layer_33" xmlns="http://www.w3.org/2000/svg" xmlns:xlink="http://www.w3.org/1999/xlink" x="0px" y="0px"
	 width="1920px" height="820.5px" viewBox="0 -17.7 1920 820.5" enable-background="new 0 -17.7 1920 820.5" xml:space="preserve">
<path fill="none" stroke="#89D5F3" d="M1.2,666.5C28.5,700.3,60,727.3,105,736.5c37.2,7.8,69.8-1.4,99.2-24.8
	c41.3-32.8,70.4-88.1,101.1-140.2c30.5-51.5,58.7-92.5,84.1-118c71.4-71.3,143.4-171.3,234.8-254.7c53-48.3,123.6-103.1,191.4-112.5
	c70.4-9.8,108.6,34.4,136.7,94.6c4.9,10.5,8.9,21,12.4,31.2c18.2,53.1,28,109.3,42.7,159.8c14.1,48.5,32.8,95.1,61.8,135.9
	c24.1,33.9,55.1,65,97.8,83.4c12.8,5.5,25.8,10.6,39.6,14c70.2,17.2,144.9-14.2,208.4-46.3c88.9-44.9,170.5-103.5,254.3-156.9
	c79.2-50.5,160.3-97.1,243-141.7"/>
</svg>
