<?xml version="1.0" encoding="utf-8"?>
<!-- Generator: Adobe Illustrator 16.0.0, SVG Export Plug-In . SVG Version: 6.00 Build 0)  -->
<!DOCTYPE svg PUBLIC "-//W3C//DTD SVG 1.1//EN" "http://www.w3.org/Graphics/SVG/1.1/DTD/svg11.dtd">
<svg version="1.1" id="Blue" xmlns="http://www.w3.org/2000/svg" xmlns:xlink="http://www.w3.org/1999/xlink" x="0px" y="0px"
	 width="1920px" height="820.5px" viewBox="0 -17.7 1920 820.5" enable-background="new 0 -17.7 1920 820.5" xml:space="preserve">
<g id="Layer_14">
	<path fill="none" stroke="#89D5F3" d="M1.2,718.3c33,17.9,65.3,36,101.7,38.5c29.6,2,56.2-8.3,81.3-35.7
		c32.3-35.2,49.9-86.8,81.6-127.2c32.2-40.7,69.1-53.1,104.4-58.7c103.1-16.4,191.1-100.9,283.2-185.1
		c55.7-50.9,117.1-106.6,178.3-133.7c65.1-28.9,131.2-34.3,183.3,19.5c8.7,9,15.9,18.9,21.7,29.2c28.9,51.1,30.6,117.3,36.3,173
		c5.9,57.3,17.2,112.1,45.4,153.3c24.3,35.5,61.1,60.2,118.5,65.5c15,1.4,30,2.3,45.3,1.9c76.4-1.9,153.7-34.8,223-67.8
		c72.6-34.5,141.4-76.4,210.8-116.5c65.5-37.9,131.4-74.8,198.1-110.7"/>
</g>
</svg>
