<?xml version="1.0" encoding="utf-8"?>
<!-- Generator: Adobe Illustrator 16.0.0, SVG Export Plug-In . SVG Version: 6.00 Build 0)  -->
<!DOCTYPE svg PUBLIC "-//W3C//DTD SVG 1.1//EN" "http://www.w3.org/Graphics/SVG/1.1/DTD/svg11.dtd">
<svg version="1.1" id="Blue" xmlns="http://www.w3.org/2000/svg" xmlns:xlink="http://www.w3.org/1999/xlink" x="0px" y="0px"
	 width="1920px" height="820.5px" viewBox="0 -17.7 1920 820.5" enable-background="new 0 -17.7 1920 820.5" xml:space="preserve">
<g id="Layer_4">
	<path fill="none" stroke="#89D5F3" d="M1.2,745.6c36,9.4,68.8,23,100.5,21.8c25.5-0.9,49.1-11.8,71.9-41.4
		c27.9-36.3,39.1-86.2,71.3-120.3c33.1-35,74.6-32,115.1-27.5c119.6,13.4,216.2-63.8,308.6-148.4c57.1-52.3,113.6-108.6,171.4-144.9
		c62.1-39.1,142.8-70.1,207.9-20c10.7,8.3,19.5,17.8,26.6,28.2c34.2,50.2,31.6,121.5,33,179.9c1.2,61.9,9,121.1,36.8,162.4
		c24.4,36.3,64.3,58.5,129.5,56.1c16.1-0.6,32.3-2,48.4-4.4c79.7-11.7,158.1-46,230.6-79c63.9-29.3,126-62.1,187.9-95.3
		c58.2-31.3,116.2-63,174.4-94.4"/>
</g>
</svg>
