<?xml version="1.0" encoding="utf-8"?>
<!-- Generator: Adobe Illustrator 16.0.0, SVG Export Plug-In . SVG Version: 6.00 Build 0)  -->
<!DOCTYPE svg PUBLIC "-//W3C//DTD SVG 1.1//EN" "http://www.w3.org/Graphics/SVG/1.1/DTD/svg11.dtd">
<svg version="1.1" id="Blue" xmlns="http://www.w3.org/2000/svg" xmlns:xlink="http://www.w3.org/1999/xlink" x="0px" y="0px"
	 width="1920px" height="820.5px" viewBox="0 -17.7 1920 820.5" enable-background="new 0 -17.7 1920 820.5" xml:space="preserve">
<g id="Layer_18">
	<path fill="none" stroke="#89D5F3" d="M1.2,707.4c31.8,21.2,64,41.3,102.1,45.1c31.2,3.3,59-6.9,85.1-33.4
		c34.2-34.7,54.2-87.1,85.7-129.9c31.8-43,66.9-61.5,100.1-71.2c96.3-28.2,181-115.7,273-199.7c55.1-50.4,118.5-105.8,181-129.3
		c66.2-24.8,126.5-19.9,173.5,35.3c7.9,9.3,14.4,19.4,19.7,29.6c26.7,51.5,30.1,115.6,37.7,170.2c7.7,55.4,20.5,108.5,48.9,149.6
		c24.3,35.2,59.8,61,114.2,69.3c14.5,2.2,29.1,4,44.1,4.5c75.1,2.1,151.8-30.4,219.9-63.3c76-36.7,147.5-82.1,220-125.1
		c68.3-40.5,137.5-79.5,207.5-117.2"/>
</g>
</svg>
