<?xml version="1.0" encoding="utf-8"?>
<!-- Generator: Adobe Illustrator 16.0.0, SVG Export Plug-In . SVG Version: 6.00 Build 0)  -->
<!DOCTYPE svg PUBLIC "-//W3C//DTD SVG 1.1//EN" "http://www.w3.org/Graphics/SVG/1.1/DTD/svg11.dtd">
<svg version="1.1" id="Blue" xmlns="http://www.w3.org/2000/svg" xmlns:xlink="http://www.w3.org/1999/xlink" x="0px" y="0px"
	 width="1920px" height="820.5px" viewBox="0 -17.7 1920 820.5" enable-background="new 0 -17.7 1920 820.5" xml:space="preserve">
<g id="Layer_8">
	<path fill="none" stroke="#89D5F3" d="M1.2,734.6c34.8,12.8,67.4,28.2,101,28.5c27.2,0.3,51.9-10.4,75.7-39.1
		c29.6-35.8,43.4-86.4,75.4-123.1c32.7-37.3,72.4-40.5,110.8-40c113,1.4,206.2-78.7,298.4-163.1c56.6-51.8,115-107.8,174.1-140.4
		c63.3-35,138.2-55.8,198.1-4.2c9.9,8.6,18,18.3,24.6,28.6c32.1,50.5,31.3,119.9,34.3,177.1c3.2,60,12.2,117.5,40.2,158.8
		c24.4,36,63,59.1,125.1,59.9c15.7,0.2,31.4-0.3,47.2-1.9c78.4-7.7,156.4-41.4,227.6-74.5c67.4-31.3,132.2-67.8,197.1-103.8
		c61.1-33.9,122.3-67.7,183.8-100.9"/>
</g>
</svg>
