<?xml version="1.0" encoding="utf-8"?>
<!-- Generator: Adobe Illustrator 16.0.0, SVG Export Plug-In . SVG Version: 6.00 Build 0)  -->
<!DOCTYPE svg PUBLIC "-//W3C//DTD SVG 1.1//EN" "http://www.w3.org/Graphics/SVG/1.1/DTD/svg11.dtd">
<svg version="1.1" id="Layer_3" xmlns="http://www.w3.org/2000/svg" xmlns:xlink="http://www.w3.org/1999/xlink" x="0px" y="0px"
	 width="1920px" height="820.5px" viewBox="0 -17.7 1920 820.5" enable-background="new 0 -17.7 1920 820.5" xml:space="preserve">
<path fill="none" stroke="#89D5F3" d="M1.2,748.3c36.3,8.6,69.1,21.7,100.4,20.2c25.1-1.2,48.5-12.1,70.9-42
	c27.5-36.3,38-86.1,70.3-119.6c33.2-34.4,75.1-29.9,116.1-24.4c121.2,16.5,218.7-60.1,311.2-144.7c57.3-52.4,113.2-108.8,170.7-146
	c61.8-40.1,144-73.7,210.3-24c10.9,8.2,19.8,17.7,27.1,28.1c34.8,50.1,31.7,121.9,32.6,180.6c0.8,62.3,8.1,122,35.9,163.3
	c24.4,36.4,64.7,58.4,130.6,55.2c16.3-0.8,32.5-2.5,48.7-5c80.1-12.7,158.6-47.1,231.4-80.1c63-28.8,124.5-60.6,185.7-93.2
	c57.5-30.6,114.7-61.8,172-92.8"/>
</svg>
