<?xml version="1.0" encoding="utf-8"?>
<!-- Generator: Adobe Illustrator 16.0.0, SVG Export Plug-In . SVG Version: 6.00 Build 0)  -->
<!DOCTYPE svg PUBLIC "-//W3C//DTD SVG 1.1//EN" "http://www.w3.org/Graphics/SVG/1.1/DTD/svg11.dtd">
<svg version="1.1" id="Blue" xmlns="http://www.w3.org/2000/svg" xmlns:xlink="http://www.w3.org/1999/xlink" x="0px" y="0px"
	 width="1920px" height="820.5px" viewBox="0 -17.7 1920 820.5" enable-background="new 0 -17.7 1920 820.5" xml:space="preserve">
<g id="Layer_27">
	<path fill="none" stroke="#89D5F3" d="M1.2,682.8c29.1,28.8,60.9,53,103.1,60.1c34.8,6,65.5-3.7,93.5-28.2
		c38.4-33.6,64-87.7,94.9-136.1c31.1-48.1,61.9-80.2,90.5-99.2c81.2-54.2,158.4-149.1,250.1-232.7
		c53.8-49.1,121.5-104.1,187.3-119.2c68.8-15.8,115.8,12.6,151.4,70.9c6.1,10,11.1,20.3,15.3,30.6c21.7,52.4,28.9,111.8,40.7,164
		c11.6,51.3,27.9,100.5,56.6,141.4c24.2,34.4,57,63.2,104.3,77.7c13.5,4.1,27.1,8,41.4,10.2c72.1,11.1,147.7-20.7,213-53.1
		c83.8-41.6,161.3-94.9,240.6-144.2c74.9-46.5,151.2-90.1,228.8-131.9"/>
</g>
</svg>
