<?xml version="1.0" encoding="utf-8"?>
<!-- Generator: Adobe Illustrator 16.0.0, SVG Export Plug-In . SVG Version: 6.00 Build 0)  -->
<!DOCTYPE svg PUBLIC "-//W3C//DTD SVG 1.1//EN" "http://www.w3.org/Graphics/SVG/1.1/DTD/svg11.dtd">
<svg version="1.1" id="Layer_2" xmlns="http://www.w3.org/2000/svg" xmlns:xlink="http://www.w3.org/1999/xlink" x="0px" y="0px"
	 width="1920px" height="820.5px" viewBox="0 -17.7 1920 820.5" enable-background="new 0 -17.7 1920 820.5" xml:space="preserve">
<path fill="none" stroke="#89D5F3" d="M1.2,751c36.6,7.8,69.4,20.4,100.3,18.5c24.7-1.5,47.8-12.5,70-42.5c27-36.5,37-86,69.3-119
	c33.2-33.8,75.7-27.8,117.2-21.3c122.9,19.4,221.3-56.4,313.7-141.1c57.4-52.6,112.9-109,170-147.1c61.6-41.1,145.2-77.3,212.8-28
	c11.2,8.2,20.2,17.6,27.6,28c35.4,50,31.9,122.4,32.3,181.3c0.4,62.8,7.3,122.9,35,164.3c24.4,36.4,65,58.3,131.7,54.2
	c16.4-0.9,32.7-2.9,49-5.7c80.4-13.7,159.1-48.1,232.2-81.3c62.1-28.2,123-59.2,183.4-91c56.8-29.9,113.2-60.7,169.6-91.2"/>
</svg>
