<?xml version="1.0" encoding="utf-8"?>
<!-- Generator: Adobe Illustrator 16.0.0, SVG Export Plug-In . SVG Version: 6.00 Build 0)  -->
<!DOCTYPE svg PUBLIC "-//W3C//DTD SVG 1.1//EN" "http://www.w3.org/Graphics/SVG/1.1/DTD/svg11.dtd">
<svg version="1.1" id="Blue" xmlns="http://www.w3.org/2000/svg" xmlns:xlink="http://www.w3.org/1999/xlink" x="0px" y="0px"
	 width="1920px" height="820.5px" viewBox="0 -17.7 1920 820.5" enable-background="new 0 -17.7 1920 820.5" xml:space="preserve">
<g id="Layer_6">
	<path fill="none" stroke="#89D5F3" d="M1.2,740.1c35.4,11.1,68.1,25.6,100.8,25.2c26.3-0.3,50.5-11.1,73.8-40.2
		c28.7-36.1,41.3-86.3,73.4-121.7c32.9-36.1,73.5-36.3,112.9-33.8c116.3,7.4,211.2-71.2,303.5-155.7
		c56.9-52,114.2-108.3,172.7-142.6c62.7-37.1,140.5-63,203-12.1c10.4,8.4,18.8,18,25.6,28.4c33.2,50.4,31.5,120.7,33.6,178.5
		c2.3,60.9,10.6,119.3,38.5,160.6c24.4,36.1,63.7,58.8,127.3,58c15.9-0.2,31.8-1.2,47.8-3.1c79.1-9.7,157.3-43.6,229.1-76.8
		c65.6-30.3,129.1-64.9,192.5-99.5c59.7-32.6,119.3-65.4,179.1-97.7"/>
</g>
</svg>
