<?xml version="1.0" encoding="utf-8"?>
<!-- Generator: Adobe Illustrator 16.0.0, SVG Export Plug-In . SVG Version: 6.00 Build 0)  -->
<!DOCTYPE svg PUBLIC "-//W3C//DTD SVG 1.1//EN" "http://www.w3.org/Graphics/SVG/1.1/DTD/svg11.dtd">
<svg version="1.1" id="Blue" xmlns="http://www.w3.org/2000/svg" xmlns:xlink="http://www.w3.org/1999/xlink" x="0px" y="0px"
	 width="1920px" height="820.5px" viewBox="0 -17.7 1920 820.5" enable-background="new 0 -17.7 1920 820.5" xml:space="preserve">
<g id="Layer_26">
	<path fill="none" stroke="#89D5F3" d="M1.2,685.5c29.4,28,61.2,51.7,103,58.4c34.4,5.7,64.8-4,92.6-28.8
		c37.9-33.8,62.9-87.7,93.9-135.4c31.1-47.6,62.5-78.1,91.6-96.1c82.9-51.3,160.9-145.4,252.6-229c54-49.3,121.2-104.3,186.6-120.4
		c68.5-16.8,117,9,153.9,66.9c6.3,9.9,11.5,20.2,15.8,30.4c22.2,52.3,29.1,112.3,40.3,164.7c11.1,51.7,27,101.3,55.8,142.3
		c24.2,34.5,57.3,63,105.4,76.8c13.6,3.9,27.4,7.5,41.7,9.5c72.5,10.1,148.2-21.8,213.7-54.2c82.9-41,159.8-93.5,238.3-142.1
		c74.1-45.9,149.7-88.9,226.5-130.3"/>
</g>
</svg>
