<?xml version="1.0" encoding="utf-8"?>
<!-- Generator: Adobe Illustrator 16.0.0, SVG Export Plug-In . SVG Version: 6.00 Build 0)  -->
<!DOCTYPE svg PUBLIC "-//W3C//DTD SVG 1.1//EN" "http://www.w3.org/Graphics/SVG/1.1/DTD/svg11.dtd">
<svg version="1.1" id="Layer_40" xmlns="http://www.w3.org/2000/svg" xmlns:xlink="http://www.w3.org/1999/xlink" x="0px" y="0px"
	 width="1920px" height="820.5px" viewBox="0 -17.7 1920 820.5" enable-background="new 0 -17.7 1920 820.5" xml:space="preserve">
<path fill="none" stroke="#89D5F3" d="M1.2,647.4c25.1,39.7,56.4,69.9,104.6,81.7c40.1,9.9,74.9,1.2,105.8-20.8
	c44.7-31.8,78-88.6,108.3-145c29.9-55.5,55-106.9,76.7-139.8c60.1-91.2,125.8-197.3,217-280.4c52-47.3,125.9-101.9,196.3-104.8
	c72.4-3,100.1,59.7,119.5,122.3c3.4,11,6.3,21.8,8.9,31.9c14.1,53.9,26.9,106.4,45,155c16.9,45.4,38.5,88.8,67.9,129.5
	c24,33.4,52.6,67.3,90.1,90c11.9,7.2,24.2,13.7,37.4,18.4c67.8,24.3,141.6-6.8,203-38.5c94.8-48.9,181.2-113.5,270.3-171.8
	c84.2-55.1,171-105.4,259.6-153.1"/>
</svg>
