<?xml version="1.0" encoding="utf-8"?>
<!-- Generator: Adobe Illustrator 16.0.0, SVG Export Plug-In . SVG Version: 6.00 Build 0)  -->
<!DOCTYPE svg PUBLIC "-//W3C//DTD SVG 1.1//EN" "http://www.w3.org/Graphics/SVG/1.1/DTD/svg11.dtd">
<svg version="1.1" id="Layer_15" xmlns="http://www.w3.org/2000/svg" xmlns:xlink="http://www.w3.org/1999/xlink" x="0px" y="0px"
	 width="1920px" height="820.5px" viewBox="0 -17.7 1920 820.5" enable-background="new 0 -17.7 1920 820.5" xml:space="preserve">
<path fill="none" stroke="#89D5F3" d="M1.2,715.6c32.7,18.7,65,37.3,101.8,40.1c30,2.4,56.9-8,82.2-35.1
	c32.8-35.1,51-86.9,82.6-127.9c32.1-41.3,68.6-55.2,103.3-61.8c101.4-19.3,188.6-104.6,280.6-188.7c55.6-50.8,117.4-106.4,179-132.6
	c65.4-27.9,130-30.7,180.9,23.5c8.5,9.1,15.5,19,21.2,29.3c28.3,51.2,30.5,116.9,36.7,172.3c6.3,56.8,18,111.2,46.3,152.4
	c24.3,35.4,60.8,60.4,117.4,66.5c14.8,1.6,29.8,2.7,45,2.6c76.1-0.9,153.2-33.7,222.2-66.6c73.4-35.1,142.9-77.8,213.1-118.7
	c66.2-38.6,133-76,200.4-112.4"/>
</svg>
