<?xml version="1.0" encoding="utf-8"?>
<!-- Generator: Adobe Illustrator 16.0.0, SVG Export Plug-In . SVG Version: 6.00 Build 0)  -->
<!DOCTYPE svg PUBLIC "-//W3C//DTD SVG 1.1//EN" "http://www.w3.org/Graphics/SVG/1.1/DTD/svg11.dtd">
<svg version="1.1" id="Blue" xmlns="http://www.w3.org/2000/svg" xmlns:xlink="http://www.w3.org/1999/xlink" x="0px" y="0px"
	 width="1920px" height="820.5px" viewBox="0 -17.7 1920 820.5" enable-background="new 0 -17.7 1920 820.5" xml:space="preserve">
<g id="Layer_22">
	<path fill="none" stroke="#89D5F3" d="M1.2,696.5c30.6,24.6,62.6,46.5,102.5,51.8c32.8,4.5,61.9-5.5,88.8-31.1
		c36.1-34.3,58.5-87.4,89.8-132.7c31.4-45.3,64.7-69.8,95.9-83.7c89.6-39.8,171-130.6,262.8-214.4c54.6-49.8,119.8-105,183.8-124.8
		c67.3-20.8,121.8-5.5,163.7,51.1c7.1,9.6,12.9,19.8,17.8,30c24.4,51.9,29.6,114,39,167.4c9.4,53.6,23.7,104.9,52.3,146
		c24.2,34.8,58.6,61.9,109.8,73c14.1,3,28.2,5.8,42.9,7c73.8,6.1,150-26.1,216.8-58.7c79.5-38.8,153.6-87.8,229.1-133.6
		c71.2-43.2,143.6-84.2,217-123.8"/>
</g>
</svg>
