<?xml version="1.0" encoding="utf-8"?>
<!-- Generator: Adobe Illustrator 16.0.0, SVG Export Plug-In . SVG Version: 6.00 Build 0)  -->
<!DOCTYPE svg PUBLIC "-//W3C//DTD SVG 1.1//EN" "http://www.w3.org/Graphics/SVG/1.1/DTD/svg11.dtd">
<svg version="1.1" id="Blue" xmlns="http://www.w3.org/2000/svg" xmlns:xlink="http://www.w3.org/1999/xlink" x="0px" y="0px"
	 width="1920px" height="820.5px" viewBox="0 -17.7 1920 820.5" enable-background="new 0 -17.7 1920 820.5" xml:space="preserve">
<g id="Layer_5">
	<path fill="none" stroke="#89D5F3" d="M1.2,742.8c35.7,10.3,68.4,24.3,100.7,23.5c25.9-0.6,49.8-11.4,72.8-40.8
		c28.3-36.2,40.2-86.2,72.4-121c33-35.6,74.1-34.2,114-30.6c118,10.4,213.7-67.5,306.1-152.1c57-52.2,113.9-108.4,172.1-143.7
		c62.4-38.1,141.7-66.6,205.4-16.1c10.6,8.4,19.1,17.9,26.1,28.3c33.8,50.3,31.6,121.1,33.3,179.2c1.8,61.4,9.8,120.2,37.6,161.5
		c24.4,36.2,64,58.7,128.4,57.1c16-0.4,32-1.6,48.1-3.8c79.4-10.7,157.7-44.9,229.9-77.9c64.7-29.9,127.6-63.5,190.2-97.4
		c59-31.9,117.7-64.2,176.7-96"/>
</g>
</svg>
