<?xml version="1.0" encoding="utf-8"?>
<!-- Generator: Adobe Illustrator 16.0.0, SVG Export Plug-In . SVG Version: 6.00 Build 0)  -->
<!DOCTYPE svg PUBLIC "-//W3C//DTD SVG 1.1//EN" "http://www.w3.org/Graphics/SVG/1.1/DTD/svg11.dtd">
<svg version="1.1" id="Blue" xmlns="http://www.w3.org/2000/svg" xmlns:xlink="http://www.w3.org/1999/xlink" x="0px" y="0px"
	 width="1920px" height="820.5px" viewBox="0 -17.7 1920 820.5" enable-background="new 0 -17.7 1920 820.5" xml:space="preserve">
<g id="Layer_24">
	<path fill="none" stroke="#89D5F3" d="M1.2,691c30,26.3,61.9,49.1,102.8,55.1c33.6,5.1,63.3-4.7,90.7-29.9
		c37-34,60.7-87.5,91.9-134c31.3-46.4,63.6-74,93.7-89.9c86.2-45.6,166-138,257.7-221.7C692.3,221,758.5,165.9,823.2,148
		c67.9-18.8,119.4,1.8,158.8,59c6.7,9.8,12.2,20,16.8,30.2c23.3,52.1,29.3,113.1,39.7,166.1c10.3,52.7,25.4,103.1,54,144.1
		c24.2,34.7,58,62.4,107.6,74.9c13.8,3.5,27.8,6.7,42.3,8.3c73.1,8.1,149.1-23.9,215.3-56.5c81.2-39.9,156.7-90.6,233.7-137.8
		c72.7-44.5,146.6-86.6,221.7-127"/>
</g>
</svg>
