<?xml version="1.0" encoding="utf-8"?>
<!-- Generator: Adobe Illustrator 16.0.0, SVG Export Plug-In . SVG Version: 6.00 Build 0)  -->
<!DOCTYPE svg PUBLIC "-//W3C//DTD SVG 1.1//EN" "http://www.w3.org/Graphics/SVG/1.1/DTD/svg11.dtd">
<svg version="1.1" id="Layer_36" xmlns="http://www.w3.org/2000/svg" xmlns:xlink="http://www.w3.org/1999/xlink" x="0px" y="0px"
	 width="1920px" height="820.5px" viewBox="0 -17.7 1920 820.5" enable-background="new 0 -17.7 1920 820.5" xml:space="preserve">
<path fill="none" stroke="#89D5F3" d="M1.2,658.3C27.6,694.6,59,723,105.3,733.3c38.5,8.7,72-0.3,102-23.1
	C250.1,677.9,281,622,311.5,568c30.3-53.3,57.1-98.7,80.9-127.3c66.5-79.8,135.8-182.5,227.2-265.7
	c52.6-47.9,124.6-102.5,193.5-109.2c71.3-6.9,105,45.3,129.3,106.5c4.3,10.7,7.8,21.4,10.9,31.5c16.5,53.4,27.6,108.1,43.7,157.8
	c15.3,47.2,35.2,92.4,64.4,133.1c24.1,33.7,54.1,66,94.5,86.2c12.4,6.2,25.1,11.9,38.7,15.9c69.2,20.2,143.5-11,206.1-43
	c91.4-46.7,175.1-107.8,261.2-163.3c81.4-52.5,164.9-100.7,250.1-146.6"/>
</svg>
