<?xml version="1.0" encoding="utf-8"?>
<!-- Generator: Adobe Illustrator 16.0.0, SVG Export Plug-In . SVG Version: 6.00 Build 0)  -->
<!DOCTYPE svg PUBLIC "-//W3C//DTD SVG 1.1//EN" "http://www.w3.org/Graphics/SVG/1.1/DTD/svg11.dtd">
<svg version="1.1" id="Layer_47" xmlns="http://www.w3.org/2000/svg" xmlns:xlink="http://www.w3.org/1999/xlink" x="0px" y="0px"
	 width="1920px" height="820.5px" viewBox="0 -17.7 1920 820.5" enable-background="new 0 -17.7 1920 820.5" xml:space="preserve">
<path fill="none" stroke="#89D5F3" d="M1.2,628.3c23,45.6,54,79,105.3,93.4C276,769,355.4,502.4,403.5,393.5
	c49.2-111.2,108.2-223.3,199.2-306c51-46.4,128.3-100.8,201.1-97C891.4-4.9,899.6,107,911.6,173c19,104.3,59.1,187.9,121.3,273.2
	c32,43.8,67.5,95.2,117.7,119.4c65.5,31.4,138.3,0.7,197.6-30.6c100.7-53,192-123.5,286.4-186.7c89.3-59.8,181.6-113.6,276.2-164.5"
	/>
</svg>
