<?xml version="1.0" encoding="utf-8"?>
<!-- Generator: Adobe Illustrator 16.0.0, SVG Export Plug-In . SVG Version: 6.00 Build 0)  -->
<!DOCTYPE svg PUBLIC "-//W3C//DTD SVG 1.1//EN" "http://www.w3.org/Graphics/SVG/1.1/DTD/svg11.dtd">
<svg version="1.1" id="Blue" xmlns="http://www.w3.org/2000/svg" xmlns:xlink="http://www.w3.org/1999/xlink" x="0px" y="0px"
	 width="1920px" height="820.5px" viewBox="0 -17.7 1920 820.5" enable-background="new 0 -17.7 1920 820.5" xml:space="preserve">
<g id="Layer_21">
	<path fill="none" stroke="#89D5F3" d="M1.2,699.2c30.9,23.8,62.9,45.1,102.4,50.1c32.4,4.1,61.2-5.8,87.9-31.6
		c35.6-34.4,57.5-87.3,88.8-132c31.6-44.7,65.2-67.7,96.9-80.5c91.3-36.9,173.5-126.9,265.4-210.7c54.7-50,119.5-105.2,183.1-125.9
		c67.1-21.8,122.9-9.1,166.1,47.2c7.3,9.5,13.3,19.7,18.3,29.9c25,51.8,29.7,114.4,38.7,168.1c9,54,22.9,105.8,51.5,146.9
		c24.2,34.9,58.9,61.7,110.9,72.1c14.2,2.8,28.5,5.3,43.2,6.4c74.1,5.1,150.5-27.2,217.6-59.9c78.6-38.3,152.1-86.4,226.8-131.4
		c70.5-42.5,142.1-83,214.6-122.1"/>
</g>
</svg>
