<?xml version="1.0" encoding="utf-8"?>
<!-- Generator: Adobe Illustrator 16.0.0, SVG Export Plug-In . SVG Version: 6.00 Build 0)  -->
<!DOCTYPE svg PUBLIC "-//W3C//DTD SVG 1.1//EN" "http://www.w3.org/Graphics/SVG/1.1/DTD/svg11.dtd">
<svg version="1.1" id="Blue" xmlns="http://www.w3.org/2000/svg" xmlns:xlink="http://www.w3.org/1999/xlink" x="0px" y="0px"
	 width="1920px" height="820.5px" viewBox="0 -17.7 1920 820.5" enable-background="new 0 -17.7 1920 820.5" xml:space="preserve">
<g id="Layer_29">
	<path fill="none" stroke="#89D5F3" d="M1.2,677.4c28.5,30.5,60.2,55.6,103.3,63.4c35.6,6.6,66.9-2.9,95.4-27.1
		c39.4-33.4,66.1-87.8,97-137.5c30.9-49.3,60.8-84.3,88.4-105.5c77.9-59.9,153.4-156.5,245-240c53.6-48.8,122.2-103.8,188.7-117
		c69.3-13.8,113.4,19.9,146.5,78.8c5.7,10.2,10.4,20.6,14.3,30.8c20.5,52.7,28.6,111,41.3,162.6c12.4,50.4,29.5,98.7,58.4,139.5
		c24.2,34.3,56.4,63.8,102.1,79.6c13.3,4.6,26.7,8.8,40.8,11.4c71.5,13.1,146.8-18.5,211.4-50.8c85.5-42.7,164.4-97.8,245.2-148.4
		c76.3-47.8,154.2-92.4,233.6-135.2"/>
</g>
</svg>
