<?xml version="1.0" encoding="utf-8"?>
<!-- Generator: Adobe Illustrator 16.0.0, SVG Export Plug-In . SVG Version: 6.00 Build 0)  -->
<!DOCTYPE svg PUBLIC "-//W3C//DTD SVG 1.1//EN" "http://www.w3.org/Graphics/SVG/1.1/DTD/svg11.dtd">
<svg version="1.1" id="Layer_44" xmlns="http://www.w3.org/2000/svg" xmlns:xlink="http://www.w3.org/1999/xlink" x="0px" y="0px"
	 width="1920px" height="820.5px" viewBox="0 -17.7 1920 820.5" enable-background="new 0 -17.7 1920 820.5" xml:space="preserve">
<path fill="none" stroke="#89D5F3" d="M1.2,636.4c23.9,43.1,55.1,75.1,105,88.4c41.7,11.1,77.9,2.7,109.5-18.5
	c46.6-31.2,82.3-88.9,112.4-147.7c29.6-57.8,52.9-115.2,72.4-152.3c53.9-102.6,115.7-212.1,206.8-295C658.7,64.6,734.6,10,806.3,11
	c73.5,0.9,95.1,74.3,109.7,138.1c2.6,11.3,4.8,22.3,7,32.3c11.8,54.3,26.2,104.8,46.4,152.2c18.5,43.6,41.8,85.2,71.3,125.8
	c24,33.1,51.1,68.8,85.7,93.7c11.4,8.2,23.3,15.4,36.2,20.9c66.4,28.4,139.7-2.6,199.9-33.9c98.1-51.4,187.4-119.2,279.5-180.3
	c87.1-57.8,177.1-110.1,269.1-159.6"/>
</svg>
