<?xml version="1.0" encoding="utf-8"?>
<!-- Generator: Adobe Illustrator 16.0.0, SVG Export Plug-In . SVG Version: 6.00 Build 0)  -->
<!DOCTYPE svg PUBLIC "-//W3C//DTD SVG 1.1//EN" "http://www.w3.org/Graphics/SVG/1.1/DTD/svg11.dtd">
<svg version="1.1" id="Blue" xmlns="http://www.w3.org/2000/svg" xmlns:xlink="http://www.w3.org/1999/xlink" x="0px" y="0px"
	 width="1920px" height="820.5px" viewBox="0 -17.7 1920 820.5" enable-background="new 0 -17.7 1920 820.5" xml:space="preserve">
<g id="Layer_31">
	<path fill="none" stroke="#89D5F3" d="M1.2,671.9c27.8,32.2,59.5,58.2,103.5,66.8c36.4,7.2,68.4-2.2,97.3-25.9
		c40.3-33.1,68.3-88,99-138.8c30.7-50.4,59.7-88.4,86.3-111.7c74.6-65.6,148.4-163.9,239.9-247.4c53.3-48.6,122.9-103.4,190-114.8
		c69.9-11.8,111,27.1,141.6,86.7c5.3,10.3,9.6,20.8,13.3,31c19.4,52.9,28.3,110.2,42,161.2c13.2,49.4,31.1,96.9,60.1,137.7
		c24.1,34.1,55.7,64.4,99.9,81.5c13,5,26.2,9.7,40.2,12.7c70.8,15.1,145.8-16.4,209.9-48.6c87.2-43.8,167.4-100.7,249.7-152.7
		c77.7-49.2,157.3-94.8,238.3-138.4"/>
</g>
</svg>
