<?xml version="1.0" encoding="utf-8"?>
<!-- Generator: Adobe Illustrator 16.0.0, SVG Export Plug-In . SVG Version: 6.00 Build 0)  -->
<!DOCTYPE svg PUBLIC "-//W3C//DTD SVG 1.1//EN" "http://www.w3.org/Graphics/SVG/1.1/DTD/svg11.dtd">
<svg version="1.1" id="Blue" xmlns="http://www.w3.org/2000/svg" xmlns:xlink="http://www.w3.org/1999/xlink" x="0px" y="0px"
	 width="1920px" height="820.5px" viewBox="0 -17.7 1920 820.5" enable-background="new 0 -17.7 1920 820.5" xml:space="preserve">
<g id="Layer_13">
	<path fill="none" stroke="#89D5F3" d="M1.2,721c33.3,17,65.7,34.7,101.5,36.8c29.2,1.8,55.5-8.7,80.4-36.2
		c31.9-35.3,48.8-86.8,80.6-126.5c32.3-40.1,69.7-51,105.5-55.6c104.7-13.4,193.6-97.2,285.7-181.4
		c55.9-51.1,116.7-106.8,177.6-134.8c64.8-29.9,132.3-37.9,185.8,15.5c8.9,8.9,16.2,18.8,22.2,29.1c29.4,51,30.7,117.7,36,173.7
		c5.4,57.7,16.4,113,44.6,154.2c24.3,35.6,61.4,60,119.6,64.6c15.1,1.2,30.3,1.9,45.6,1.3c76.7-2.9,154.1-35.9,223.7-68.9
		c71.7-34,139.8-74.9,208.5-114.4c64.7-37.2,129.9-73.6,195.7-109.1"/>
</g>
</svg>
