<?xml version="1.0" encoding="utf-8"?>
<!-- Generator: Adobe Illustrator 16.0.0, SVG Export Plug-In . SVG Version: 6.00 Build 0)  -->
<!DOCTYPE svg PUBLIC "-//W3C//DTD SVG 1.1//EN" "http://www.w3.org/Graphics/SVG/1.1/DTD/svg11.dtd">
<svg version="1.1" id="Blue" xmlns="http://www.w3.org/2000/svg" xmlns:xlink="http://www.w3.org/1999/xlink" x="0px" y="0px"
	 width="1920px" height="820.5px" viewBox="0 -17.7 1920 820.5" enable-background="new 0 -17.7 1920 820.5" xml:space="preserve">
<g id="Layer_28">
	<path fill="none" stroke="#89D5F3" d="M1.2,680.1c28.8,29.6,60.5,54.3,103.2,61.8c35.2,6.3,66.2-3.3,94.5-27.6
		c38.9-33.5,65-87.8,96-136.8c31-48.7,61.4-82.2,89.5-102.4c79.6-57.1,155.9-152.8,247.5-236.4c53.7-49,121.9-103.9,188-118.1
		c69-14.8,114.6,16.3,149,74.8c5.9,10.1,10.7,20.5,14.8,30.7c21.1,52.5,28.8,111.4,41,163.3c12,50.8,28.7,99.6,57.5,140.5
		c24.2,34.3,56.7,63.5,103.2,78.7c13.4,4.4,26.9,8.4,41.1,10.8c71.8,12.1,147.2-19.6,212.2-52c84.6-42.1,162.8-96.4,242.9-146.3
		c75.6-47.2,152.7-91.3,231.2-133.6"/>
</g>
</svg>
