<?xml version="1.0" encoding="utf-8"?>
<!-- Generator: Adobe Illustrator 16.0.0, SVG Export Plug-In . SVG Version: 6.00 Build 0)  -->
<!DOCTYPE svg PUBLIC "-//W3C//DTD SVG 1.1//EN" "http://www.w3.org/Graphics/SVG/1.1/DTD/svg11.dtd">
<svg version="1.1" id="Layer_31" xmlns="http://www.w3.org/2000/svg" xmlns:xlink="http://www.w3.org/1999/xlink" x="0px" y="0px"
	 width="1920px" height="820.5px" viewBox="0 -17.7 1920 820.5" enable-background="new 0 -17.7 1920 820.5" xml:space="preserve">
<path id="XMLID_31_" fill="none" stroke="#BD2026" stroke-width="0.2554" enable-background="new    " d="M9.5,371.7
	c69.6,59.6,157.1,98.9,241.5,120.6c50.3,12.9,99.8,16.6,150.1,13.1c80.1-5.4,156.9-27.3,234.5-54.4c49-17,98.3-36.2,147.6-57
	c97.8-41.3,195.3-87.5,296-122.2c41.6-14.3,93.5-31.2,146-41.4c82.4-16.1,159.3-8.1,206.5,41c26,27,50.2,51.9,77.5,77.9
	c14.3,13.6,30,26.9,48.5,39.6c66.7,46,167.8,55.9,255,56.6c17.6,0.1,35,0.2,52.4-0.6c12.6-0.5,25.2-1.4,39-2.2"/>
</svg>
