<?xml version="1.0" encoding="utf-8"?>
<!-- Generator: Adobe Illustrator 16.0.0, SVG Export Plug-In . SVG Version: 6.00 Build 0)  -->
<!DOCTYPE svg PUBLIC "-//W3C//DTD SVG 1.1//EN" "http://www.w3.org/Graphics/SVG/1.1/DTD/svg11.dtd">
<svg version="1.1" id="Layer_14" xmlns="http://www.w3.org/2000/svg" xmlns:xlink="http://www.w3.org/1999/xlink" x="0px" y="0px"
	 width="1920px" height="820.5px" viewBox="0 -17.7 1920 820.5" enable-background="new 0 -17.7 1920 820.5" xml:space="preserve">
<path id="XMLID_14_" fill="none" stroke="#BD2026" stroke-width="0.2554" enable-background="new    " d="M4.8,476.4
	C75.4,545.8,182.4,577,275.1,588.9c58.3,7.5,112.4,1.7,164.7-12.4C524,553.7,601.3,509.7,681,465.3c49.8-27.8,100.5-55.8,151.7-83.8
	c102-55.7,206-110.7,312.9-156.2c38.8-16.5,97.9-41.9,157.1-57.7c92.7-25,180.4-23.7,200,69.6c9,42.9,10.3,86.9,19.8,130.3
	c5,22.9,12.8,45.3,26.5,67.2c50.2,80.2,171.2,92.2,262.3,97.8c19.2,1.2,38,2.2,57,2.8c13.9,0.4,27.9,0.6,42.5,0.7"/>
</svg>
