<?xml version="1.0" encoding="utf-8"?>
<!-- Generator: Adobe Illustrator 16.0.0, SVG Export Plug-In . SVG Version: 6.00 Build 0)  -->
<!DOCTYPE svg PUBLIC "-//W3C//DTD SVG 1.1//EN" "http://www.w3.org/Graphics/SVG/1.1/DTD/svg11.dtd">
<svg version="1.1" id="Layer_02" xmlns="http://www.w3.org/2000/svg" xmlns:xlink="http://www.w3.org/1999/xlink" x="0px" y="0px"
	 width="1920px" height="820.5px" viewBox="0 -17.7 1920 820.5" enable-background="new 0 -17.7 1920 820.5" xml:space="preserve">
<path id="XMLID_2_" fill="none" stroke="#BD2026" stroke-width="0.2554" enable-background="new    " d="M1.4,550.2
	C72.8,626.6,193.5,651.6,292,657.1c64,3.4,121.3-8.8,175-30.5c87.1-35.1,164.8-94.6,246-151.3c50.4-35.4,102-69.7,154.6-102.7
	c104.9-65.8,213.8-126.3,324.9-180.2c36.9-17.8,100.9-49.3,164.8-69.2c100-31.1,198.9-33.6,195.4,89.8
	c-1.5,54.7-17.9,111.6-20.9,167.3c-1.6,29.4,0.6,58.4,11,86.7c38.3,104.4,173.5,117.9,267.5,126.9c20.4,1.9,40.2,3.6,60.1,5.1
	c14.8,1.1,29.7,2.1,45,2.7"/>
</svg>
