<?xml version="1.0" encoding="utf-8"?>
<!-- Generator: Adobe Illustrator 16.0.0, SVG Export Plug-In . SVG Version: 6.00 Build 0)  -->
<!DOCTYPE svg PUBLIC "-//W3C//DTD SVG 1.1//EN" "http://www.w3.org/Graphics/SVG/1.1/DTD/svg11.dtd">
<svg version="1.1" id="Layer_18" xmlns="http://www.w3.org/2000/svg" xmlns:xlink="http://www.w3.org/1999/xlink" x="0px" y="0px"
	 width="1920px" height="820.5px" viewBox="0 -17.7 1920 820.5" enable-background="new 0 -17.7 1920 820.5" xml:space="preserve">
<path id="XMLID_18_" fill="none" stroke="#BD2026" stroke-width="0.2554" enable-background="new    " d="M5.9,451.7
	C76.3,518.9,178.6,552,269.4,566.2c56.4,8.8,109.4,5.2,161.3-6.4c83.3-18.7,160.4-57.5,239.7-97.9c49.6-25.3,100-51.2,150.8-77.5
	c101-52.3,203.4-105.3,309-148.2c39.4-16,96.8-39.4,154.5-53.9c90.3-22.9,174.7-20,201.5,62.9c12.7,39.1,19.7,78.6,33.4,117.9
	c7.2,20.7,16.9,41,31.7,60.7c54.2,72.1,170.4,83.5,260.6,88.1c18.8,0.9,37.3,1.7,55.9,2c13.6,0.2,27.3,0.2,41.7,0"/>
</svg>
