<?xml version="1.0" encoding="utf-8"?>
<!-- Generator: Adobe Illustrator 16.0.0, SVG Export Plug-In . SVG Version: 6.00 Build 0)  -->
<!DOCTYPE svg PUBLIC "-//W3C//DTD SVG 1.1//EN" "http://www.w3.org/Graphics/SVG/1.1/DTD/svg11.dtd">
<svg version="1.1" id="Layer_43" xmlns="http://www.w3.org/2000/svg" xmlns:xlink="http://www.w3.org/1999/xlink" x="0px" y="0px"
	 width="1920px" height="820.5px" viewBox="0 -17.7 1920 820.5" enable-background="new 0 -17.7 1920 820.5" xml:space="preserve">
<path id="XMLID_43_" fill="none" stroke="#BD2026" stroke-width="0.2554" enable-background="new    " d="M12.9,297.8
	c68.9,52.6,142.7,97.3,221.2,126.3c44.7,16.5,90.9,27,139.8,31.2c77.3,6.6,153.7,0.5,229.7-14.4c48.5-9.4,96.8-22.3,144.8-38.1
	c94.9-31.2,188-70.5,284.1-98.2c43.7-12.6,90.5-23.6,138.3-29.9c75.1-9.8,147.4-1,211,20.8c39.7,13.6,78.4,27.2,118.2,40.9
	c20.8,7.2,42.1,13.9,64,20.2c78.1,22.2,165.4,30.5,249.8,27.6c16.4-0.6,32.8-1.3,49.2-3c11.7-1.2,23.4-2.8,36.5-4.2"/>
</svg>
