<?xml version="1.0" encoding="utf-8"?>
<!-- Generator: Adobe Illustrator 16.0.0, SVG Export Plug-In . SVG Version: 6.00 Build 0)  -->
<!DOCTYPE svg PUBLIC "-//W3C//DTD SVG 1.1//EN" "http://www.w3.org/Graphics/SVG/1.1/DTD/svg11.dtd">
<svg version="1.1" id="Layer_27" xmlns="http://www.w3.org/2000/svg" xmlns:xlink="http://www.w3.org/1999/xlink" x="0px" y="0px"
	 width="1920px" height="820.5px" viewBox="0 -17.7 1920 820.5" enable-background="new 0 -17.7 1920 820.5" xml:space="preserve">
<path id="XMLID_27_" fill="none" stroke="#BD2026" stroke-width="0.2554" enable-background="new    " d="M8.4,396.3
	c69.9,61.9,161.9,99.3,248.3,118.7c52.2,11.7,102.8,13.1,153.6,7.1c81.1-9.5,158-36.6,236.1-67.8c49.2-19.6,98.8-40.8,148.6-63.3
	c98.8-44.7,197.8-93,300-130.2c41-14.9,94.6-33.8,148.6-45.2c84.8-18.3,163.4-11.5,204.9,47.7c21.6,30.9,40.8,60.1,63.9,90.2
	c12.1,15.8,26,31.2,43.4,46.1c62.9,54,168.6,64.4,256.7,66.3c18,0.4,35.7,0.6,53.5,0.2c12.9-0.3,25.8-0.9,39.8-1.5"/>
</svg>
