<?xml version="1.0" encoding="utf-8"?>
<!-- Generator: Adobe Illustrator 16.0.0, SVG Export Plug-In . SVG Version: 6.00 Build 0)  -->
<!DOCTYPE svg PUBLIC "-//W3C//DTD SVG 1.1//EN" "http://www.w3.org/Graphics/SVG/1.1/DTD/svg11.dtd">
<svg version="1.1" id="Layer_06" xmlns="http://www.w3.org/2000/svg" xmlns:xlink="http://www.w3.org/1999/xlink" x="0px" y="0px"
	 width="1920px" height="820.5px" viewBox="0 -17.7 1920 820.5" enable-background="new 0 -17.7 1920 820.5" xml:space="preserve">
<path id="XMLID_6_" fill="none" stroke="#BD2026" stroke-width="0.2554" enable-background="new    " d="M2.5,525.6
	c71.2,74,187.2,101.2,283.9,108.8c62.1,4.9,118.3-5.3,171.6-24.4c86.2-31,163.7-85.3,244.4-137.9c50.2-32.9,101.5-65.1,153.7-96.4
	c104-62.4,211.1-121.3,320.9-172.2c37.5-17.4,99.9-46.8,162.2-65.4c97.6-29.1,192.6-30.5,197,83.1c2,50.7-8.5,103.3-7.4,154.9
	c0.6,27.2,4.7,54.1,16.2,80.2c42.2,96.4,172.7,109.4,265.8,117.2c20,1.7,39.5,3.1,59.1,4.3c14.5,0.9,29.1,1.6,44.1,2"/>
</svg>
