<?xml version="1.0" encoding="utf-8"?>
<!-- Generator: Adobe Illustrator 16.0.0, SVG Export Plug-In . SVG Version: 6.00 Build 0)  -->
<!DOCTYPE svg PUBLIC "-//W3C//DTD SVG 1.1//EN" "http://www.w3.org/Graphics/SVG/1.1/DTD/svg11.dtd">
<svg version="1.1" id="Layer_42" xmlns="http://www.w3.org/2000/svg" xmlns:xlink="http://www.w3.org/1999/xlink" x="0px" y="0px"
	 width="1920px" height="820.5px" viewBox="0 -17.7 1920 820.5" enable-background="new 0 -17.7 1920 820.5" xml:space="preserve">
<path id="XMLID_42_" fill="none" stroke="#BD2026" stroke-width="0.2554" enable-background="new    " d="M12.6,304
	c69,53.2,143.9,97.4,222.9,125.8c45.2,16.2,91.7,26.1,140.7,29.7c77.5,5.6,153.9-1.8,230.1-17.7c48.5-10.1,96.9-23.5,145-39.6
	c95.1-32.1,188.6-72,285.1-100.2c43.5-12.7,90.8-24.3,138.9-30.8c75.7-10.3,148.5-1.4,210.6,22.5c38.6,14.8,76,29.3,114.8,43.9
	c20.3,7.7,41,15,62.7,21.8c77.1,24.2,165.6,32.6,250.2,30c16.5-0.5,33-1.1,49.5-2.8c11.8-1.1,23.5-2.7,36.8-4.1"/>
</svg>
