<?xml version="1.0" encoding="utf-8"?>
<!-- Generator: Adobe Illustrator 16.0.0, SVG Export Plug-In . SVG Version: 6.00 Build 0)  -->
<!DOCTYPE svg PUBLIC "-//W3C//DTD SVG 1.1//EN" "http://www.w3.org/Graphics/SVG/1.1/DTD/svg11.dtd">
<svg version="1.1" id="Layer_08" xmlns="http://www.w3.org/2000/svg" xmlns:xlink="http://www.w3.org/1999/xlink" x="0px" y="0px"
	 width="1920px" height="820.5px" viewBox="0 -17.7 1920 820.5" enable-background="new 0 -17.7 1920 820.5" xml:space="preserve">
<path id="XMLID_8_" fill="none" stroke="#BD2026" stroke-width="0.2554" enable-background="new    " d="M3.1,513.3
	c71,72.9,184.8,101.1,280.5,109.7c61.1,5.5,116.8-3.6,169.9-21.4c85.7-28.9,163.1-80.7,243.6-131.3c50.1-31.6,101.2-62.8,153.2-93.2
	c103.5-60.7,209.8-118.7,318.9-168.2c37.8-17.2,99.4-45.6,160.9-63.5c96.3-28.1,189.5-28.9,197.7,79.7c3.7,48.7-3.8,99.2-0.6,148.8
	c1.7,26.1,6.7,51.9,18.8,76.9c44.1,92.4,172.4,105.1,264.9,112.4c19.8,1.6,39.1,2.9,58.5,3.9c14.4,0.7,28.8,1.3,43.7,1.7"/>
</svg>
