<?xml version="1.0" encoding="utf-8"?>
<!-- Generator: Adobe Illustrator 16.0.0, SVG Export Plug-In . SVG Version: 6.00 Build 0)  -->
<!DOCTYPE svg PUBLIC "-//W3C//DTD SVG 1.1//EN" "http://www.w3.org/Graphics/SVG/1.1/DTD/svg11.dtd">
<svg version="1.1" id="Layer_07" xmlns="http://www.w3.org/2000/svg" xmlns:xlink="http://www.w3.org/1999/xlink" x="0px" y="0px"
	 width="1920px" height="820.5px" viewBox="0 -17.7 1920 820.5" enable-background="new 0 -17.7 1920 820.5" xml:space="preserve">
<path id="XMLID_7_" fill="none" stroke="#BD2026" stroke-width="0.2554" enable-background="new    " d="M2.8,519.5
	c71.1,73.5,186,101.1,282.2,109.2c61.6,5.2,117.5-4.4,170.7-22.9c85.9-29.9,163.4-83,244-134.6c50.2-32.3,101.4-63.9,153.4-94.8
	c103.7-61.6,210.5-120,319.9-170.2c37.7-17.3,99.6-46.2,161.6-64.4c97-28.6,191-29.7,197.3,81.4c2.8,49.7-6.2,101.3-4,151.9
	c1.1,26.7,5.7,53,17.5,78.6c43.2,94.4,172.5,107.2,265.4,114.8c19.9,1.6,39.3,3,58.8,4.1c14.5,0.8,29,1.5,43.9,1.9"/>
</svg>
