<?xml version="1.0" encoding="utf-8"?>
<!-- Generator: Adobe Illustrator 16.0.0, SVG Export Plug-In . SVG Version: 6.00 Build 0)  -->
<!DOCTYPE svg PUBLIC "-//W3C//DTD SVG 1.1//EN" "http://www.w3.org/Graphics/SVG/1.1/DTD/svg11.dtd">
<svg version="1.1" id="Layer_20" xmlns="http://www.w3.org/2000/svg" xmlns:xlink="http://www.w3.org/1999/xlink" x="0px" y="0px"
	 width="1920px" height="820.5px" viewBox="0 -17.7 1920 820.5" enable-background="new 0 -17.7 1920 820.5" xml:space="preserve">
<path id="XMLID_20_" fill="none" stroke="#BD2026" stroke-width="0.2554" enable-background="new    " d="M6.5,439.4
	c70.3,66,170.3,100,260.1,115.4c55.5,9.5,107.9,7,159.6-3.4C509,534.8,586,498.6,665,460.2c49.5-24,99.7-48.9,150.3-74.3
	c100.5-50.6,202.2-102.6,307-144.2c39.8-15.8,96.3-38.1,153.2-52c89.1-21.9,172-18.1,202.3,59.5c14.6,37.3,24.4,74.5,40.2,111.8
	c8.2,19.6,18.9,38.8,34.3,57.5c56.1,68.1,170,79.3,259.7,83.3c18.6,0.8,37,1.5,55.4,1.6c13.5,0.1,26.9-0.1,41.3-0.3"/>
</svg>
