<?xml version="1.0" encoding="utf-8"?>
<!-- Generator: Adobe Illustrator 16.0.0, SVG Export Plug-In . SVG Version: 6.00 Build 0)  -->
<!DOCTYPE svg PUBLIC "-//W3C//DTD SVG 1.1//EN" "http://www.w3.org/Graphics/SVG/1.1/DTD/svg11.dtd">
<svg version="1.1" id="Layer_45" xmlns="http://www.w3.org/2000/svg" xmlns:xlink="http://www.w3.org/1999/xlink" x="0px" y="0px"
	 width="1920px" height="820.5px" viewBox="0 -17.7 1920 820.5" enable-background="new 0 -17.7 1920 820.5" xml:space="preserve">
<path id="XMLID_45_" fill="none" stroke="#BD2026" stroke-width="0.2554" enable-background="new    " d="M13.5,285.5
	c68.8,51.5,140.4,96.9,217.8,127.2c43.8,17.1,89.5,28.7,138.1,34.2c76.8,8.6,153.1,5.2,228.9-7.7c48.4-8.2,96.5-20,144.3-34.9
	c94.4-29.5,186.8-67.5,282.1-94.2c44.1-12.2,90-22.4,137-28c73.9-8.8,145.2-0.2,211.8,17.4c41.9,11.1,83.1,23.1,125,34.7
	c21.9,6.1,44.1,11.8,66.6,16.9c80,18.4,165,26.3,248.9,22.7c16.2-0.7,32.5-1.5,48.7-3.4c11.5-1.3,23-3,36.1-4.6"/>
</svg>
