<?xml version="1.0" encoding="utf-8"?>
<!-- Generator: Adobe Illustrator 16.0.0, SVG Export Plug-In . SVG Version: 6.00 Build 0)  -->
<!DOCTYPE svg PUBLIC "-//W3C//DTD SVG 1.1//EN" "http://www.w3.org/Graphics/SVG/1.1/DTD/svg11.dtd">
<svg version="1.1" id="Layer_24" xmlns="http://www.w3.org/2000/svg" xmlns:xlink="http://www.w3.org/1999/xlink" x="0px" y="0px"
	 width="1920px" height="820.5px" viewBox="0 -17.7 1920 820.5" enable-background="new 0 -17.7 1920 820.5" xml:space="preserve">
<path id="XMLID_24_" fill="none" stroke="#BD2026" stroke-width="0.2554" enable-background="new    " d="M7.6,414.8
	c70.1,63.6,165.5,99.6,253.4,117.3c53.6,10.8,105,10.5,156.1,2.6c81.8-12.5,158.8-43.6,237.3-77.8c49.4-21.5,99.2-44.3,149.3-68
	c99.6-47.2,199.7-97.2,303-136.2c40.4-15.3,95.3-35.6,150.6-48.1c86.6-19.8,166.9-14.3,203.8,52.8c18.5,33.6,33.7,66.3,53.7,99.4
	c10.4,17.5,23,34.5,39.5,51c60,60,169.2,70.8,258,73.6c18.2,0.5,36.2,1,54.3,0.8c13.2-0.1,26.3-0.5,40.4-1"/>
</svg>
