<?xml version="1.0" encoding="utf-8"?>
<!-- Generator: Adobe Illustrator 16.0.0, SVG Export Plug-In . SVG Version: 6.00 Build 0)  -->
<!DOCTYPE svg PUBLIC "-//W3C//DTD SVG 1.1//EN" "http://www.w3.org/Graphics/SVG/1.1/DTD/svg11.dtd">
<svg version="1.1" id="Layer_17" xmlns="http://www.w3.org/2000/svg" xmlns:xlink="http://www.w3.org/1999/xlink" x="0px" y="0px"
	 width="1920px" height="820.5px" viewBox="0 -17.7 1920 820.5" enable-background="new 0 -17.7 1920 820.5" xml:space="preserve">
<path id="XMLID_17_" fill="none" stroke="#BD2026" stroke-width="0.2554" enable-background="new    " d="M5.6,457.9
	c70.5,67.7,174,100.3,265.2,114c56.9,8.5,110.2,4.4,162.1-7.9c83.5-19.7,160.7-59.8,240.1-101.2c49.7-25.9,100.1-52.4,151-79
	c101.3-53.1,204-106.7,310-150.2c39.3-16.1,97.1-40,155.1-54.8c90.9-23.4,176.1-20.9,201.1,64.5c11.7,40,17.3,80.7,30,121
	c6.6,21.2,15.9,42.1,30.4,62.3c53.2,74.2,170.6,85.8,261,90.6c18.9,1,37.5,1.8,56.2,2.2c13.7,0.3,27.4,0.3,41.9,0.2"/>
</svg>
