<?xml version="1.0" encoding="utf-8"?>
<!-- Generator: Adobe Illustrator 16.0.0, SVG Export Plug-In . SVG Version: 6.00 Build 0)  -->
<!DOCTYPE svg PUBLIC "-//W3C//DTD SVG 1.1//EN" "http://www.w3.org/Graphics/SVG/1.1/DTD/svg11.dtd">
<svg version="1.1" id="Layer_36" xmlns="http://www.w3.org/2000/svg" xmlns:xlink="http://www.w3.org/1999/xlink" x="0px" y="0px"
	 width="1920px" height="820.5px" viewBox="0 -17.7 1920 820.5" enable-background="new 0 -17.7 1920 820.5" xml:space="preserve">
<path id="XMLID_36_" fill="none" stroke="#BD2026" stroke-width="0.2554" enable-background="new    " d="M11,340.9
	c69.3,56.7,151.1,98.2,233,123c47.9,14.5,96.1,20.9,145.8,20.7c78.9-0.4,155.6-15.7,232.5-37.7c48.8-13.9,97.7-30.4,146.4-49.1
	c96.6-37.1,192.3-80.5,291.1-112.2c42.5-13.6,92.3-28,142.8-36.6c79.4-13.5,154.4-4.5,208.4,32.6c31.7,21.8,62,41.6,94.4,62.4
	c17,10.9,35,21.5,55,31.5c71.4,36.1,166.8,45.4,252.8,44.5c17.1-0.2,34.1-0.4,51.1-1.6c12.2-0.8,24.5-2,38-3.1"/>
</svg>
