<?xml version="1.0" encoding="utf-8"?>
<!-- Generator: Adobe Illustrator 16.0.0, SVG Export Plug-In . SVG Version: 6.00 Build 0)  -->
<!DOCTYPE svg PUBLIC "-//W3C//DTD SVG 1.1//EN" "http://www.w3.org/Graphics/SVG/1.1/DTD/svg11.dtd">
<svg version="1.1" id="Layer_35" xmlns="http://www.w3.org/2000/svg" xmlns:xlink="http://www.w3.org/1999/xlink" x="0px" y="0px"
	 width="1920px" height="820.5px" viewBox="0 -17.7 1920 820.5" enable-background="new 0 -17.7 1920 820.5" xml:space="preserve">
<path id="XMLID_35_" fill="none" stroke="#BD2026" stroke-width="0.2554" enable-background="new    " d="M10.7,347.1
	c69.4,57.3,152.3,98.4,234.7,122.5c48.4,14.2,96.8,20.1,146.7,19.1c79.2-1.5,155.8-18.1,232.9-41.1c48.9-14.5,97.8-31.6,146.7-50.7
	c96.9-38,192.9-81.9,292-114.2c42.3-13.8,92.5-28.7,143.4-37.6c80-14,155.4-5.2,208,34.2c30.5,22.9,59.6,43.6,91,65.5
	c16.5,11.5,34,22.5,53.7,33.1c70.5,38,167,47.5,253.2,47c17.2-0.1,34.3-0.3,51.4-1.4c12.3-0.8,24.6-1.9,38.2-2.9"/>
</svg>
