<?xml version="1.0" encoding="utf-8"?>
<!-- Generator: Adobe Illustrator 16.0.0, SVG Export Plug-In . SVG Version: 6.00 Build 0)  -->
<!DOCTYPE svg PUBLIC "-//W3C//DTD SVG 1.1//EN" "http://www.w3.org/Graphics/SVG/1.1/DTD/svg11.dtd">
<svg version="1.1" id="Layer_13" xmlns="http://www.w3.org/2000/svg" xmlns:xlink="http://www.w3.org/1999/xlink" x="0px" y="0px"
	 width="1920px" height="820.5px" viewBox="0 -17.7 1920 820.5" enable-background="new 0 -17.7 1920 820.5" xml:space="preserve">
<path id="XMLID_13_" fill="none" stroke="#BD2026" stroke-width="0.2554" enable-background="new    " d="M4.5,482.5
	c70.7,70,178.8,100.7,272,112.1c58.8,7.2,113.1,0.8,165.6-13.9c84.5-23.8,161.8-69.1,241.7-114.6c49.9-28.5,100.6-57,152-85.4
	c102.2-56.5,206.6-112.1,313.9-158.2c38.6-16.6,98.1-42.5,157.7-58.7c93.3-25.5,181.9-24.6,199.6,71.3c8.1,43.8,7.9,88.9,16.4,133.4
	c4.4,23.4,11.8,46.4,25.2,68.8c49.2,82.2,171.4,94.4,262.8,100.3c19.3,1.2,38.2,2.3,57.2,3c14,0.5,28,0.8,42.7,0.8"/>
</svg>
