<?xml version="1.0" encoding="utf-8"?>
<!-- Generator: Adobe Illustrator 16.0.0, SVG Export Plug-In . SVG Version: 6.00 Build 0)  -->
<!DOCTYPE svg PUBLIC "-//W3C//DTD SVG 1.1//EN" "http://www.w3.org/Graphics/SVG/1.1/DTD/svg11.dtd">
<svg version="1.1" id="Layer_40" xmlns="http://www.w3.org/2000/svg" xmlns:xlink="http://www.w3.org/1999/xlink" x="0px" y="0px"
	 width="1920px" height="820.5px" viewBox="0 -17.7 1920 820.5" enable-background="new 0 -17.7 1920 820.5" xml:space="preserve">
<path id="XMLID_40_" fill="none" stroke="#BD2026" stroke-width="0.2554" enable-background="new    " d="M12.1,316.3
	c69.1,54.4,146.3,97.7,226.3,124.9c46.1,15.7,93.1,24.4,142.4,26.7c78,3.6,154.5-6.5,230.9-24.4c48.6-11.3,97.2-25.8,145.5-42.8
	c95.6-33.7,189.8-74.8,287.1-104.2c43.2-13,91.3-25.5,140.2-32.8c77-11.4,150.5-2.3,209.9,25.8c36.3,17.2,71.3,33.4,108,50.1
	c19.2,8.8,39,17.1,60.2,25c75.2,28.1,166,36.9,251.1,34.9c16.7-0.4,33.4-0.9,50-2.4c11.9-1,23.8-2.5,37.2-3.7"/>
</svg>
