<?xml version="1.0" encoding="utf-8"?>
<!-- Generator: Adobe Illustrator 16.0.0, SVG Export Plug-In . SVG Version: 6.00 Build 0)  -->
<!DOCTYPE svg PUBLIC "-//W3C//DTD SVG 1.1//EN" "http://www.w3.org/Graphics/SVG/1.1/DTD/svg11.dtd">
<svg version="1.1" id="Layer_11" xmlns="http://www.w3.org/2000/svg" xmlns:xlink="http://www.w3.org/1999/xlink" x="0px" y="0px"
	 width="1920px" height="820.5px" viewBox="0 -17.7 1920 820.5" enable-background="new 0 -17.7 1920 820.5" xml:space="preserve">
<path id="XMLID_11_" fill="none" stroke="#BD2026" stroke-width="0.2554" enable-background="new    " d="M3.9,494.8
	C74.8,566,185.1,595.7,279.3,606c59.7,6.5,114.6-0.9,167.3-16.9c85-25.8,162.3-73.7,242.4-121.2c50-29.7,100.9-59.3,152.5-88.5
	c102.7-58.2,207.9-114.7,315.9-162.2c38.3-16.8,98.6-43.7,159-60.6c94.5-26.5,184.9-26.3,198.9,74.6c6.3,45.7,3.2,93,9.6,139.5
	c3.3,24.5,9.8,48.6,22.7,72.1c47.3,86.3,171.8,98.6,263.6,105.1c19.5,1.4,38.6,2.5,57.7,3.4c14.2,0.6,28.3,1,43.1,1.2"/>
</svg>
