<?xml version="1.0" encoding="utf-8"?>
<!-- Generator: Adobe Illustrator 16.0.0, SVG Export Plug-In . SVG Version: 6.00 Build 0)  -->
<!DOCTYPE svg PUBLIC "-//W3C//DTD SVG 1.1//EN" "http://www.w3.org/Graphics/SVG/1.1/DTD/svg11.dtd">
<svg version="1.1" id="Layer_39" xmlns="http://www.w3.org/2000/svg" xmlns:xlink="http://www.w3.org/1999/xlink" x="0px" y="0px"
	 width="1920px" height="820.5px" viewBox="0 -17.7 1920 820.5" enable-background="new 0 -17.7 1920 820.5" xml:space="preserve">
<path id="XMLID_39_" fill="none" stroke="#BD2026" stroke-width="0.2554" enable-background="new    " d="M11.8,322.5
	c69.1,55,147.5,97.8,227.9,124.4c46.6,15.4,93.9,23.5,143.3,25.2c78.2,2.6,154.7-8.8,231.3-27.7c48.7-12,97.3-27,145.7-44.4
	c95.9-34.6,190.4-76.2,288.1-106.2c43-13.2,91.5-26.2,140.9-33.7c77.6-11.9,151.5-2.8,209.5,27.5c35.2,18.4,69,35.5,104.6,53.2
	c18.6,9.3,38,18.2,58.9,26.6c74.3,30.1,166.2,39,251.5,37.3c16.8-0.3,33.6-0.8,50.3-2.2c12-1,24-2.3,37.4-3.6"/>
</svg>
