<?xml version="1.0" encoding="utf-8"?>
<!-- Generator: Adobe Illustrator 16.0.0, SVG Export Plug-In . SVG Version: 6.00 Build 0)  -->
<!DOCTYPE svg PUBLIC "-//W3C//DTD SVG 1.1//EN" "http://www.w3.org/Graphics/SVG/1.1/DTD/svg11.dtd">
<svg version="1.1" id="Layer_05" xmlns="http://www.w3.org/2000/svg" xmlns:xlink="http://www.w3.org/1999/xlink" x="0px" y="0px"
	 width="1920px" height="820.5px" viewBox="0 -17.7 1920 820.5" enable-background="new 0 -17.7 1920 820.5" xml:space="preserve">
<path id="XMLID_5_" fill="none" stroke="#BD2026" stroke-width="0.2554" enable-background="new    " d="M2.2,531.8
	C73.4,606.4,190.7,633,287.8,640.1c62.5,4.5,119-6.2,172.4-25.9c86.4-32,164-87.7,244.8-141.3c50.2-33.5,101.6-66.2,153.9-98
	c104.2-63.3,211.8-122.6,321.9-174.2c37.4-17.5,100.1-47.5,162.9-66.4c98.2-29.6,194.1-31.3,196.6,84.7
	c1.1,51.7-10.9,105.4-10.8,158c0.1,27.7,3.7,55.1,14.9,81.8c41.2,98.4,172.9,111.5,266.2,119.6c20.1,1.8,39.7,3.3,59.3,4.5
	c14.6,0.9,29.3,1.7,44.3,2.2"/>
</svg>
