<?xml version="1.0" encoding="utf-8"?>
<!-- Generator: Adobe Illustrator 16.0.0, SVG Export Plug-In . SVG Version: 6.00 Build 0)  -->
<!DOCTYPE svg PUBLIC "-//W3C//DTD SVG 1.1//EN" "http://www.w3.org/Graphics/SVG/1.1/DTD/svg11.dtd">
<svg version="1.1" id="Layer_41" xmlns="http://www.w3.org/2000/svg" xmlns:xlink="http://www.w3.org/1999/xlink" x="0px" y="0px"
	 width="1920px" height="820.5px" viewBox="0 -17.7 1920 820.5" enable-background="new 0 -17.7 1920 820.5" xml:space="preserve">
<path id="XMLID_41_" fill="none" stroke="#BD2026" stroke-width="0.2554" enable-background="new    " d="M12.4,310.1
	c69,53.8,145.1,97.6,224.6,125.3c45.6,15.9,92.4,25.3,141.6,28.2c77.8,4.6,154.2-4.1,230.5-21c48.6-10.7,97.1-24.6,145.2-41.2
	c95.4-32.9,189.2-73.4,286.1-102.2c43.4-12.9,91-24.9,139.6-31.8c76.3-10.8,149.5-1.9,210.3,24.1c37.4,16,73.7,31.3,111.4,47
	c19.7,8.3,40,16.1,61.4,23.4c76.2,26.2,165.8,34.8,250.6,32.4c16.6-0.5,33.2-1,49.8-2.6c11.8-1.1,23.7-2.6,37-3.9"/>
</svg>
