<?xml version="1.0" encoding="utf-8"?>
<!-- Generator: Adobe Illustrator 16.0.0, SVG Export Plug-In . SVG Version: 6.00 Build 0)  -->
<!DOCTYPE svg PUBLIC "-//W3C//DTD SVG 1.1//EN" "http://www.w3.org/Graphics/SVG/1.1/DTD/svg11.dtd">
<svg version="1.1" id="Layer_03" xmlns="http://www.w3.org/2000/svg" xmlns:xlink="http://www.w3.org/1999/xlink" x="0px" y="0px"
	 width="1920px" height="820.5px" viewBox="0 -17.7 1920 820.5" enable-background="new 0 -17.7 1920 820.5" xml:space="preserve">
<path id="XMLID_3_" fill="none" stroke="#BD2026" stroke-width="0.2554" enable-background="new    " d="M1.7,544.1
	C73,619.9,192.5,645.4,290.6,651.4c63.5,3.8,120.5-8,174.1-28.9c86.9-34,164.5-92.3,245.6-148c50.3-34.8,101.9-68.6,154.4-101.1
	c104.7-64.9,213.1-125.2,323.9-178.2c37-17.7,100.7-48.7,164.2-68.3c99.4-30.6,197.3-32.8,195.8,88.1
	c-0.7,53.7-15.6,109.5-17.5,164.2c-1,28.8,1.7,57.3,12.3,85c39.3,102.4,173.3,115.8,267.1,124.5c20.3,1.9,40,3.5,59.9,4.9
	c14.8,1,29.6,1.9,44.8,2.5"/>
</svg>
